<svg xmlns="http://www.w3.org/2000/svg" xmlns:xlink="http://www.w3.org/1999/xlink" contentStyleType="text/css" data-diagram-type="ACTIVITY" height="1537px" preserveAspectRatio="none" style="width:2766px;height:1537px;background:#FFFFFF;" version="1.1" viewBox="0 0 2766 1537" width="2766px" zoomAndPan="magnify"><title>UC 14 - Payer ses cotisations</title><defs/><g><g class="title" data-source-line="1"><text fill="#000000" font-family="sans-serif" font-size="14" font-weight="bold" lengthAdjust="spacing" textLength="229.2979" x="1267.1506" y="32.9951">UC 14 - Payer ses cotisations</text></g><rect fill="none" height="20.9531" style="stroke:none;stroke-width:1;" width="2733.5991" x="15" y="50.042"/><ellipse cx="286.8958" cy="85.9951" fill="#222222" rx="10" ry="10" style="stroke:#222222;stroke-width:1;"/><rect fill="#F1F1F1" height="33.9688" rx="12.5" ry="12.5" style="stroke:#181818;stroke-width:0.5;" width="286.6074" x="143.592" y="115.9951"/><text fill="#000000" font-family="sans-serif" font-size="12" lengthAdjust="spacing" textLength="266.6074" x="153.592" y="137.1338">Se connecter &#224; son espace personnel (UC 1)</text><rect fill="#F1F1F1" height="33.9688" rx="12.5" ry="12.5" style="stroke:#181818;stroke-width:0.5;" width="286.5957" x="143.5979" y="169.9639"/><text fill="#000000" font-family="sans-serif" font-size="12" lengthAdjust="spacing" textLength="266.5957" x="153.5979" y="191.1025">Naviguer vers section paiements cotisations</text><rect fill="#F1F1F1" height="33.9688" rx="12.5" ry="12.5" style="stroke:#181818;stroke-width:0.5;" width="269.1406" x="152.3254" y="277.9014"/><text fill="#000000" font-family="sans-serif" font-size="12" lengthAdjust="spacing" textLength="249.1406" x="162.3254" y="299.04">Choisir montant et m&#233;thode de paiement</text><rect fill="#F1F1F1" height="33.9688" rx="12.5" ry="12.5" style="stroke:#181818;stroke-width:0.5;" width="167.1465" x="21" y="581.644"/><text fill="#000000" font-family="sans-serif" font-size="12" lengthAdjust="spacing" textLength="147.1465" x="31" y="602.7827">Saisir informations carte</text><rect fill="#F1F1F1" height="33.9688" rx="12.5" ry="12.5" style="stroke:#181818;stroke-width:0.5;" width="161.1348" x="24.0059" y="635.6128"/><text fill="#000000" font-family="sans-serif" font-size="12" lengthAdjust="spacing" textLength="141.1348" x="34.0059" y="656.7515">Confirmer paiement CB</text><rect fill="#F1F1F1" height="33.9688" rx="12.5" ry="12.5" style="stroke:#181818;stroke-width:0.5;" width="211.5781" x="336.9492" y="527.6753"/><text fill="#000000" font-family="sans-serif" font-size="12" lengthAdjust="spacing" textLength="191.5781" x="346.9492" y="548.814">Confirmer/Saisir num&#233;ro mobile</text><rect fill="#F1F1F1" height="47.9375" rx="12.5" ry="12.5" style="stroke:#181818;stroke-width:0.5;" width="176.2637" x="354.6064" y="689.5815"/><text fill="#000000" font-family="sans-serif" font-size="12" lengthAdjust="spacing" textLength="156.2637" x="364.6064" y="710.7202">Saisir code PIN sur mobile</text><text fill="#000000" font-family="sans-serif" font-size="12" lengthAdjust="spacing" textLength="89.3555" x="364.6064" y="724.689">pour confirmer</text><line style="stroke:#000000;stroke-width:1.5;" x1="15" x2="15" y1="50.042" y2="1525.0815"/><rect fill="#F1F1F1" height="33.9688" rx="12.5" ry="12.5" style="stroke:#181818;stroke-width:0.5;" width="311.4336" x="558.5273" y="223.9326"/><text fill="#000000" font-family="sans-serif" font-size="12" lengthAdjust="spacing" textLength="291.4336" x="568.5273" y="245.0713">Afficher cotisations dues et options de paiement</text><line style="stroke:#000000;stroke-width:1.5;" x1="552.5273" x2="552.5273" y1="50.042" y2="1525.0815"/><rect fill="#F1F1F1" height="33.9688" rx="12.5" ry="12.5" style="stroke:#181818;stroke-width:0.5;" width="300.0371" x="1055.3853" y="331.8701"/><text fill="#000000" font-family="sans-serif" font-size="12" lengthAdjust="spacing" textLength="280.0371" x="1065.3853" y="353.0088">Enregistrer transaction interne (Statut: Initi&#233;e)</text><line style="stroke:#181818;stroke-width:1.5;" x1="1023.0813" x2="1361.2463" y1="385.8389" y2="385.8389"/><rect fill="#F1F1F1" height="33.9688" rx="12.5" ry="12.5" style="stroke:#181818;stroke-width:0.5;" width="146.8613" x="949.6506" y="473.7065"/><text fill="#000000" font-family="sans-serif" font-size="12" lengthAdjust="spacing" textLength="126.8613" x="959.6506" y="494.8452">Initier transaction CB</text><rect fill="#F1F1F1" height="33.9688" rx="12.5" ry="12.5" style="stroke:#181818;stroke-width:0.5;" width="193.6895" x="1264.4016" y="419.7378"/><text fill="#000000" font-family="sans-serif" font-size="12" lengthAdjust="spacing" textLength="173.6895" x="1274.4016" y="440.8765">Initier transaction OM/MOMO</text><rect fill="#F1F1F1" height="33.9688" rx="12.5" ry="12.5" style="stroke:#181818;stroke-width:0.5;" width="315.1953" x="1203.6487" y="581.644"/><text fill="#000000" font-family="sans-serif" font-size="12" lengthAdjust="spacing" textLength="295.1953" x="1213.6487" y="602.7827">Envoyer requ&#234;te initiation transaction OM/MOMO</text><rect fill="#F1F1F1" height="33.9688" rx="12.5" ry="12.5" style="stroke:#181818;stroke-width:0.5;" width="241.6836" x="1084.562" y="885.4565"/><text fill="#000000" font-family="sans-serif" font-size="12" lengthAdjust="spacing" textLength="221.6836" x="1094.562" y="906.5952">Recevoir notification de la Passerelle</text><rect fill="#F1F1F1" height="33.9688" rx="12.5" ry="12.5" style="stroke:#181818;stroke-width:0.5;" width="229.5078" x="1090.6499" y="939.4253"/><text fill="#000000" font-family="sans-serif" font-size="12" lengthAdjust="spacing" textLength="209.5078" x="1100.6499" y="960.564">Traiter le r&#233;sultat de la transaction</text><polygon fill="#F1F1F1" points="1149.8184,993.394,1260.9893,993.394,1272.9893,1005.394,1260.9893,1017.394,1149.8184,1017.394,1137.8184,1005.394,1149.8184,993.394" style="stroke:#181818;stroke-width:0.5;"/><text fill="#000000" font-family="sans-serif" font-size="11" lengthAdjust="spacing" textLength="111.1709" x="1149.8184" y="1009.2021">R&#233;sultat transaction</text><text fill="#000000" font-family="sans-serif" font-size="11" lengthAdjust="spacing" textLength="38.5483" x="1099.27" y="1002.7998">Succ&#232;s</text><text fill="#000000" font-family="sans-serif" font-size="11" lengthAdjust="spacing" textLength="126.4355" x="1272.9893" y="1002.7998">&#201;chec/Refus ou Annul&#233;</text><rect fill="#F1F1F1" height="33.9688" rx="12.5" ry="12.5" style="stroke:#181818;stroke-width:0.5;" width="263.6328" x="903.5039" y="1037.394"/><text fill="#000000" font-family="sans-serif" font-size="12" lengthAdjust="spacing" textLength="243.6328" x="913.5039" y="1058.5327">Mettre &#224; jour statut transaction (Succ&#232;s)</text><rect fill="#F1F1F1" height="33.9688" rx="12.5" ry="12.5" style="stroke:#181818;stroke-width:0.5;" width="234.2363" x="918.2021" y="1105.3315"/><text fill="#000000" font-family="sans-serif" font-size="12" lengthAdjust="spacing" textLength="214.2363" x="928.2021" y="1126.4702">Marquer cotisations comme pay&#233;es</text><rect fill="#F1F1F1" height="33.9688" rx="12.5" ry="12.5" style="stroke:#181818;stroke-width:0.5;" width="293.5684" x="888.5361" y="1173.269"/><text fill="#000000" font-family="sans-serif" font-size="12" lengthAdjust="spacing" textLength="273.5684" x="898.5361" y="1194.4077">Ajuster statut mutualiste (si impay&#233;s r&#233;solus)</text><rect fill="#F1F1F1" height="33.9688" rx="12.5" ry="12.5" style="stroke:#181818;stroke-width:0.5;" width="203.0703" x="933.7852" y="1241.2065"/><text fill="#000000" font-family="sans-serif" font-size="12" lengthAdjust="spacing" textLength="183.0703" x="943.7852" y="1262.3452">Enregistrer historique complet</text><rect fill="#F1F1F1" height="33.9688" rx="12.5" ry="12.5" style="stroke:#181818;stroke-width:0.5;" width="310.25" x="880.1953" y="1379.144"/><text fill="#000000" font-family="sans-serif" font-size="12" lengthAdjust="spacing" textLength="290.25" x="890.1953" y="1400.2827">Envoyer confirmation (Email/SMS) au Mutualiste</text><rect fill="#F1F1F1" height="33.9688" rx="12.5" ry="12.5" style="stroke:#181818;stroke-width:0.5;" width="310.7188" x="879.9609" y="1433.1128"/><text fill="#000000" font-family="sans-serif" font-size="12" lengthAdjust="spacing" textLength="290.7188" x="889.9609" y="1454.2515">Rediriger vers page Cotisations/Tableau de bord</text><ellipse cx="1035.3203" cy="1498.0815" fill="none" rx="11" ry="11" style="stroke:#222222;stroke-width:1;"/><ellipse cx="1035.3203" cy="1498.0815" fill="#222222" rx="6" ry="6" style="stroke:#222222;stroke-width:1;"/><rect fill="#F1F1F1" height="47.9375" rx="12.5" ry="12.5" style="stroke:#181818;stroke-width:0.5;" width="208.4023" x="1271.2861" y="1037.394"/><text fill="#000000" font-family="sans-serif" font-size="12" lengthAdjust="spacing" textLength="188.4023" x="1281.2861" y="1058.5327">Mettre &#224; jour statut transaction</text><text fill="#000000" font-family="sans-serif" font-size="12" lengthAdjust="spacing" textLength="143.5254" x="1281.2861" y="1072.5015">(&#201;chec/Refus&#233;/Annul&#233;e)</text><rect fill="#F1F1F1" height="33.9688" rx="12.5" ry="12.5" style="stroke:#181818;stroke-width:0.5;" width="329.6152" x="1210.6797" y="1119.3003"/><text fill="#000000" font-family="sans-serif" font-size="12" lengthAdjust="spacing" textLength="309.6152" x="1220.6797" y="1140.439">Enregistrer historique transaction &#233;chou&#233;e/annul&#233;e</text><line style="stroke:#000000;stroke-width:1.5;" x1="873.9609" x2="873.9609" y1="50.042" y2="1525.0815"/><rect fill="#F1F1F1" height="47.9375" rx="12.5" ry="12.5" style="stroke:#181818;stroke-width:0.5;" width="187.0449" x="1591.082" y="689.5815"/><text fill="#000000" font-family="sans-serif" font-size="12" lengthAdjust="spacing" textLength="167.0449" x="1601.082" y="710.7202">Communiquer avec Banque</text><text fill="#000000" font-family="sans-serif" font-size="12" lengthAdjust="spacing" textLength="151.9219" x="1601.082" y="724.689">(Autorisation, 3D Secure)</text><rect fill="#F1F1F1" height="33.9688" rx="12.5" ry="12.5" style="stroke:#181818;stroke-width:0.5;" width="268.6191" x="1550.2949" y="757.519"/><text fill="#000000" font-family="sans-serif" font-size="12" lengthAdjust="spacing" textLength="248.6191" x="1560.2949" y="778.6577">Notifier Syst&#232;me de Paiement du r&#233;sultat</text><rect fill="#F1F1F1" height="33.9688" rx="12.5" ry="12.5" style="stroke:#181818;stroke-width:0.5;" width="325.4902" x="1828.9141" y="635.6128"/><text fill="#000000" font-family="sans-serif" font-size="12" lengthAdjust="spacing" textLength="305.4902" x="1838.9141" y="656.7515">Envoyer notification (USSD/SMS/Pop-up) au mobile</text><rect fill="#F1F1F1" height="33.9688" rx="12.5" ry="12.5" style="stroke:#181818;stroke-width:0.5;" width="176.0879" x="1903.6152" y="757.519"/><text fill="#000000" font-family="sans-serif" font-size="12" lengthAdjust="spacing" textLength="156.0879" x="1913.6152" y="778.6577">Traiter transaction mobile</text><rect fill="#F1F1F1" height="33.9688" rx="12.5" ry="12.5" style="stroke:#181818;stroke-width:0.5;" width="268.6191" x="1857.3496" y="811.4878"/><text fill="#000000" font-family="sans-serif" font-size="12" lengthAdjust="spacing" textLength="248.6191" x="1867.3496" y="832.6265">Notifier Syst&#232;me de Paiement du r&#233;sultat</text><line style="stroke:#181818;stroke-width:1.5;" x1="1684.6045" x2="1991.6592" y1="865.4565" y2="865.4565"/><line style="stroke:#000000;stroke-width:1.5;" x1="1544.2949" x2="1544.2949" y1="50.042" y2="1525.0815"/><rect fill="#F1F1F1" height="33.9688" rx="12.5" ry="12.5" style="stroke:#181818;stroke-width:0.5;" width="294.8398" x="2164.4043" y="527.6753"/><text fill="#000000" font-family="sans-serif" font-size="12" lengthAdjust="spacing" textLength="274.8398" x="2174.4043" y="548.814">Rediriger vers/Afficher formulaire s&#233;curis&#233; CB</text><rect fill="#F1F1F1" height="33.9688" rx="12.5" ry="12.5" style="stroke:#181818;stroke-width:0.5;" width="233.3691" x="2475.0657" y="473.7065"/><text fill="#000000" font-family="sans-serif" font-size="12" lengthAdjust="spacing" textLength="213.3691" x="2485.0657" y="494.8452">Inviter confirmation num&#233;ro mobile</text><rect fill="#F1F1F1" height="33.9688" rx="12.5" ry="12.5" style="stroke:#181818;stroke-width:0.5;" width="244.7363" x="2201.6951" y="1310.1753"/><text fill="#000000" font-family="sans-serif" font-size="12" lengthAdjust="spacing" textLength="224.7363" x="2211.6951" y="1331.314">G&#233;n&#233;rer et afficher re&#231;u/confirmation</text><rect fill="#F1F1F1" height="33.9688" rx="12.5" ry="12.5" style="stroke:#181818;stroke-width:0.5;" width="273.4941" x="2469.2441" y="1187.2378"/><text fill="#000000" font-family="sans-serif" font-size="12" lengthAdjust="spacing" textLength="253.4941" x="2479.2441" y="1208.3765">Afficher message d'erreur ou d'annulation</text><rect fill="#F1F1F1" height="47.9375" rx="12.5" ry="12.5" style="stroke:#181818;stroke-width:0.5;" width="185.3809" x="2513.3008" y="1255.1753"/><text fill="#000000" font-family="sans-serif" font-size="12" lengthAdjust="spacing" textLength="156.2695" x="2523.3008" y="1276.314">Rester sur page paiement</text><text fill="#000000" font-family="sans-serif" font-size="12" lengthAdjust="spacing" textLength="165.3809" x="2523.3008" y="1290.2827">/ Rediriger vers page &#233;chec</text><ellipse cx="2605.9912" cy="1349.1128" fill="none" rx="11" ry="11" style="stroke:#222222;stroke-width:1;"/><ellipse cx="2605.9912" cy="1349.1128" fill="#222222" rx="6" ry="6" style="stroke:#222222;stroke-width:1;"/><line style="stroke:#000000;stroke-width:1.5;" x1="2158.4043" x2="2158.4043" y1="50.042" y2="1525.0815"/><line style="stroke:#000000;stroke-width:1.5;" x1="2746.7383" x2="2746.7383" y1="50.042" y2="1525.0815"/><line style="stroke:#181818;stroke-width:1;" x1="286.8958" x2="286.8958" y1="95.9951" y2="115.9951"/><polygon fill="#181818" points="282.8958,105.9951,286.8958,115.9951,290.8958,105.9951,286.8958,109.9951" style="stroke:#181818;stroke-width:1;"/><line style="stroke:#181818;stroke-width:1;" x1="286.8958" x2="286.8958" y1="149.9639" y2="169.9639"/><polygon fill="#181818" points="282.8958,159.9639,286.8958,169.9639,290.8958,159.9639,286.8958,163.9639" style="stroke:#181818;stroke-width:1;"/><line style="stroke:#181818;stroke-width:1;" x1="104.5732" x2="104.5732" y1="615.6128" y2="635.6128"/><polygon fill="#181818" points="100.5732,625.6128,104.5732,635.6128,108.5732,625.6128,104.5732,629.6128" style="stroke:#181818;stroke-width:1;"/><line style="stroke:#181818;stroke-width:1;" x1="1023.0813" x2="1023.0813" y1="387.3389" y2="473.7065"/><polygon fill="#181818" points="1019.0813,463.7065,1023.0813,473.7065,1027.0813,463.7065,1023.0813,467.7065" style="stroke:#181818;stroke-width:1;"/><text fill="#000000" font-family="sans-serif" font-size="11" lengthAdjust="spacing" textLength="95.4497" x="1027.0813" y="441.6279">Si Carte Bancaire</text><line style="stroke:#181818;stroke-width:1;" x1="1361.2463" x2="1361.2463" y1="387.3389" y2="419.7378"/><polygon fill="#181818" points="1357.2463,409.7378,1361.2463,419.7378,1365.2463,409.7378,1361.2463,413.7378" style="stroke:#181818;stroke-width:1;"/><text fill="#000000" font-family="sans-serif" font-size="11" lengthAdjust="spacing" textLength="173.8999" x="1365.2463" y="407.1436">Si Orange Money/Mobile Money</text><line style="stroke:#181818;stroke-width:1;" x1="1205.4038" x2="1205.4038" y1="365.8389" y2="385.8389"/><polygon fill="#181818" points="1201.4038,375.8389,1205.4038,385.8389,1209.4038,375.8389,1205.4038,379.8389" style="stroke:#181818;stroke-width:1;"/><line style="stroke:#181818;stroke-width:1;" x1="1205.4038" x2="1205.4038" y1="919.4253" y2="939.4253"/><polygon fill="#181818" points="1201.4038,929.4253,1205.4038,939.4253,1209.4038,929.4253,1205.4038,933.4253" style="stroke:#181818;stroke-width:1;"/><line style="stroke:#181818;stroke-width:1;" x1="1035.3203" x2="1035.3203" y1="1071.3628" y2="1105.3315"/><polygon fill="#181818" points="1031.3203,1095.3315,1035.3203,1105.3315,1039.3203,1095.3315,1035.3203,1099.3315" style="stroke:#181818;stroke-width:1;"/><line style="stroke:#181818;stroke-width:1;" x1="1035.3203" x2="1035.3203" y1="1139.3003" y2="1173.269"/><polygon fill="#181818" points="1031.3203,1163.269,1035.3203,1173.269,1039.3203,1163.269,1035.3203,1167.269" style="stroke:#181818;stroke-width:1;"/><line style="stroke:#181818;stroke-width:1;" x1="1035.3203" x2="1035.3203" y1="1207.2378" y2="1241.2065"/><polygon fill="#181818" points="1031.3203,1231.2065,1035.3203,1241.2065,1039.3203,1231.2065,1035.3203,1235.2065" style="stroke:#181818;stroke-width:1;"/><line style="stroke:#181818;stroke-width:1;" x1="1035.3203" x2="1035.3203" y1="1413.1128" y2="1433.1128"/><polygon fill="#181818" points="1031.3203,1423.1128,1035.3203,1433.1128,1039.3203,1423.1128,1035.3203,1427.1128" style="stroke:#181818;stroke-width:1;"/><line style="stroke:#181818;stroke-width:1;" x1="1035.3203" x2="1035.3203" y1="1467.0815" y2="1487.0815"/><polygon fill="#181818" points="1031.3203,1477.0815,1035.3203,1487.0815,1039.3203,1477.0815,1035.3203,1481.0815" style="stroke:#181818;stroke-width:1;"/><line style="stroke:#181818;stroke-width:1;" x1="1375.4873" x2="1375.4873" y1="1085.3315" y2="1119.3003"/><polygon fill="#181818" points="1371.4873,1109.3003,1375.4873,1119.3003,1379.4873,1109.3003,1375.4873,1113.3003" style="stroke:#181818;stroke-width:1;"/><line style="stroke:#181818;stroke-width:1;" x1="1137.8184" x2="1035.3203" y1="1005.394" y2="1005.394"/><line style="stroke:#181818;stroke-width:1;" x1="1035.3203" x2="1035.3203" y1="1005.394" y2="1037.394"/><polygon fill="#181818" points="1031.3203,1027.394,1035.3203,1037.394,1039.3203,1027.394,1035.3203,1031.394" style="stroke:#181818;stroke-width:1;"/><line style="stroke:#181818;stroke-width:1;" x1="1272.9893" x2="1375.4873" y1="1005.394" y2="1005.394"/><line style="stroke:#181818;stroke-width:1;" x1="1375.4873" x2="1375.4873" y1="1005.394" y2="1037.394"/><polygon fill="#181818" points="1371.4873,1027.394,1375.4873,1037.394,1379.4873,1027.394,1375.4873,1031.394" style="stroke:#181818;stroke-width:1;"/><line style="stroke:#181818;stroke-width:1;" x1="1205.4038" x2="1205.4038" y1="973.394" y2="993.394"/><polygon fill="#181818" points="1201.4038,983.394,1205.4038,993.394,1209.4038,983.394,1205.4038,987.394" style="stroke:#181818;stroke-width:1;"/><line style="stroke:#181818;stroke-width:1;" x1="1684.6045" x2="1684.6045" y1="737.519" y2="757.519"/><polygon fill="#181818" points="1680.6045,747.519,1684.6045,757.519,1688.6045,747.519,1684.6045,751.519" style="stroke:#181818;stroke-width:1;"/><line style="stroke:#181818;stroke-width:1;" x1="1991.6592" x2="1991.6592" y1="791.4878" y2="811.4878"/><polygon fill="#181818" points="1987.6592,801.4878,1991.6592,811.4878,1995.6592,801.4878,1991.6592,805.4878" style="stroke:#181818;stroke-width:1;"/><line style="stroke:#181818;stroke-width:1;" x1="1684.6045" x2="1684.6045" y1="791.4878" y2="865.4565"/><polygon fill="#181818" points="1680.6045,855.4565,1684.6045,865.4565,1688.6045,855.4565,1684.6045,859.4565" style="stroke:#181818;stroke-width:1;"/><line style="stroke:#181818;stroke-width:1;" x1="1991.6592" x2="1991.6592" y1="845.4565" y2="865.4565"/><polygon fill="#181818" points="1987.6592,855.4565,1991.6592,865.4565,1995.6592,855.4565,1991.6592,859.4565" style="stroke:#181818;stroke-width:1;"/><line style="stroke:#181818;stroke-width:1;" x1="2605.9912" x2="2605.9912" y1="1221.2065" y2="1255.1753"/><polygon fill="#181818" points="2601.9912,1245.1753,2605.9912,1255.1753,2609.9912,1245.1753,2605.9912,1249.1753" style="stroke:#181818;stroke-width:1;"/><line style="stroke:#181818;stroke-width:1;" x1="2605.9912" x2="2605.9912" y1="1303.1128" y2="1338.1128"/><polygon fill="#181818" points="2601.9912,1328.1128,2605.9912,1338.1128,2609.9912,1328.1128,2605.9912,1332.1128" style="stroke:#181818;stroke-width:1;"/><line style="stroke:#181818;stroke-width:1;" x1="286.8958" x2="286.8958" y1="203.9326" y2="208.9326"/><line style="stroke:#181818;stroke-width:1;" x1="286.8958" x2="714.2441" y1="208.9326" y2="208.9326"/><line style="stroke:#181818;stroke-width:1;" x1="714.2441" x2="714.2441" y1="208.9326" y2="223.9326"/><polygon fill="#181818" points="710.2441,213.9326,714.2441,223.9326,718.2441,213.9326,714.2441,217.9326" style="stroke:#181818;stroke-width:1;"/><line style="stroke:#181818;stroke-width:1;" x1="714.2441" x2="714.2441" y1="257.9014" y2="262.9014"/><line style="stroke:#181818;stroke-width:1;" x1="714.2441" x2="286.8958" y1="262.9014" y2="262.9014"/><line style="stroke:#181818;stroke-width:1;" x1="286.8958" x2="286.8958" y1="262.9014" y2="277.9014"/><polygon fill="#181818" points="282.8958,267.9014,286.8958,277.9014,290.8958,267.9014,286.8958,271.9014" style="stroke:#181818;stroke-width:1;"/><line style="stroke:#181818;stroke-width:1;" x1="286.8958" x2="286.8958" y1="311.8701" y2="316.8701"/><line style="stroke:#181818;stroke-width:1;" x1="286.8958" x2="1205.4038" y1="316.8701" y2="316.8701"/><line style="stroke:#181818;stroke-width:1;" x1="1205.4038" x2="1205.4038" y1="316.8701" y2="331.8701"/><polygon fill="#181818" points="1201.4038,321.8701,1205.4038,331.8701,1209.4038,321.8701,1205.4038,325.8701" style="stroke:#181818;stroke-width:1;"/><line style="stroke:#181818;stroke-width:1;" x1="1023.0813" x2="1023.0813" y1="507.6753" y2="512.6753"/><line style="stroke:#181818;stroke-width:1;" x1="1023.0813" x2="2311.8242" y1="512.6753" y2="512.6753"/><line style="stroke:#181818;stroke-width:1;" x1="2311.8242" x2="2311.8242" y1="512.6753" y2="527.6753"/><polygon fill="#181818" points="2307.8242,517.6753,2311.8242,527.6753,2315.8242,517.6753,2311.8242,521.6753" style="stroke:#181818;stroke-width:1;"/><line style="stroke:#181818;stroke-width:1;" x1="2311.8242" x2="2311.8242" y1="561.644" y2="566.644"/><line style="stroke:#181818;stroke-width:1;" x1="2311.8242" x2="104.5732" y1="566.644" y2="566.644"/><line style="stroke:#181818;stroke-width:1;" x1="104.5732" x2="104.5732" y1="566.644" y2="581.644"/><polygon fill="#181818" points="100.5732,571.644,104.5732,581.644,108.5732,571.644,104.5732,575.644" style="stroke:#181818;stroke-width:1;"/><line style="stroke:#181818;stroke-width:1;" x1="104.5732" x2="104.5732" y1="669.5815" y2="674.5815"/><line style="stroke:#181818;stroke-width:1;" x1="104.5732" x2="1684.6045" y1="674.5815" y2="674.5815"/><line style="stroke:#181818;stroke-width:1;" x1="1684.6045" x2="1684.6045" y1="674.5815" y2="689.5815"/><polygon fill="#181818" points="1680.6045,679.5815,1684.6045,689.5815,1688.6045,679.5815,1684.6045,683.5815" style="stroke:#181818;stroke-width:1;"/><line style="stroke:#181818;stroke-width:1;" x1="1361.2463" x2="1361.2463" y1="453.7065" y2="458.7065"/><line style="stroke:#181818;stroke-width:1;" x1="1361.2463" x2="2591.7502" y1="458.7065" y2="458.7065"/><line style="stroke:#181818;stroke-width:1;" x1="2591.7502" x2="2591.7502" y1="458.7065" y2="473.7065"/><polygon fill="#181818" points="2587.7502,463.7065,2591.7502,473.7065,2595.7502,463.7065,2591.7502,467.7065" style="stroke:#181818;stroke-width:1;"/><line style="stroke:#181818;stroke-width:1;" x1="2591.7502" x2="2591.7502" y1="507.6753" y2="512.6753"/><line style="stroke:#181818;stroke-width:1;" x1="2591.7502" x2="442.7383" y1="512.6753" y2="512.6753"/><line style="stroke:#181818;stroke-width:1;" x1="442.7383" x2="442.7383" y1="512.6753" y2="527.6753"/><polygon fill="#181818" points="438.7383,517.6753,442.7383,527.6753,446.7383,517.6753,442.7383,521.6753" style="stroke:#181818;stroke-width:1;"/><line style="stroke:#181818;stroke-width:1;" x1="442.7383" x2="442.7383" y1="561.644" y2="566.644"/><line style="stroke:#181818;stroke-width:1;" x1="442.7383" x2="1361.2463" y1="566.644" y2="566.644"/><line style="stroke:#181818;stroke-width:1;" x1="1361.2463" x2="1361.2463" y1="566.644" y2="581.644"/><polygon fill="#181818" points="1357.2463,571.644,1361.2463,581.644,1365.2463,571.644,1361.2463,575.644" style="stroke:#181818;stroke-width:1;"/><line style="stroke:#181818;stroke-width:1;" x1="1361.2463" x2="1361.2463" y1="615.6128" y2="620.6128"/><line style="stroke:#181818;stroke-width:1;" x1="1361.2463" x2="1991.6592" y1="620.6128" y2="620.6128"/><line style="stroke:#181818;stroke-width:1;" x1="1991.6592" x2="1991.6592" y1="620.6128" y2="635.6128"/><polygon fill="#181818" points="1987.6592,625.6128,1991.6592,635.6128,1995.6592,625.6128,1991.6592,629.6128" style="stroke:#181818;stroke-width:1;"/><line style="stroke:#181818;stroke-width:1;" x1="1991.6592" x2="1991.6592" y1="669.5815" y2="674.5815"/><line style="stroke:#181818;stroke-width:1;" x1="1991.6592" x2="442.7383" y1="674.5815" y2="674.5815"/><line style="stroke:#181818;stroke-width:1;" x1="442.7383" x2="442.7383" y1="674.5815" y2="689.5815"/><polygon fill="#181818" points="438.7383,679.5815,442.7383,689.5815,446.7383,679.5815,442.7383,683.5815" style="stroke:#181818;stroke-width:1;"/><line style="stroke:#181818;stroke-width:1;" x1="442.7383" x2="442.7383" y1="737.519" y2="742.519"/><line style="stroke:#181818;stroke-width:1;" x1="442.7383" x2="1991.6592" y1="742.519" y2="742.519"/><line style="stroke:#181818;stroke-width:1;" x1="1991.6592" x2="1991.6592" y1="742.519" y2="757.519"/><polygon fill="#181818" points="1987.6592,747.519,1991.6592,757.519,1995.6592,747.519,1991.6592,751.519" style="stroke:#181818;stroke-width:1;"/><line style="stroke:#181818;stroke-width:1;" x1="1835.8167" x2="1835.8167" y1="866.9565" y2="870.4565"/><line style="stroke:#181818;stroke-width:1;" x1="1835.8167" x2="1205.4038" y1="870.4565" y2="870.4565"/><line style="stroke:#181818;stroke-width:1;" x1="1205.4038" x2="1205.4038" y1="870.4565" y2="885.4565"/><polygon fill="#181818" points="1201.4038,875.4565,1205.4038,885.4565,1209.4038,875.4565,1205.4038,879.4565" style="stroke:#181818;stroke-width:1;"/><line style="stroke:#181818;stroke-width:1;" x1="1035.3203" x2="1035.3203" y1="1275.1753" y2="1292.6753"/><line style="stroke:#181818;stroke-width:1;" x1="1035.3203" x2="2324.0632" y1="1292.6753" y2="1292.6753"/><line style="stroke:#181818;stroke-width:1;" x1="2324.0632" x2="2324.0632" y1="1292.6753" y2="1310.1753"/><polygon fill="#181818" points="2320.0632,1300.1753,2324.0632,1310.1753,2328.0632,1300.1753,2324.0632,1304.1753" style="stroke:#181818;stroke-width:1;"/><line style="stroke:#181818;stroke-width:1;" x1="2324.0632" x2="2324.0632" y1="1344.144" y2="1361.644"/><line style="stroke:#181818;stroke-width:1;" x1="2324.0632" x2="1035.3203" y1="1361.644" y2="1361.644"/><line style="stroke:#181818;stroke-width:1;" x1="1035.3203" x2="1035.3203" y1="1361.644" y2="1379.144"/><polygon fill="#181818" points="1031.3203,1369.144,1035.3203,1379.144,1039.3203,1369.144,1035.3203,1373.144" style="stroke:#181818;stroke-width:1;"/><line style="stroke:#181818;stroke-width:1;" x1="1375.4873" x2="1375.4873" y1="1153.269" y2="1169.7378"/><line style="stroke:#181818;stroke-width:1;" x1="1375.4873" x2="2605.9912" y1="1169.7378" y2="1169.7378"/><line style="stroke:#181818;stroke-width:1;" x1="2605.9912" x2="2605.9912" y1="1169.7378" y2="1187.2378"/><polygon fill="#181818" points="2601.9912,1177.2378,2605.9912,1187.2378,2609.9912,1177.2378,2605.9912,1181.2378" style="stroke:#181818;stroke-width:1;"/><text fill="#000000" font-family="sans-serif" font-size="18" lengthAdjust="spacing" textLength="93.9463" x="236.7905" y="66.75">Mutualiste</text><text fill="#000000" font-family="sans-serif" font-size="18" lengthAdjust="spacing" textLength="217.1426" x="604.6729" y="66.75">Interface Utilisateur (UI)</text><text fill="#000000" font-family="sans-serif" font-size="18" lengthAdjust="spacing" textLength="294.5479" x="1061.854" y="66.75">Syst&#232;me de Paiement (Backend)</text><text fill="#000000" font-family="sans-serif" font-size="18" lengthAdjust="spacing" textLength="300.0498" x="1701.3247" y="66.75">Passerelle de Paiement (Externe)</text><text fill="#000000" font-family="sans-serif" font-size="18" lengthAdjust="spacing" textLength="18.4834" x="2443.3296" y="66.75">UI</text><!--SRC=[bLLBRjim4Dth5BEB3JGGYdPb0mKI9oYyK6nOoIuRXXxPJ2bIuSTe05-Wj-YkSQ-XYtL8oxBYEhyLGN7cpPit7pdX9CBD23v_XLEOiaSqOD42rqvOveHMDadMcNUUIM4ThXFhc77984UoKGgv8u_wDrYj06t5E4A5neOd2Rq0t1ycWoks4WjFbYjwem0y84F519QetBDmGuetLeHQ1AmR9sHuGMy8RTnV9uEpeX1yILWT9vXx8eqETDNSiKKV7YGm62sriC90gPLZoWMtijwufIQd0x_yqRhwgOpVfyrtw9qp_WFLF92vL0ONX6k8ZpDCMRPDJOGC548lTynvDu2n4axK6oGr4bj9uHA0D-41Jhz1Bc14aYESCyMPC3YaxuE8Tn1qT1wUrbDcBHgKyW3tycVa577ND-Dm36Ou5qOicigahRQ5DgMN8HhOUiEz4NJi0dJL98oSHJc52avDFNXW78cEj2g4AGbp9-n7U99xMNeb7aBpi1Noe09TRbNlp3jjcWRu15yk84VY6GGcjolgZIBeSrJYkGTJRwoNL9nTFO0jc50VgSg4f5yWP5hXOvhfEo6Roui5ccHfDiacmqu1ncebN6pcA5FC1fIdXZIQEZI07jEyLJLjr3_YydOUrBuh7KRUu8El_rAFYS1wI-8bukygsmvOnJhmBMBl9iylqZpBqwckJdtL1-PVoR79Z8Uvd8wlm7hJMD-gIljMCpJlvtLjM9IxczoUmOVQXaI4xII_Oq_CaEDAYmD1o5eos1EdJRaZI5cqiHgx3cTgMb50RzPQTDxwu9P8OkUUy_h9zaDU6JfQKM5FtmVXR5nApqHepQCE6JDnuhehbjCaXktuI5lCHgkpUsy3rmQkRCi7FIj0bD7MnZoqz0rqTsCkwQGPfb01lPBekgFnlTuewccoemtDTfl9OFt7fzrn-MYpFnkrtcN9X0nD6RjntuB3_zSZ9K_pFjfhabwpEudaHa7lj9a77ygeIb1Q4g7-HOnvEiF2Mz0UpfJoijxqtydtpQBH4ko6g3Tf4m5VbRfRTjhjI-t98sMDQxS2xU-WH6j3xlCJD2RyYocR-KbqQKj0OcsxmPkjKBjzVwjIE2PaY8ryhvcQY-8V]--></g></svg>