<svg xmlns="http://www.w3.org/2000/svg" xmlns:xlink="http://www.w3.org/1999/xlink" contentStyleType="text/css" data-diagram-type="ACTIVITY" height="1033px" preserveAspectRatio="none" style="width:2554px;height:1033px;background:#FFFFFF;" version="1.1" viewBox="0 0 2554 1033" width="2554px" zoomAndPan="magnify"><title>UC 30 - Identifier les prises en charge fr&#233;quentes</title><defs/><g><g class="title" data-source-line="1"><text fill="#000000" font-family="sans-serif" font-size="14" font-weight="bold" lengthAdjust="spacing" textLength="389.9697" x="1081.0087" y="32.9951">UC 30 - Identifier les prises en charge fr&#233;quentes</text></g><rect fill="none" height="20.9531" style="stroke:none;stroke-width:1;" width="2521.9871" x="15" y="50.042"/><rect fill="#F1F1F1" height="33.9688" rx="12.5" ry="12.5" style="stroke:#181818;stroke-width:0.5;" width="248.5801" x="156.3154" y="115.9951"/><text fill="#000000" font-family="sans-serif" font-size="12" lengthAdjust="spacing" textLength="228.5801" x="166.3154" y="137.1338">Acc&#233;der section reporting/statistiques</text><rect fill="#F1F1F1" height="33.9688" rx="12.5" ry="12.5" style="stroke:#181818;stroke-width:0.5;" width="352.6602" x="104.2754" y="223.9326"/><text fill="#000000" font-family="sans-serif" font-size="12" lengthAdjust="spacing" textLength="332.6602" x="114.2754" y="245.0713">Configurer rapport (P&#233;riode, Crit&#232;re, Nb &#233;l&#233;ments, etc.)</text><rect fill="#F1F1F1" height="33.9688" rx="12.5" ry="12.5" style="stroke:#181818;stroke-width:0.5;" width="205.4551" x="177.8779" y="277.9014"/><text fill="#000000" font-family="sans-serif" font-size="12" lengthAdjust="spacing" textLength="185.4551" x="187.8779" y="299.04">D&#233;clencher g&#233;n&#233;ration rapport</text><rect fill="#F1F1F1" height="33.9688" rx="12.5" ry="12.5" style="stroke:#181818;stroke-width:0.5;" width="140.3867" x="21" y="929.5264"/><text fill="#000000" font-family="sans-serif" font-size="12" lengthAdjust="spacing" textLength="120.3867" x="31" y="950.665">Consulter le rapport</text><ellipse cx="91.1934" cy="994.4951" fill="none" rx="11" ry="11" style="stroke:#222222;stroke-width:1;"/><ellipse cx="91.1934" cy="994.4951" fill="#222222" rx="6" ry="6" style="stroke:#222222;stroke-width:1;"/><rect fill="#F1F1F1" height="33.9688" rx="12.5" ry="12.5" style="stroke:#181818;stroke-width:0.5;" width="228.9688" x="355.5332" y="659.6826"/><text fill="#000000" font-family="sans-serif" font-size="12" lengthAdjust="spacing" textLength="208.9688" x="365.5332" y="680.8213">Prendre connaissance du message</text><ellipse cx="470.0176" cy="724.6514" fill="none" rx="11" ry="11" style="stroke:#222222;stroke-width:1;"/><ellipse cx="470.0176" cy="724.6514" fill="#222222" rx="6" ry="6" style="stroke:#222222;stroke-width:1;"/><line style="stroke:#000000;stroke-width:1.5;" x1="15" x2="15" y1="50.042" y2="1021.4951"/><rect fill="#F1F1F1" height="33.9688" rx="12.5" ry="12.5" style="stroke:#181818;stroke-width:0.5;" width="286.748" x="594.502" y="169.9639"/><text fill="#000000" font-family="sans-serif" font-size="12" lengthAdjust="spacing" textLength="266.748" x="604.502" y="191.1025">Afficher options de rapport Prises en Charge</text><line style="stroke:#000000;stroke-width:1.5;" x1="588.502" x2="588.502" y1="50.042" y2="1021.4951"/><rect fill="#F1F1F1" height="33.9688" rx="12.5" ry="12.5" style="stroke:#181818;stroke-width:0.5;" width="194.1465" x="1110.8789" y="385.8389"/><text fill="#000000" font-family="sans-serif" font-size="12" lengthAdjust="spacing" textLength="174.1465" x="1120.8789" y="406.9775">Recevoir param&#232;tres rapport</text><rect fill="#F1F1F1" height="33.9688" rx="12.5" ry="12.5" style="stroke:#181818;stroke-width:0.5;" width="135.582" x="1140.1611" y="439.8076"/><text fill="#000000" font-family="sans-serif" font-size="12" lengthAdjust="spacing" textLength="115.582" x="1150.1611" y="460.9463">Valider param&#232;tres</text><polygon fill="#F1F1F1" points="1155.0549,493.7764,1260.8494,493.7764,1272.8494,505.7764,1260.8494,517.7764,1155.0549,517.7764,1143.0549,505.7764,1155.0549,493.7764" style="stroke:#181818;stroke-width:0.5;"/><text fill="#000000" font-family="sans-serif" font-size="11" lengthAdjust="spacing" textLength="105.7944" x="1155.0549" y="509.5845">Param&#232;tres valides</text><text fill="#000000" font-family="sans-serif" font-size="11" lengthAdjust="spacing" textLength="16.7578" x="1126.2971" y="503.1821">oui</text><text fill="#000000" font-family="sans-serif" font-size="11" lengthAdjust="spacing" textLength="230.7046" x="1272.8494" y="503.1821">non - Alt A1 si pas de donn&#233;es suffisantes</text><rect fill="#F1F1F1" height="47.9375" rx="12.5" ry="12.5" style="stroke:#181818;stroke-width:0.5;" width="236.668" x="900.2061" y="537.7764"/><text fill="#000000" font-family="sans-serif" font-size="12" lengthAdjust="spacing" textLength="216.668" x="910.2061" y="558.915">Interroger DB pour prises en charge</text><text fill="#000000" font-family="sans-serif" font-size="12" lengthAdjust="spacing" textLength="134.9004" x="910.2061" y="572.8838">(sur p&#233;riode sp&#233;cifi&#233;e)</text><rect fill="#F1F1F1" height="33.9688" rx="12.5" ry="12.5" style="stroke:#181818;stroke-width:0.5;" width="207.2598" x="914.9102" y="659.6826"/><text fill="#000000" font-family="sans-serif" font-size="12" lengthAdjust="spacing" textLength="187.2598" x="924.9102" y="680.8213">Agr&#232;ger donn&#233;es par cat&#233;gorie</text><rect fill="#F1F1F1" height="33.9688" rx="12.5" ry="12.5" style="stroke:#181818;stroke-width:0.5;" width="254.5801" x="891.25" y="713.6514"/><text fill="#000000" font-family="sans-serif" font-size="12" lengthAdjust="spacing" textLength="234.5801" x="901.25" y="734.79">Calculer m&#233;trique (Fr&#233;quence ou Co&#251;t)</text><rect fill="#F1F1F1" height="33.9688" rx="12.5" ry="12.5" style="stroke:#181818;stroke-width:0.5;" width="151.3848" x="942.8477" y="767.6201"/><text fill="#000000" font-family="sans-serif" font-size="12" lengthAdjust="spacing" textLength="131.3848" x="952.8477" y="788.7588">Classer les cat&#233;gories</text><rect fill="#F1F1F1" height="47.9375" rx="12.5" ry="12.5" style="stroke:#181818;stroke-width:0.5;" width="200.1816" x="1297.2734" y="537.7764"/><text fill="#000000" font-family="sans-serif" font-size="12" lengthAdjust="spacing" textLength="180.1816" x="1307.2734" y="558.915">Indiquer param&#232;tres invalides</text><text fill="#000000" font-family="sans-serif" font-size="12" lengthAdjust="spacing" textLength="149.8945" x="1307.2734" y="572.8838">ou donn&#233;es insuffisantes</text><line style="stroke:#000000;stroke-width:1.5;" x1="885.25" x2="885.25" y1="50.042" y2="1021.4951"/><ellipse cx="1773.4778" cy="85.9951" fill="#222222" rx="10" ry="10" style="stroke:#222222;stroke-width:1;"/><rect fill="#F1F1F1" height="33.9688" rx="12.5" ry="12.5" style="stroke:#181818;stroke-width:0.5;" width="238.9238" x="1514.554" y="605.7139"/><text fill="#000000" font-family="sans-serif" font-size="12" lengthAdjust="spacing" textLength="218.9238" x="1524.554" y="626.8525">Retourner donn&#233;es prises en charge</text><line style="stroke:#000000;stroke-width:1.5;" x1="1508.554" x2="1508.554" y1="50.042" y2="1021.4951"/><rect fill="#F1F1F1" height="33.9688" rx="12.5" ry="12.5" style="stroke:#181818;stroke-width:0.5;" width="190.7832" x="2032.5276" y="331.8701"/><text fill="#000000" font-family="sans-serif" font-size="12" lengthAdjust="spacing" textLength="170.7832" x="2042.5276" y="353.0088">Envoyer param&#232;tres rapport</text><rect fill="#F1F1F1" height="33.9688" rx="12.5" ry="12.5" style="stroke:#181818;stroke-width:0.5;" width="257.6738" x="1809.6702" y="821.5889"/><text fill="#000000" font-family="sans-serif" font-size="12" lengthAdjust="spacing" textLength="237.6738" x="1819.6702" y="842.7275">Recevoir donn&#233;es agr&#233;g&#233;es et class&#233;es</text><rect fill="#F1F1F1" height="33.9688" rx="12.5" ry="12.5" style="stroke:#181818;stroke-width:0.5;" width="290.0586" x="1793.4778" y="875.5576"/><text fill="#000000" font-family="sans-serif" font-size="12" lengthAdjust="spacing" textLength="270.0586" x="1803.4778" y="896.6963">Afficher rapport (Liste class&#233;e ou Graphique)</text><rect fill="#F1F1F1" height="33.9688" rx="12.5" ry="12.5" style="stroke:#181818;stroke-width:0.5;" width="427.5898" x="2103.5364" y="605.7139"/><text fill="#000000" font-family="sans-serif" font-size="12" lengthAdjust="spacing" textLength="407.5898" x="2113.5364" y="626.8525">Afficher message d'erreur ou d'information (rapport non g&#233;n&#233;rable)</text><line style="stroke:#000000;stroke-width:1.5;" x1="1787.4778" x2="1787.4778" y1="50.042" y2="1021.4951"/><line style="stroke:#000000;stroke-width:1.5;" x1="2535.1262" x2="2535.1262" y1="50.042" y2="1021.4951"/><line style="stroke:#181818;stroke-width:1;" x1="280.6055" x2="280.6055" y1="257.9014" y2="277.9014"/><polygon fill="#181818" points="276.6055,267.9014,280.6055,277.9014,284.6055,267.9014,280.6055,271.9014" style="stroke:#181818;stroke-width:1;"/><line style="stroke:#181818;stroke-width:1;" x1="91.1934" x2="91.1934" y1="963.4951" y2="983.4951"/><polygon fill="#181818" points="87.1934,973.4951,91.1934,983.4951,95.1934,973.4951,91.1934,977.4951" style="stroke:#181818;stroke-width:1;"/><line style="stroke:#181818;stroke-width:1;" x1="470.0176" x2="470.0176" y1="693.6514" y2="713.6514"/><polygon fill="#181818" points="466.0176,703.6514,470.0176,713.6514,474.0176,703.6514,470.0176,707.6514" style="stroke:#181818;stroke-width:1;"/><line style="stroke:#181818;stroke-width:1;" x1="1207.9521" x2="1207.9521" y1="419.8076" y2="439.8076"/><polygon fill="#181818" points="1203.9521,429.8076,1207.9521,439.8076,1211.9521,429.8076,1207.9521,433.8076" style="stroke:#181818;stroke-width:1;"/><line style="stroke:#181818;stroke-width:1;" x1="1018.54" x2="1018.54" y1="693.6514" y2="713.6514"/><polygon fill="#181818" points="1014.54,703.6514,1018.54,713.6514,1022.54,703.6514,1018.54,707.6514" style="stroke:#181818;stroke-width:1;"/><line style="stroke:#181818;stroke-width:1;" x1="1018.54" x2="1018.54" y1="747.6201" y2="767.6201"/><polygon fill="#181818" points="1014.54,757.6201,1018.54,767.6201,1022.54,757.6201,1018.54,761.6201" style="stroke:#181818;stroke-width:1;"/><line style="stroke:#181818;stroke-width:1;" x1="1143.0549" x2="1018.54" y1="505.7764" y2="505.7764"/><line style="stroke:#181818;stroke-width:1;" x1="1018.54" x2="1018.54" y1="505.7764" y2="537.7764"/><polygon fill="#181818" points="1014.54,527.7764,1018.54,537.7764,1022.54,527.7764,1018.54,531.7764" style="stroke:#181818;stroke-width:1;"/><line style="stroke:#181818;stroke-width:1;" x1="1272.8494" x2="1397.3643" y1="505.7764" y2="505.7764"/><line style="stroke:#181818;stroke-width:1;" x1="1397.3643" x2="1397.3643" y1="505.7764" y2="537.7764"/><polygon fill="#181818" points="1393.3643,527.7764,1397.3643,537.7764,1401.3643,527.7764,1397.3643,531.7764" style="stroke:#181818;stroke-width:1;"/><line style="stroke:#181818;stroke-width:1;" x1="1207.9521" x2="1207.9521" y1="473.7764" y2="493.7764"/><polygon fill="#181818" points="1203.9521,483.7764,1207.9521,493.7764,1211.9521,483.7764,1207.9521,487.7764" style="stroke:#181818;stroke-width:1;"/><line style="stroke:#181818;stroke-width:1;" x1="1938.5071" x2="1938.5071" y1="855.5576" y2="875.5576"/><polygon fill="#181818" points="1934.5071,865.5576,1938.5071,875.5576,1942.5071,865.5576,1938.5071,869.5576" style="stroke:#181818;stroke-width:1;"/><line style="stroke:#181818;stroke-width:1;" x1="1773.4778" x2="1773.4778" y1="95.9951" y2="100.9951"/><line style="stroke:#181818;stroke-width:1;" x1="1773.4778" x2="280.6055" y1="100.9951" y2="100.9951"/><line style="stroke:#181818;stroke-width:1;" x1="280.6055" x2="280.6055" y1="100.9951" y2="115.9951"/><polygon fill="#181818" points="276.6055,105.9951,280.6055,115.9951,284.6055,105.9951,280.6055,109.9951" style="stroke:#181818;stroke-width:1;"/><line style="stroke:#181818;stroke-width:1;" x1="280.6055" x2="280.6055" y1="149.9639" y2="154.9639"/><line style="stroke:#181818;stroke-width:1;" x1="280.6055" x2="737.876" y1="154.9639" y2="154.9639"/><line style="stroke:#181818;stroke-width:1;" x1="737.876" x2="737.876" y1="154.9639" y2="169.9639"/><polygon fill="#181818" points="733.876,159.9639,737.876,169.9639,741.876,159.9639,737.876,163.9639" style="stroke:#181818;stroke-width:1;"/><line style="stroke:#181818;stroke-width:1;" x1="737.876" x2="737.876" y1="203.9326" y2="208.9326"/><line style="stroke:#181818;stroke-width:1;" x1="737.876" x2="280.6055" y1="208.9326" y2="208.9326"/><line style="stroke:#181818;stroke-width:1;" x1="280.6055" x2="280.6055" y1="208.9326" y2="223.9326"/><polygon fill="#181818" points="276.6055,213.9326,280.6055,223.9326,284.6055,213.9326,280.6055,217.9326" style="stroke:#181818;stroke-width:1;"/><line style="stroke:#181818;stroke-width:1;" x1="280.6055" x2="280.6055" y1="311.8701" y2="316.8701"/><line style="stroke:#181818;stroke-width:1;" x1="280.6055" x2="2127.9192" y1="316.8701" y2="316.8701"/><line style="stroke:#181818;stroke-width:1;" x1="2127.9192" x2="2127.9192" y1="316.8701" y2="331.8701"/><polygon fill="#181818" points="2123.9192,321.8701,2127.9192,331.8701,2131.9192,321.8701,2127.9192,325.8701" style="stroke:#181818;stroke-width:1;"/><line style="stroke:#181818;stroke-width:1;" x1="2127.9192" x2="2127.9192" y1="365.8389" y2="370.8389"/><line style="stroke:#181818;stroke-width:1;" x1="2127.9192" x2="1207.9521" y1="370.8389" y2="370.8389"/><line style="stroke:#181818;stroke-width:1;" x1="1207.9521" x2="1207.9521" y1="370.8389" y2="385.8389"/><polygon fill="#181818" points="1203.9521,375.8389,1207.9521,385.8389,1211.9521,375.8389,1207.9521,379.8389" style="stroke:#181818;stroke-width:1;"/><line style="stroke:#181818;stroke-width:1;" x1="1018.54" x2="1018.54" y1="585.7139" y2="590.7139"/><line style="stroke:#181818;stroke-width:1;" x1="1018.54" x2="1634.0159" y1="590.7139" y2="590.7139"/><line style="stroke:#181818;stroke-width:1;" x1="1634.0159" x2="1634.0159" y1="590.7139" y2="605.7139"/><polygon fill="#181818" points="1630.0159,595.7139,1634.0159,605.7139,1638.0159,595.7139,1634.0159,599.7139" style="stroke:#181818;stroke-width:1;"/><line style="stroke:#181818;stroke-width:1;" x1="1634.0159" x2="1634.0159" y1="639.6826" y2="644.6826"/><line style="stroke:#181818;stroke-width:1;" x1="1634.0159" x2="1018.54" y1="644.6826" y2="644.6826"/><line style="stroke:#181818;stroke-width:1;" x1="1018.54" x2="1018.54" y1="644.6826" y2="659.6826"/><polygon fill="#181818" points="1014.54,649.6826,1018.54,659.6826,1022.54,649.6826,1018.54,653.6826" style="stroke:#181818;stroke-width:1;"/><line style="stroke:#181818;stroke-width:1;" x1="1018.54" x2="1018.54" y1="801.5889" y2="806.5889"/><line style="stroke:#181818;stroke-width:1;" x1="1018.54" x2="1938.5071" y1="806.5889" y2="806.5889"/><line style="stroke:#181818;stroke-width:1;" x1="1938.5071" x2="1938.5071" y1="806.5889" y2="821.5889"/><polygon fill="#181818" points="1934.5071,811.5889,1938.5071,821.5889,1942.5071,811.5889,1938.5071,815.5889" style="stroke:#181818;stroke-width:1;"/><line style="stroke:#181818;stroke-width:1;" x1="1938.5071" x2="1938.5071" y1="909.5264" y2="914.5264"/><line style="stroke:#181818;stroke-width:1;" x1="1938.5071" x2="91.1934" y1="914.5264" y2="914.5264"/><line style="stroke:#181818;stroke-width:1;" x1="91.1934" x2="91.1934" y1="914.5264" y2="929.5264"/><polygon fill="#181818" points="87.1934,919.5264,91.1934,929.5264,95.1934,919.5264,91.1934,923.5264" style="stroke:#181818;stroke-width:1;"/><line style="stroke:#181818;stroke-width:1;" x1="1397.3643" x2="1397.3643" y1="585.7139" y2="590.7139"/><line style="stroke:#181818;stroke-width:1;" x1="1397.3643" x2="2317.3313" y1="590.7139" y2="590.7139"/><line style="stroke:#181818;stroke-width:1;" x1="2317.3313" x2="2317.3313" y1="590.7139" y2="605.7139"/><polygon fill="#181818" points="2313.3313,595.7139,2317.3313,605.7139,2321.3313,595.7139,2317.3313,599.7139" style="stroke:#181818;stroke-width:1;"/><line style="stroke:#181818;stroke-width:1;" x1="2317.3313" x2="2317.3313" y1="639.6826" y2="644.6826"/><line style="stroke:#181818;stroke-width:1;" x1="2317.3313" x2="470.0176" y1="644.6826" y2="644.6826"/><line style="stroke:#181818;stroke-width:1;" x1="470.0176" x2="470.0176" y1="644.6826" y2="659.6826"/><polygon fill="#181818" points="466.0176,649.6826,470.0176,659.6826,474.0176,649.6826,470.0176,653.6826" style="stroke:#181818;stroke-width:1;"/><text fill="#000000" font-family="sans-serif" font-size="18" lengthAdjust="spacing" textLength="134.4902" x="234.5059" y="66.75">Administrateur</text><text fill="#000000" font-family="sans-serif" font-size="18" lengthAdjust="spacing" textLength="217.1426" x="628.3047" y="66.75">Interface Utilisateur (UI)</text><text fill="#000000" font-family="sans-serif" font-size="18" lengthAdjust="spacing" textLength="297.8262" x="1047.9889" y="66.75">Syst&#232;me de Reporting (Backend)</text><text fill="#000000" font-family="sans-serif" font-size="18" lengthAdjust="spacing" textLength="202.9658" x="1546.533" y="66.75">Base de Donn&#233;es (DB)</text><text fill="#000000" font-family="sans-serif" font-size="18" lengthAdjust="spacing" textLength="18.4834" x="2152.0603" y="66.75">UI</text><!--SRC=[ZLJBRjim4BphA_OM2KZwG6_soO-sC50KGOhqb0j3KVAY5AcILDe0-Q3e6thaZtL8swgJDabFfidTsTdPMGKEMj7bYjwzeJFQrCe4RbWvqifJxzZZHncIM-5QHOsBu_S1CSeNnGcjuoYrS2AmDQH-zfeb1qKrSlmFxhGmE8c1wZXU3w6uMzGT6_O16MfmTyNT1aYk4H8C0cls-PxAoqs5no-tFiJxBk7HXUgj2snQAfT2VbEcJX5BuVFhsXeJHzGgrqlS5pu85ug_wyqMKiQnHdTUoKpQ7N1V8oSWbD6UdnVFKvijceRb5ZYsJp0-aN2YJrXqFecsogBD_qLaPKt3xU00SSWhp-FesDRgb5QEqRd3wVCrnL77iOFc_fHKaA-gUJ7BmYkJARHnHFFx8Up1KitB3UgyDpVs5a4zfjJ5- -30x2ZcHObd5qgg6yjF8Co-2itrGtpWSeDkZk9lSfIlA6mXIsa7hWgYMPROsHRvwoNr5le-TjoLANswtaj37YS9WsBQq87eAGi0_K8581g0ruUtn-WPuKKDWBLeNRnl7q09HrA4EBRMSGQQhOIMWqPG5yVWaf6e_B1V6DZ83hIoyLUeTi5QUBzVipyuIJnGIgFB7UordweAy1ZRV5I1PC98VpBYvCd9K9_WE3L59G8VyRPDpAfTeSU-JCHWvq67JEt8AaG-sBueb8RUfO7LpcYX0otUacUeaLTWuka7aF4YVIUg_zLuO-h4xA7JsEozSsL0Vy9dSrHXVYJP94Adl1VuOjKdi5ZQt9H-mgQnhjkjIddGAJLpMA9h_Omqvmva7HG53S70JsEjXqEjOvNGI_CR]--></g></svg>