<svg xmlns="http://www.w3.org/2000/svg" xmlns:xlink="http://www.w3.org/1999/xlink" contentStyleType="text/css" data-diagram-type="CLASS" height="824px" preserveAspectRatio="none" style="width:2578px;height:824px;background:#FFFFFF;" version="1.1" viewBox="0 0 2578 824" width="2578px" zoomAndPan="magnify"><title>Diagramme de Classes Conceptuel</title><defs/><g><g class="title" data-source-line="1"><text fill="#000000" font-family="sans-serif" font-size="14" font-weight="bold" lengthAdjust="spacing" textLength="272.6924" x="1145.6538" y="22.9951">Diagramme de Classes Conceptuel</text></g><!--cluster Gestion Utilisateurs & Acc?s--><g class="cluster" data-entity="Gestion Utilisateurs &amp; Acc&#232;s" data-source-line="17" data-uid="ent0002" id="cluster_Gestion Utilisateurs &amp; Acc&#232;s"><path d="M494.5,337.2969 L719.6162,337.2969 A3.75,3.75 0 0 1 722.1162,339.7969 L729.1162,359.5938 L800.5,359.5938 A2.5,2.5 0 0 1 803,362.0938 L803,814.7969 A2.5,2.5 0 0 1 800.5,817.2969 L494.5,817.2969 A2.5,2.5 0 0 1 492,814.7969 L492,339.7969 A2.5,2.5 0 0 1 494.5,337.2969" fill="none" style="stroke:#000000;stroke-width:1.5;"/><line style="stroke:#000000;stroke-width:1.5;" x1="492" x2="729.1162" y1="359.5938" y2="359.5938"/><text fill="#000000" font-family="sans-serif" font-size="14" font-weight="bold" lengthAdjust="spacing" textLength="224.1162" x="496" y="352.292">Gestion Utilisateurs &amp; Acc&#232;s</text></g><!--cluster Gestion Adh?rents & Contrats--><g class="cluster" data-entity="Gestion Adh&#233;rents &amp; Contrats" data-source-line="32" data-uid="ent0014" id="cluster_Gestion Adh&#233;rents &amp; Contrats"><path d="M1272.5,43.2969 L1510.3652,43.2969 A3.75,3.75 0 0 1 1512.8652,45.7969 L1519.8652,65.5938 L1562.5,65.5938 A2.5,2.5 0 0 1 1565,68.0938 L1565,433.7969 A2.5,2.5 0 0 1 1562.5,436.2969 L1272.5,436.2969 A2.5,2.5 0 0 1 1270,433.7969 L1270,45.7969 A2.5,2.5 0 0 1 1272.5,43.2969" fill="none" style="stroke:#000000;stroke-width:1.5;"/><line style="stroke:#000000;stroke-width:1.5;" x1="1270" x2="1519.8652" y1="65.5938" y2="65.5938"/><text fill="#000000" font-family="sans-serif" font-size="14" font-weight="bold" lengthAdjust="spacing" textLength="236.8652" x="1274" y="58.292">Gestion Adh&#233;rents &amp; Contrats</text></g><!--cluster Gestion Financi?re & Tr?sorerie--><g class="cluster" data-entity="Gestion Financi&#232;re &amp; Tr&#233;sorerie" data-source-line="44" data-uid="ent0023" id="cluster_Gestion Financi&#232;re &amp; Tr&#233;sorerie"><path d="M1608.5,43.2969 L1860.96,43.2969 A3.75,3.75 0 0 1 1863.46,45.7969 L1870.46,65.5938 L2257.5,65.5938 A2.5,2.5 0 0 1 2260,68.0938 L2260,687.7969 A2.5,2.5 0 0 1 2257.5,690.2969 L1608.5,690.2969 A2.5,2.5 0 0 1 1606,687.7969 L1606,45.7969 A2.5,2.5 0 0 1 1608.5,43.2969" fill="none" style="stroke:#000000;stroke-width:1.5;"/><line style="stroke:#000000;stroke-width:1.5;" x1="1606" x2="1870.46" y1="65.5938" y2="65.5938"/><text fill="#000000" font-family="sans-serif" font-size="14" font-weight="bold" lengthAdjust="spacing" textLength="251.46" x="1610" y="58.292">Gestion Financi&#232;re &amp; Tr&#233;sorerie</text></g><!--cluster Gestion Services & Prestations--><g class="cluster" data-entity="Gestion Services &amp; Prestations" data-source-line="69" data-uid="ent0043" id="cluster_Gestion Services &amp; Prestations"><path d="M829.5,337.2969 L1074.8027,337.2969 A3.75,3.75 0 0 1 1077.3027,339.7969 L1084.3027,359.5938 L1243.5,359.5938 A2.5,2.5 0 0 1 1246,362.0938 L1246,560.7969 A2.5,2.5 0 0 1 1243.5,563.2969 L829.5,563.2969 A2.5,2.5 0 0 1 827,560.7969 L827,339.7969 A2.5,2.5 0 0 1 829.5,337.2969" fill="none" style="stroke:#000000;stroke-width:1.5;"/><line style="stroke:#000000;stroke-width:1.5;" x1="827" x2="1084.3027" y1="359.5938" y2="359.5938"/><text fill="#000000" font-family="sans-serif" font-size="14" font-weight="bold" lengthAdjust="spacing" textLength="244.3027" x="831" y="352.292">Gestion Services &amp; Prestations</text></g><!--cluster Gestion Mat?riels--><g class="cluster" data-entity="Gestion Mat&#233;riels" data-source-line="84" data-uid="ent0054" id="cluster_Gestion Mat&#233;riels"><path d="M2286.5,43.2969 L2426.666,43.2969 A3.75,3.75 0 0 1 2429.166,45.7969 L2436.166,65.5938 L2568.5,65.5938 A2.5,2.5 0 0 1 2571,68.0938 L2571,285.7969 A2.5,2.5 0 0 1 2568.5,288.2969 L2286.5,288.2969 A2.5,2.5 0 0 1 2284,285.7969 L2284,45.7969 A2.5,2.5 0 0 1 2286.5,43.2969" fill="none" style="stroke:#000000;stroke-width:1.5;"/><line style="stroke:#000000;stroke-width:1.5;" x1="2284" x2="2436.166" y1="65.5938" y2="65.5938"/><text fill="#000000" font-family="sans-serif" font-size="14" font-weight="bold" lengthAdjust="spacing" textLength="139.166" x="2288" y="58.292">Gestion Mat&#233;riels</text></g><!--cluster Gestion Communication & Suivi--><g class="cluster" data-entity="Gestion Communication &amp; Suivi" data-source-line="92" data-uid="ent0060" id="cluster_Gestion Communication &amp; Suivi"><path d="M468.5,43.2969 L718.123,43.2969 A3.75,3.75 0 0 1 720.623,45.7969 L727.623,65.5938 L907.5,65.5938 A2.5,2.5 0 0 1 910,68.0938 L910,285.7969 A2.5,2.5 0 0 1 907.5,288.2969 L468.5,288.2969 A2.5,2.5 0 0 1 466,285.7969 L466,45.7969 A2.5,2.5 0 0 1 468.5,43.2969" fill="none" style="stroke:#000000;stroke-width:1.5;"/><line style="stroke:#000000;stroke-width:1.5;" x1="466" x2="727.623" y1="65.5938" y2="65.5938"/><text fill="#000000" font-family="sans-serif" font-size="14" font-weight="bold" lengthAdjust="spacing" textLength="248.623" x="470" y="58.292">Gestion Communication &amp; Suivi</text></g><!--cluster Syst?me & Maintenance--><g class="cluster" data-entity="Syst&#232;me &amp; Maintenance" data-source-line="107" data-uid="ent0072" id="cluster_Syst&#232;me &amp; Maintenance"><path d="M8.5,189.2969 L200.7764,189.2969 A3.75,3.75 0 0 1 203.2764,191.7969 L210.2764,211.5938 L439.5,211.5938 A2.5,2.5 0 0 1 442,214.0938 L442,433.7969 A2.5,2.5 0 0 1 439.5,436.2969 L8.5,436.2969 A2.5,2.5 0 0 1 6,433.7969 L6,191.7969 A2.5,2.5 0 0 1 8.5,189.2969" fill="none" style="stroke:#000000;stroke-width:1.5;"/><line style="stroke:#000000;stroke-width:1.5;" x1="6" x2="210.2764" y1="211.5938" y2="211.5938"/><text fill="#000000" font-family="sans-serif" font-size="14" font-weight="bold" lengthAdjust="spacing" textLength="191.2764" x="10" y="204.292">Syst&#232;me &amp; Maintenance</text></g><!--class Utilisateur--><g class="entity" data-entity="Utilisateur" data-source-line="18" data-uid="ent0003" id="entity_Utilisateur"><rect fill="#FFFFFF" height="48" rx="2.5" ry="2.5" style="stroke:#000000;stroke-width:0.5;" width="104.0098" x="620" y="372.2969"/><ellipse cx="635" cy="388.2969" fill="#ADD1B2" rx="11" ry="11" style="stroke:#181818;stroke-width:1;"/><path d="M637.9688,393.9375 Q637.3906,394.2344 636.75,394.375 Q636.1094,394.5313 635.4063,394.5313 Q632.9063,394.5313 631.5781,392.8906 Q630.2656,391.2344 630.2656,388.1094 Q630.2656,384.9844 631.5781,383.3281 Q632.9063,381.6719 635.4063,381.6719 Q636.1094,381.6719 636.75,381.8281 Q637.4063,381.9844 637.9688,382.2813 L637.9688,385 Q637.3438,384.4219 636.75,384.1563 Q636.1563,383.875 635.5313,383.875 Q634.1875,383.875 633.5,384.9531 Q632.8125,386.0156 632.8125,388.1094 Q632.8125,390.2031 633.5,391.2813 Q634.1875,392.3438 635.5313,392.3438 Q636.1563,392.3438 636.75,392.0781 Q637.3438,391.7969 637.9688,391.2188 L637.9688,393.9375 Z " fill="#000000"/><text fill="#000000" font-family="sans-serif" font-size="14" lengthAdjust="spacing" textLength="72.0098" x="649" y="393.1436">Utilisateur</text><line style="stroke:#000000;stroke-width:0.5;" x1="621" x2="723.0098" y1="404.2969" y2="404.2969"/><line style="stroke:#000000;stroke-width:0.5;" x1="621" x2="723.0098" y1="412.2969" y2="412.2969"/></g><!--class Administrateur--><g class="entity" data-entity="Administrateur" data-source-line="19" data-uid="ent0004" id="entity_Administrateur"><rect fill="#FFFFFF" height="48" rx="2.5" ry="2.5" style="stroke:#000000;stroke-width:0.5;" width="136.6035" x="509.7" y="499.2969"/><ellipse cx="524.7" cy="515.2969" fill="#ADD1B2" rx="11" ry="11" style="stroke:#181818;stroke-width:1;"/><path d="M527.6688,520.9375 Q527.0906,521.2344 526.45,521.375 Q525.8094,521.5313 525.1063,521.5313 Q522.6063,521.5313 521.2781,519.8906 Q519.9656,518.2344 519.9656,515.1094 Q519.9656,511.9844 521.2781,510.3281 Q522.6063,508.6719 525.1063,508.6719 Q525.8094,508.6719 526.45,508.8281 Q527.1063,508.9844 527.6688,509.2813 L527.6688,512 Q527.0438,511.4219 526.45,511.1563 Q525.8563,510.875 525.2313,510.875 Q523.8875,510.875 523.2,511.9531 Q522.5125,513.0156 522.5125,515.1094 Q522.5125,517.2031 523.2,518.2813 Q523.8875,519.3438 525.2313,519.3438 Q525.8563,519.3438 526.45,519.0781 Q527.0438,518.7969 527.6688,518.2188 L527.6688,520.9375 Z " fill="#000000"/><text fill="#000000" font-family="sans-serif" font-size="14" lengthAdjust="spacing" textLength="104.6035" x="538.7" y="520.1436">Administrateur</text><line style="stroke:#000000;stroke-width:0.5;" x1="510.7" x2="645.3035" y1="531.2969" y2="531.2969"/><line style="stroke:#000000;stroke-width:0.5;" x1="510.7" x2="645.3035" y1="539.2969" y2="539.2969"/></g><!--class SuperAdministrateur--><g class="entity" data-entity="SuperAdministrateur" data-source-line="20" data-uid="ent0005" id="entity_SuperAdministrateur"><rect fill="#FFFFFF" height="48" rx="2.5" ry="2.5" style="stroke:#000000;stroke-width:0.5;" width="182.0693" x="507.97" y="626.2969"/><ellipse cx="522.97" cy="642.2969" fill="#ADD1B2" rx="11" ry="11" style="stroke:#181818;stroke-width:1;"/><path d="M525.9388,647.9375 Q525.3606,648.2344 524.72,648.375 Q524.0794,648.5313 523.3763,648.5313 Q520.8763,648.5313 519.5481,646.8906 Q518.2356,645.2344 518.2356,642.1094 Q518.2356,638.9844 519.5481,637.3281 Q520.8763,635.6719 523.3763,635.6719 Q524.0794,635.6719 524.72,635.8281 Q525.3763,635.9844 525.9388,636.2813 L525.9388,639 Q525.3138,638.4219 524.72,638.1563 Q524.1263,637.875 523.5013,637.875 Q522.1575,637.875 521.47,638.9531 Q520.7825,640.0156 520.7825,642.1094 Q520.7825,644.2031 521.47,645.2813 Q522.1575,646.3438 523.5013,646.3438 Q524.1263,646.3438 524.72,646.0781 Q525.3138,645.7969 525.9388,645.2188 L525.9388,647.9375 Z " fill="#000000"/><text fill="#000000" font-family="sans-serif" font-size="14" lengthAdjust="spacing" textLength="150.0693" x="536.97" y="647.1436">Super Administrateur</text><line style="stroke:#000000;stroke-width:0.5;" x1="508.97" x2="689.0393" y1="658.2969" y2="658.2969"/><line style="stroke:#000000;stroke-width:0.5;" x1="508.97" x2="689.0393" y1="666.2969" y2="666.2969"/></g><!--class Role--><g class="entity" data-entity="Role" data-source-line="21" data-uid="ent0006" id="entity_Role"><rect fill="#FFFFFF" height="48" rx="2.5" ry="2.5" style="stroke:#000000;stroke-width:0.5;" width="62.7959" x="724.6" y="626.2969"/><ellipse cx="739.6" cy="642.2969" fill="#ADD1B2" rx="11" ry="11" style="stroke:#181818;stroke-width:1;"/><path d="M742.5688,647.9375 Q741.9906,648.2344 741.35,648.375 Q740.7094,648.5313 740.0063,648.5313 Q737.5063,648.5313 736.1781,646.8906 Q734.8656,645.2344 734.8656,642.1094 Q734.8656,638.9844 736.1781,637.3281 Q737.5063,635.6719 740.0063,635.6719 Q740.7094,635.6719 741.35,635.8281 Q742.0063,635.9844 742.5688,636.2813 L742.5688,639 Q741.9438,638.4219 741.35,638.1563 Q740.7563,637.875 740.1313,637.875 Q738.7875,637.875 738.1,638.9531 Q737.4125,640.0156 737.4125,642.1094 Q737.4125,644.2031 738.1,645.2813 Q738.7875,646.3438 740.1313,646.3438 Q740.7563,646.3438 741.35,646.0781 Q741.9438,645.7969 742.5688,645.2188 L742.5688,647.9375 Z " fill="#000000"/><text fill="#000000" font-family="sans-serif" font-size="14" lengthAdjust="spacing" textLength="30.7959" x="753.6" y="647.1436">Role</text><line style="stroke:#000000;stroke-width:0.5;" x1="725.6" x2="786.3959" y1="658.2969" y2="658.2969"/><line style="stroke:#000000;stroke-width:0.5;" x1="725.6" x2="786.3959" y1="666.2969" y2="666.2969"/></g><!--class Permission--><g class="entity" data-entity="Permission" data-source-line="22" data-uid="ent0007" id="entity_Permission"><rect fill="#FFFFFF" height="48" rx="2.5" ry="2.5" style="stroke:#000000;stroke-width:0.5;" width="108.2549" x="676.87" y="753.2969"/><ellipse cx="691.87" cy="769.2969" fill="#ADD1B2" rx="11" ry="11" style="stroke:#181818;stroke-width:1;"/><path d="M694.8388,774.9375 Q694.2606,775.2344 693.62,775.375 Q692.9794,775.5313 692.2763,775.5313 Q689.7763,775.5313 688.4481,773.8906 Q687.1356,772.2344 687.1356,769.1094 Q687.1356,765.9844 688.4481,764.3281 Q689.7763,762.6719 692.2763,762.6719 Q692.9794,762.6719 693.62,762.8281 Q694.2763,762.9844 694.8388,763.2813 L694.8388,766 Q694.2138,765.4219 693.62,765.1563 Q693.0263,764.875 692.4013,764.875 Q691.0575,764.875 690.37,765.9531 Q689.6825,767.0156 689.6825,769.1094 Q689.6825,771.2031 690.37,772.2813 Q691.0575,773.3438 692.4013,773.3438 Q693.0263,773.3438 693.62,773.0781 Q694.2138,772.7969 694.8388,772.2188 L694.8388,774.9375 Z " fill="#000000"/><text fill="#000000" font-family="sans-serif" font-size="14" lengthAdjust="spacing" textLength="76.2549" x="705.87" y="774.1436">Permission</text><line style="stroke:#000000;stroke-width:0.5;" x1="677.87" x2="784.1249" y1="785.2969" y2="785.2969"/><line style="stroke:#000000;stroke-width:0.5;" x1="677.87" x2="784.1249" y1="793.2969" y2="793.2969"/></g><!--class Mutualiste--><g class="entity" data-entity="Mutualiste" data-source-line="25" data-uid="ent0009" id="entity_Mutualiste"><rect fill="#FFFFFF" height="48" rx="2.5" ry="2.5" style="stroke:#000000;stroke-width:0.5;" width="105.0693" x="681.47" y="499.2969"/><ellipse cx="696.47" cy="515.2969" fill="#ADD1B2" rx="11" ry="11" style="stroke:#181818;stroke-width:1;"/><path d="M699.4388,520.9375 Q698.8606,521.2344 698.22,521.375 Q697.5794,521.5313 696.8763,521.5313 Q694.3763,521.5313 693.0481,519.8906 Q691.7356,518.2344 691.7356,515.1094 Q691.7356,511.9844 693.0481,510.3281 Q694.3763,508.6719 696.8763,508.6719 Q697.5794,508.6719 698.22,508.8281 Q698.8763,508.9844 699.4388,509.2813 L699.4388,512 Q698.8138,511.4219 698.22,511.1563 Q697.6263,510.875 697.0013,510.875 Q695.6575,510.875 694.97,511.9531 Q694.2825,513.0156 694.2825,515.1094 Q694.2825,517.2031 694.97,518.2813 Q695.6575,519.3438 697.0013,519.3438 Q697.6263,519.3438 698.22,519.0781 Q698.8138,518.7969 699.4388,518.2188 L699.4388,520.9375 Z " fill="#000000"/><text fill="#000000" font-family="sans-serif" font-size="14" lengthAdjust="spacing" textLength="73.0693" x="710.47" y="520.1436">Mutualiste</text><line style="stroke:#000000;stroke-width:0.5;" x1="682.47" x2="785.5393" y1="531.2969" y2="531.2969"/><line style="stroke:#000000;stroke-width:0.5;" x1="682.47" x2="785.5393" y1="539.2969" y2="539.2969"/></g><!--class Mutualiste--><g class="entity" data-entity="Mutualiste" data-source-line="33" data-uid="ent0015" id="entity_Mutualiste"><rect fill="#FFFFFF" height="48" rx="2.5" ry="2.5" style="stroke:#000000;stroke-width:0.5;" width="105.0693" x="1330.47" y="78.2969"/><ellipse cx="1345.47" cy="94.2969" fill="#ADD1B2" rx="11" ry="11" style="stroke:#181818;stroke-width:1;"/><path d="M1348.4388,99.9375 Q1347.8606,100.2344 1347.22,100.375 Q1346.5794,100.5313 1345.8763,100.5313 Q1343.3763,100.5313 1342.0481,98.8906 Q1340.7356,97.2344 1340.7356,94.1094 Q1340.7356,90.9844 1342.0481,89.3281 Q1343.3763,87.6719 1345.8763,87.6719 Q1346.5794,87.6719 1347.22,87.8281 Q1347.8763,87.9844 1348.4388,88.2813 L1348.4388,91 Q1347.8138,90.4219 1347.22,90.1563 Q1346.6263,89.875 1346.0013,89.875 Q1344.6575,89.875 1343.97,90.9531 Q1343.2825,92.0156 1343.2825,94.1094 Q1343.2825,96.2031 1343.97,97.2813 Q1344.6575,98.3438 1346.0013,98.3438 Q1346.6263,98.3438 1347.22,98.0781 Q1347.8138,97.7969 1348.4388,97.2188 L1348.4388,99.9375 Z " fill="#000000"/><text fill="#000000" font-family="sans-serif" font-size="14" lengthAdjust="spacing" textLength="73.0693" x="1359.47" y="99.1436">Mutualiste</text><line style="stroke:#000000;stroke-width:0.5;" x1="1331.47" x2="1434.5393" y1="110.2969" y2="110.2969"/><line style="stroke:#000000;stroke-width:0.5;" x1="1331.47" x2="1434.5393" y1="118.2969" y2="118.2969"/></g><!--class AyantDroit--><g class="entity" data-entity="AyantDroit" data-source-line="34" data-uid="ent0016" id="entity_AyantDroit"><rect fill="#FFFFFF" height="48" rx="2.5" ry="2.5" style="stroke:#000000;stroke-width:0.5;" width="107.2842" x="1286.36" y="224.2969"/><ellipse cx="1301.36" cy="240.2969" fill="#ADD1B2" rx="11" ry="11" style="stroke:#181818;stroke-width:1;"/><path d="M1304.3288,245.9375 Q1303.7506,246.2344 1303.11,246.375 Q1302.4694,246.5313 1301.7663,246.5313 Q1299.2663,246.5313 1297.9381,244.8906 Q1296.6256,243.2344 1296.6256,240.1094 Q1296.6256,236.9844 1297.9381,235.3281 Q1299.2663,233.6719 1301.7663,233.6719 Q1302.4694,233.6719 1303.11,233.8281 Q1303.7663,233.9844 1304.3288,234.2813 L1304.3288,237 Q1303.7038,236.4219 1303.11,236.1563 Q1302.5163,235.875 1301.8913,235.875 Q1300.5475,235.875 1299.86,236.9531 Q1299.1725,238.0156 1299.1725,240.1094 Q1299.1725,242.2031 1299.86,243.2813 Q1300.5475,244.3438 1301.8913,244.3438 Q1302.5163,244.3438 1303.11,244.0781 Q1303.7038,243.7969 1304.3288,243.2188 L1304.3288,245.9375 Z " fill="#000000"/><text fill="#000000" font-family="sans-serif" font-size="14" lengthAdjust="spacing" textLength="75.2842" x="1315.36" y="245.1436">AyantDroit</text><line style="stroke:#000000;stroke-width:0.5;" x1="1287.36" x2="1392.6442" y1="256.2969" y2="256.2969"/><line style="stroke:#000000;stroke-width:0.5;" x1="1287.36" x2="1392.6442" y1="264.2969" y2="264.2969"/></g><!--class Contrat--><g class="entity" data-entity="Contrat" data-source-line="35" data-uid="ent0017" id="entity_Contrat"><rect fill="#FFFFFF" height="48" rx="2.5" ry="2.5" style="stroke:#000000;stroke-width:0.5;" width="84.5273" x="1367.74" y="372.2969"/><ellipse cx="1382.74" cy="388.2969" fill="#ADD1B2" rx="11" ry="11" style="stroke:#181818;stroke-width:1;"/><path d="M1385.7088,393.9375 Q1385.1306,394.2344 1384.49,394.375 Q1383.8494,394.5313 1383.1463,394.5313 Q1380.6463,394.5313 1379.3181,392.8906 Q1378.0056,391.2344 1378.0056,388.1094 Q1378.0056,384.9844 1379.3181,383.3281 Q1380.6463,381.6719 1383.1463,381.6719 Q1383.8494,381.6719 1384.49,381.8281 Q1385.1463,381.9844 1385.7088,382.2813 L1385.7088,385 Q1385.0838,384.4219 1384.49,384.1563 Q1383.8963,383.875 1383.2713,383.875 Q1381.9275,383.875 1381.24,384.9531 Q1380.5525,386.0156 1380.5525,388.1094 Q1380.5525,390.2031 1381.24,391.2813 Q1381.9275,392.3438 1383.2713,392.3438 Q1383.8963,392.3438 1384.49,392.0781 Q1385.0838,391.7969 1385.7088,391.2188 L1385.7088,393.9375 Z " fill="#000000"/><text fill="#000000" font-family="sans-serif" font-size="14" lengthAdjust="spacing" textLength="52.5273" x="1396.74" y="393.1436">Contrat</text><line style="stroke:#000000;stroke-width:0.5;" x1="1368.74" x2="1451.2673" y1="404.2969" y2="404.2969"/><line style="stroke:#000000;stroke-width:0.5;" x1="1368.74" x2="1451.2673" y1="412.2969" y2="412.2969"/></g><!--class Adhesion--><g class="entity" data-entity="Adhesion" data-source-line="36" data-uid="ent0018" id="entity_Adhesion"><rect fill="#FFFFFF" height="48" rx="2.5" ry="2.5" style="stroke:#000000;stroke-width:0.5;" width="96.5723" x="1428.71" y="224.2969"/><ellipse cx="1443.71" cy="240.2969" fill="#ADD1B2" rx="11" ry="11" style="stroke:#181818;stroke-width:1;"/><path d="M1446.6788,245.9375 Q1446.1006,246.2344 1445.46,246.375 Q1444.8194,246.5313 1444.1163,246.5313 Q1441.6163,246.5313 1440.2881,244.8906 Q1438.9756,243.2344 1438.9756,240.1094 Q1438.9756,236.9844 1440.2881,235.3281 Q1441.6163,233.6719 1444.1163,233.6719 Q1444.8194,233.6719 1445.46,233.8281 Q1446.1163,233.9844 1446.6788,234.2813 L1446.6788,237 Q1446.0538,236.4219 1445.46,236.1563 Q1444.8663,235.875 1444.2413,235.875 Q1442.8975,235.875 1442.21,236.9531 Q1441.5225,238.0156 1441.5225,240.1094 Q1441.5225,242.2031 1442.21,243.2813 Q1442.8975,244.3438 1444.2413,244.3438 Q1444.8663,244.3438 1445.46,244.0781 Q1446.0538,243.7969 1446.6788,243.2188 L1446.6788,245.9375 Z " fill="#000000"/><text fill="#000000" font-family="sans-serif" font-size="14" lengthAdjust="spacing" textLength="64.5723" x="1457.71" y="245.1436">Adhesion</text><line style="stroke:#000000;stroke-width:0.5;" x1="1429.71" x2="1524.2823" y1="256.2969" y2="256.2969"/><line style="stroke:#000000;stroke-width:0.5;" x1="1429.71" x2="1524.2823" y1="264.2969" y2="264.2969"/></g><!--class Cotisation--><g class="entity" data-entity="Cotisation" data-source-line="45" data-uid="ent0024" id="entity_Cotisation"><rect fill="#FFFFFF" height="48" rx="2.5" ry="2.5" style="stroke:#000000;stroke-width:0.5;" width="102.4102" x="1621.79" y="372.2969"/><ellipse cx="1636.79" cy="388.2969" fill="#ADD1B2" rx="11" ry="11" style="stroke:#181818;stroke-width:1;"/><path d="M1639.7588,393.9375 Q1639.1806,394.2344 1638.54,394.375 Q1637.8994,394.5313 1637.1963,394.5313 Q1634.6963,394.5313 1633.3681,392.8906 Q1632.0556,391.2344 1632.0556,388.1094 Q1632.0556,384.9844 1633.3681,383.3281 Q1634.6963,381.6719 1637.1963,381.6719 Q1637.8994,381.6719 1638.54,381.8281 Q1639.1963,381.9844 1639.7588,382.2813 L1639.7588,385 Q1639.1338,384.4219 1638.54,384.1563 Q1637.9463,383.875 1637.3213,383.875 Q1635.9775,383.875 1635.29,384.9531 Q1634.6025,386.0156 1634.6025,388.1094 Q1634.6025,390.2031 1635.29,391.2813 Q1635.9775,392.3438 1637.3213,392.3438 Q1637.9463,392.3438 1638.54,392.0781 Q1639.1338,391.7969 1639.7588,391.2188 L1639.7588,393.9375 Z " fill="#000000"/><text fill="#000000" font-family="sans-serif" font-size="14" lengthAdjust="spacing" textLength="70.4102" x="1650.79" y="393.1436">Cotisation</text><line style="stroke:#000000;stroke-width:0.5;" x1="1622.79" x2="1723.2002" y1="404.2969" y2="404.2969"/><line style="stroke:#000000;stroke-width:0.5;" x1="1622.79" x2="1723.2002" y1="412.2969" y2="412.2969"/></g><!--class Paiement--><g class="entity" data-entity="Paiement" data-source-line="46" data-uid="ent0025" id="entity_Paiement"><rect fill="#FFFFFF" height="48" rx="2.5" ry="2.5" style="stroke:#000000;stroke-width:0.5;" width="98.1377" x="1621.93" y="224.2969"/><ellipse cx="1636.93" cy="240.2969" fill="#ADD1B2" rx="11" ry="11" style="stroke:#181818;stroke-width:1;"/><path d="M1639.8988,245.9375 Q1639.3206,246.2344 1638.68,246.375 Q1638.0394,246.5313 1637.3363,246.5313 Q1634.8363,246.5313 1633.5081,244.8906 Q1632.1956,243.2344 1632.1956,240.1094 Q1632.1956,236.9844 1633.5081,235.3281 Q1634.8363,233.6719 1637.3363,233.6719 Q1638.0394,233.6719 1638.68,233.8281 Q1639.3363,233.9844 1639.8988,234.2813 L1639.8988,237 Q1639.2738,236.4219 1638.68,236.1563 Q1638.0863,235.875 1637.4613,235.875 Q1636.1175,235.875 1635.43,236.9531 Q1634.7425,238.0156 1634.7425,240.1094 Q1634.7425,242.2031 1635.43,243.2813 Q1636.1175,244.3438 1637.4613,244.3438 Q1638.0863,244.3438 1638.68,244.0781 Q1639.2738,243.7969 1639.8988,243.2188 L1639.8988,245.9375 Z " fill="#000000"/><text fill="#000000" font-family="sans-serif" font-size="14" lengthAdjust="spacing" textLength="66.1377" x="1650.93" y="245.1436">Paiement</text><line style="stroke:#000000;stroke-width:0.5;" x1="1622.93" x2="1719.0677" y1="256.2969" y2="256.2969"/><line style="stroke:#000000;stroke-width:0.5;" x1="1622.93" x2="1719.0677" y1="264.2969" y2="264.2969"/></g><!--class Pret--><g class="entity" data-entity="Pret" data-source-line="47" data-uid="ent0026" id="entity_Pret"><rect fill="#FFFFFF" height="48" rx="2.5" ry="2.5" style="stroke:#000000;stroke-width:0.5;" width="60.3008" x="1867.85" y="224.2969"/><ellipse cx="1882.85" cy="240.2969" fill="#ADD1B2" rx="11" ry="11" style="stroke:#181818;stroke-width:1;"/><path d="M1885.8188,245.9375 Q1885.2406,246.2344 1884.6,246.375 Q1883.9594,246.5313 1883.2563,246.5313 Q1880.7563,246.5313 1879.4281,244.8906 Q1878.1156,243.2344 1878.1156,240.1094 Q1878.1156,236.9844 1879.4281,235.3281 Q1880.7563,233.6719 1883.2563,233.6719 Q1883.9594,233.6719 1884.6,233.8281 Q1885.2563,233.9844 1885.8188,234.2813 L1885.8188,237 Q1885.1938,236.4219 1884.6,236.1563 Q1884.0063,235.875 1883.3813,235.875 Q1882.0375,235.875 1881.35,236.9531 Q1880.6625,238.0156 1880.6625,240.1094 Q1880.6625,242.2031 1881.35,243.2813 Q1882.0375,244.3438 1883.3813,244.3438 Q1884.0063,244.3438 1884.6,244.0781 Q1885.1938,243.7969 1885.8188,243.2188 L1885.8188,245.9375 Z " fill="#000000"/><text fill="#000000" font-family="sans-serif" font-size="14" lengthAdjust="spacing" textLength="28.3008" x="1896.85" y="245.1436">Pret</text><line style="stroke:#000000;stroke-width:0.5;" x1="1868.85" x2="1927.1508" y1="256.2969" y2="256.2969"/><line style="stroke:#000000;stroke-width:0.5;" x1="1868.85" x2="1927.1508" y1="264.2969" y2="264.2969"/></g><!--class RachatPret--><g class="entity" data-entity="RachatPret" data-source-line="48" data-uid="ent0027" id="entity_RachatPret"><rect fill="#FFFFFF" height="48" rx="2.5" ry="2.5" style="stroke:#000000;stroke-width:0.5;" width="109.2461" x="1963.38" y="224.2969"/><ellipse cx="1978.38" cy="240.2969" fill="#ADD1B2" rx="11" ry="11" style="stroke:#181818;stroke-width:1;"/><path d="M1981.3488,245.9375 Q1980.7706,246.2344 1980.13,246.375 Q1979.4894,246.5313 1978.7863,246.5313 Q1976.2863,246.5313 1974.9581,244.8906 Q1973.6456,243.2344 1973.6456,240.1094 Q1973.6456,236.9844 1974.9581,235.3281 Q1976.2863,233.6719 1978.7863,233.6719 Q1979.4894,233.6719 1980.13,233.8281 Q1980.7863,233.9844 1981.3488,234.2813 L1981.3488,237 Q1980.7238,236.4219 1980.13,236.1563 Q1979.5363,235.875 1978.9113,235.875 Q1977.5675,235.875 1976.88,236.9531 Q1976.1925,238.0156 1976.1925,240.1094 Q1976.1925,242.2031 1976.88,243.2813 Q1977.5675,244.3438 1978.9113,244.3438 Q1979.5363,244.3438 1980.13,244.0781 Q1980.7238,243.7969 1981.3488,243.2188 L1981.3488,245.9375 Z " fill="#000000"/><text fill="#000000" font-family="sans-serif" font-size="14" lengthAdjust="spacing" textLength="77.2461" x="1992.38" y="245.1436">RachatPret</text><line style="stroke:#000000;stroke-width:0.5;" x1="1964.38" x2="2071.6261" y1="256.2969" y2="256.2969"/><line style="stroke:#000000;stroke-width:0.5;" x1="1964.38" x2="2071.6261" y1="264.2969" y2="264.2969"/></g><!--class AidePonctuelle--><g class="entity" data-entity="AidePonctuelle" data-source-line="49" data-uid="ent0028" id="entity_AidePonctuelle"><rect fill="#FFFFFF" height="48" rx="2.5" ry="2.5" style="stroke:#000000;stroke-width:0.5;" width="135.9131" x="2108.04" y="224.2969"/><ellipse cx="2123.04" cy="240.2969" fill="#ADD1B2" rx="11" ry="11" style="stroke:#181818;stroke-width:1;"/><path d="M2126.0088,245.9375 Q2125.4306,246.2344 2124.79,246.375 Q2124.1494,246.5313 2123.4463,246.5313 Q2120.9463,246.5313 2119.6181,244.8906 Q2118.3056,243.2344 2118.3056,240.1094 Q2118.3056,236.9844 2119.6181,235.3281 Q2120.9463,233.6719 2123.4463,233.6719 Q2124.1494,233.6719 2124.79,233.8281 Q2125.4463,233.9844 2126.0088,234.2813 L2126.0088,237 Q2125.3838,236.4219 2124.79,236.1563 Q2124.1963,235.875 2123.5713,235.875 Q2122.2275,235.875 2121.54,236.9531 Q2120.8525,238.0156 2120.8525,240.1094 Q2120.8525,242.2031 2121.54,243.2813 Q2122.2275,244.3438 2123.5713,244.3438 Q2124.1963,244.3438 2124.79,244.0781 Q2125.3838,243.7969 2126.0088,243.2188 L2126.0088,245.9375 Z " fill="#000000"/><text fill="#000000" font-family="sans-serif" font-size="14" lengthAdjust="spacing" textLength="103.9131" x="2137.04" y="245.1436">AidePonctuelle</text><line style="stroke:#000000;stroke-width:0.5;" x1="2109.04" x2="2242.9531" y1="256.2969" y2="256.2969"/><line style="stroke:#000000;stroke-width:0.5;" x1="2109.04" x2="2242.9531" y1="264.2969" y2="264.2969"/></g><!--class DepenseFonctionnement--><g class="entity" data-entity="DepenseFonctionnement" data-source-line="50" data-uid="ent0029" id="entity_DepenseFonctionnement"><rect fill="#FFFFFF" height="48" rx="2.5" ry="2.5" style="stroke:#000000;stroke-width:0.5;" width="207.7793" x="1755.11" y="499.2969"/><ellipse cx="1770.11" cy="515.2969" fill="#ADD1B2" rx="11" ry="11" style="stroke:#181818;stroke-width:1;"/><path d="M1773.0788,520.9375 Q1772.5006,521.2344 1771.86,521.375 Q1771.2194,521.5313 1770.5163,521.5313 Q1768.0163,521.5313 1766.6881,519.8906 Q1765.3756,518.2344 1765.3756,515.1094 Q1765.3756,511.9844 1766.6881,510.3281 Q1768.0163,508.6719 1770.5163,508.6719 Q1771.2194,508.6719 1771.86,508.8281 Q1772.5163,508.9844 1773.0788,509.2813 L1773.0788,512 Q1772.4538,511.4219 1771.86,511.1563 Q1771.2663,510.875 1770.6413,510.875 Q1769.2975,510.875 1768.61,511.9531 Q1767.9225,513.0156 1767.9225,515.1094 Q1767.9225,517.2031 1768.61,518.2813 Q1769.2975,519.3438 1770.6413,519.3438 Q1771.2663,519.3438 1771.86,519.0781 Q1772.4538,518.7969 1773.0788,518.2188 L1773.0788,520.9375 Z " fill="#000000"/><text fill="#000000" font-family="sans-serif" font-size="14" lengthAdjust="spacing" textLength="175.7793" x="1784.11" y="520.1436">DepenseFonctionnement</text><line style="stroke:#000000;stroke-width:0.5;" x1="1756.11" x2="1961.8893" y1="531.2969" y2="531.2969"/><line style="stroke:#000000;stroke-width:0.5;" x1="1756.11" x2="1961.8893" y1="539.2969" y2="539.2969"/></g><!--class CategorieDepense--><g class="entity" data-entity="CategorieDepense" data-source-line="51" data-uid="ent0030" id="entity_CategorieDepense"><rect fill="#FFFFFF" height="48" rx="2.5" ry="2.5" style="stroke:#000000;stroke-width:0.5;" width="161.8418" x="1778.08" y="626.2969"/><ellipse cx="1793.08" cy="642.2969" fill="#ADD1B2" rx="11" ry="11" style="stroke:#181818;stroke-width:1;"/><path d="M1796.0488,647.9375 Q1795.4706,648.2344 1794.83,648.375 Q1794.1894,648.5313 1793.4863,648.5313 Q1790.9863,648.5313 1789.6581,646.8906 Q1788.3456,645.2344 1788.3456,642.1094 Q1788.3456,638.9844 1789.6581,637.3281 Q1790.9863,635.6719 1793.4863,635.6719 Q1794.1894,635.6719 1794.83,635.8281 Q1795.4863,635.9844 1796.0488,636.2813 L1796.0488,639 Q1795.4238,638.4219 1794.83,638.1563 Q1794.2363,637.875 1793.6113,637.875 Q1792.2675,637.875 1791.58,638.9531 Q1790.8925,640.0156 1790.8925,642.1094 Q1790.8925,644.2031 1791.58,645.2813 Q1792.2675,646.3438 1793.6113,646.3438 Q1794.2363,646.3438 1794.83,646.0781 Q1795.4238,645.7969 1796.0488,645.2188 L1796.0488,647.9375 Z " fill="#000000"/><text fill="#000000" font-family="sans-serif" font-size="14" lengthAdjust="spacing" textLength="129.8418" x="1807.08" y="647.1436">CategorieDepense</text><line style="stroke:#000000;stroke-width:0.5;" x1="1779.08" x2="1938.9218" y1="658.2969" y2="658.2969"/><line style="stroke:#000000;stroke-width:0.5;" x1="1779.08" x2="1938.9218" y1="666.2969" y2="666.2969"/></g><!--class Caisse--><g class="entity" data-entity="Caisse" data-source-line="52" data-uid="ent0031" id="entity_Caisse"><rect fill="#FFFFFF" height="48" rx="2.5" ry="2.5" style="stroke:#000000;stroke-width:0.5;" width="77.4453" x="1755.28" y="224.2969"/><ellipse cx="1770.28" cy="240.2969" fill="#ADD1B2" rx="11" ry="11" style="stroke:#181818;stroke-width:1;"/><path d="M1773.2488,245.9375 Q1772.6706,246.2344 1772.03,246.375 Q1771.3894,246.5313 1770.6863,246.5313 Q1768.1863,246.5313 1766.8581,244.8906 Q1765.5456,243.2344 1765.5456,240.1094 Q1765.5456,236.9844 1766.8581,235.3281 Q1768.1863,233.6719 1770.6863,233.6719 Q1771.3894,233.6719 1772.03,233.8281 Q1772.6863,233.9844 1773.2488,234.2813 L1773.2488,237 Q1772.6238,236.4219 1772.03,236.1563 Q1771.4363,235.875 1770.8113,235.875 Q1769.4675,235.875 1768.78,236.9531 Q1768.0925,238.0156 1768.0925,240.1094 Q1768.0925,242.2031 1768.78,243.2813 Q1769.4675,244.3438 1770.8113,244.3438 Q1771.4363,244.3438 1772.03,244.0781 Q1772.6238,243.7969 1773.2488,243.2188 L1773.2488,245.9375 Z " fill="#000000"/><text fill="#000000" font-family="sans-serif" font-size="14" lengthAdjust="spacing" textLength="45.4453" x="1784.28" y="245.1436">Caisse</text><line style="stroke:#000000;stroke-width:0.5;" x1="1756.28" x2="1831.7253" y1="256.2969" y2="256.2969"/><line style="stroke:#000000;stroke-width:0.5;" x1="1756.28" x2="1831.7253" y1="264.2969" y2="264.2969"/></g><!--class MouvementCaisse--><g class="entity" data-entity="MouvementCaisse" data-source-line="53" data-uid="ent0032" id="entity_MouvementCaisse"><rect fill="#FFFFFF" height="48" rx="2.5" ry="2.5" style="stroke:#000000;stroke-width:0.5;" width="160.4746" x="1778.76" y="372.2969"/><ellipse cx="1793.76" cy="388.2969" fill="#ADD1B2" rx="11" ry="11" style="stroke:#181818;stroke-width:1;"/><path d="M1796.7288,393.9375 Q1796.1506,394.2344 1795.51,394.375 Q1794.8694,394.5313 1794.1663,394.5313 Q1791.6663,394.5313 1790.3381,392.8906 Q1789.0256,391.2344 1789.0256,388.1094 Q1789.0256,384.9844 1790.3381,383.3281 Q1791.6663,381.6719 1794.1663,381.6719 Q1794.8694,381.6719 1795.51,381.8281 Q1796.1663,381.9844 1796.7288,382.2813 L1796.7288,385 Q1796.1038,384.4219 1795.51,384.1563 Q1794.9163,383.875 1794.2913,383.875 Q1792.9475,383.875 1792.26,384.9531 Q1791.5725,386.0156 1791.5725,388.1094 Q1791.5725,390.2031 1792.26,391.2813 Q1792.9475,392.3438 1794.2913,392.3438 Q1794.9163,392.3438 1795.51,392.0781 Q1796.1038,391.7969 1796.7288,391.2188 L1796.7288,393.9375 Z " fill="#000000"/><text fill="#000000" font-family="sans-serif" font-size="14" lengthAdjust="spacing" textLength="128.4746" x="1807.76" y="393.1436">MouvementCaisse</text><line style="stroke:#000000;stroke-width:0.5;" x1="1779.76" x2="1938.2346" y1="404.2969" y2="404.2969"/><line style="stroke:#000000;stroke-width:0.5;" x1="1779.76" x2="1938.2346" y1="412.2969" y2="412.2969"/></g><!--class Mutualiste--><g class="entity" data-entity="Mutualiste" data-source-line="56" data-uid="ent0034" id="entity_Mutualiste"><rect fill="#FFFFFF" height="48" rx="2.5" ry="2.5" style="stroke:#000000;stroke-width:0.5;" width="105.0693" x="1904.47" y="78.2969"/><ellipse cx="1919.47" cy="94.2969" fill="#ADD1B2" rx="11" ry="11" style="stroke:#181818;stroke-width:1;"/><path d="M1922.4388,99.9375 Q1921.8606,100.2344 1921.22,100.375 Q1920.5794,100.5313 1919.8763,100.5313 Q1917.3763,100.5313 1916.0481,98.8906 Q1914.7356,97.2344 1914.7356,94.1094 Q1914.7356,90.9844 1916.0481,89.3281 Q1917.3763,87.6719 1919.8763,87.6719 Q1920.5794,87.6719 1921.22,87.8281 Q1921.8763,87.9844 1922.4388,88.2813 L1922.4388,91 Q1921.8138,90.4219 1921.22,90.1563 Q1920.6263,89.875 1920.0013,89.875 Q1918.6575,89.875 1917.97,90.9531 Q1917.2825,92.0156 1917.2825,94.1094 Q1917.2825,96.2031 1917.97,97.2813 Q1918.6575,98.3438 1920.0013,98.3438 Q1920.6263,98.3438 1921.22,98.0781 Q1921.8138,97.7969 1922.4388,97.2188 L1922.4388,99.9375 Z " fill="#000000"/><text fill="#000000" font-family="sans-serif" font-size="14" lengthAdjust="spacing" textLength="73.0693" x="1933.47" y="99.1436">Mutualiste</text><line style="stroke:#000000;stroke-width:0.5;" x1="1905.47" x2="2008.5393" y1="110.2969" y2="110.2969"/><line style="stroke:#000000;stroke-width:0.5;" x1="1905.47" x2="2008.5393" y1="118.2969" y2="118.2969"/></g><!--class Prestation--><g class="entity" data-entity="Prestation" data-source-line="70" data-uid="ent0044" id="entity_Prestation"><rect fill="#FFFFFF" height="48" rx="2.5" ry="2.5" style="stroke:#000000;stroke-width:0.5;" width="102.9912" x="1127.5" y="499.2969"/><ellipse cx="1142.5" cy="515.2969" fill="#ADD1B2" rx="11" ry="11" style="stroke:#181818;stroke-width:1;"/><path d="M1145.4688,520.9375 Q1144.8906,521.2344 1144.25,521.375 Q1143.6094,521.5313 1142.9063,521.5313 Q1140.4063,521.5313 1139.0781,519.8906 Q1137.7656,518.2344 1137.7656,515.1094 Q1137.7656,511.9844 1139.0781,510.3281 Q1140.4063,508.6719 1142.9063,508.6719 Q1143.6094,508.6719 1144.25,508.8281 Q1144.9063,508.9844 1145.4688,509.2813 L1145.4688,512 Q1144.8438,511.4219 1144.25,511.1563 Q1143.6563,510.875 1143.0313,510.875 Q1141.6875,510.875 1141,511.9531 Q1140.3125,513.0156 1140.3125,515.1094 Q1140.3125,517.2031 1141,518.2813 Q1141.6875,519.3438 1143.0313,519.3438 Q1143.6563,519.3438 1144.25,519.0781 Q1144.8438,518.7969 1145.4688,518.2188 L1145.4688,520.9375 Z " fill="#000000"/><text fill="#000000" font-family="sans-serif" font-size="14" lengthAdjust="spacing" textLength="70.9912" x="1156.5" y="520.1436">Prestation</text><line style="stroke:#000000;stroke-width:0.5;" x1="1128.5" x2="1229.4912" y1="531.2969" y2="531.2969"/><line style="stroke:#000000;stroke-width:0.5;" x1="1128.5" x2="1229.4912" y1="539.2969" y2="539.2969"/></g><!--class PriseEnCharge--><g class="entity" data-entity="PriseEnCharge" data-source-line="71" data-uid="ent0045" id="entity_PriseEnCharge"><rect fill="#FFFFFF" height="48" rx="2.5" ry="2.5" style="stroke:#000000;stroke-width:0.5;" width="134.1973" x="1064.9" y="372.2969"/><ellipse cx="1079.9" cy="388.2969" fill="#ADD1B2" rx="11" ry="11" style="stroke:#181818;stroke-width:1;"/><path d="M1082.8688,393.9375 Q1082.2906,394.2344 1081.65,394.375 Q1081.0094,394.5313 1080.3063,394.5313 Q1077.8063,394.5313 1076.4781,392.8906 Q1075.1656,391.2344 1075.1656,388.1094 Q1075.1656,384.9844 1076.4781,383.3281 Q1077.8063,381.6719 1080.3063,381.6719 Q1081.0094,381.6719 1081.65,381.8281 Q1082.3063,381.9844 1082.8688,382.2813 L1082.8688,385 Q1082.2438,384.4219 1081.65,384.1563 Q1081.0563,383.875 1080.4313,383.875 Q1079.0875,383.875 1078.4,384.9531 Q1077.7125,386.0156 1077.7125,388.1094 Q1077.7125,390.2031 1078.4,391.2813 Q1079.0875,392.3438 1080.4313,392.3438 Q1081.0563,392.3438 1081.65,392.0781 Q1082.2438,391.7969 1082.8688,391.2188 L1082.8688,393.9375 Z " fill="#000000"/><text fill="#000000" font-family="sans-serif" font-size="14" lengthAdjust="spacing" textLength="102.1973" x="1093.9" y="393.1436">PriseEnCharge</text><line style="stroke:#000000;stroke-width:0.5;" x1="1065.9" x2="1198.0973" y1="404.2969" y2="404.2969"/><line style="stroke:#000000;stroke-width:0.5;" x1="1065.9" x2="1198.0973" y1="412.2969" y2="412.2969"/></g><!--class Liquidation--><g class="entity" data-entity="Liquidation" data-source-line="72" data-uid="ent0046" id="entity_Liquidation"><rect fill="#FFFFFF" height="48" rx="2.5" ry="2.5" style="stroke:#000000;stroke-width:0.5;" width="109.6221" x="843.19" y="499.2969"/><ellipse cx="858.19" cy="515.2969" fill="#ADD1B2" rx="11" ry="11" style="stroke:#181818;stroke-width:1;"/><path d="M861.1588,520.9375 Q860.5806,521.2344 859.94,521.375 Q859.2994,521.5313 858.5963,521.5313 Q856.0963,521.5313 854.7681,519.8906 Q853.4556,518.2344 853.4556,515.1094 Q853.4556,511.9844 854.7681,510.3281 Q856.0963,508.6719 858.5963,508.6719 Q859.2994,508.6719 859.94,508.8281 Q860.5963,508.9844 861.1588,509.2813 L861.1588,512 Q860.5338,511.4219 859.94,511.1563 Q859.3463,510.875 858.7213,510.875 Q857.3775,510.875 856.69,511.9531 Q856.0025,513.0156 856.0025,515.1094 Q856.0025,517.2031 856.69,518.2813 Q857.3775,519.3438 858.7213,519.3438 Q859.3463,519.3438 859.94,519.0781 Q860.5338,518.7969 861.1588,518.2188 L861.1588,520.9375 Z " fill="#000000"/><text fill="#000000" font-family="sans-serif" font-size="14" lengthAdjust="spacing" textLength="77.6221" x="872.19" y="520.1436">Liquidation</text><line style="stroke:#000000;stroke-width:0.5;" x1="844.19" x2="951.8121" y1="531.2969" y2="531.2969"/><line style="stroke:#000000;stroke-width:0.5;" x1="844.19" x2="951.8121" y1="539.2969" y2="539.2969"/></g><!--class Mutualiste--><g class="entity" data-entity="Mutualiste" data-source-line="77" data-uid="ent0049" id="entity_Mutualiste"><rect fill="#FFFFFF" height="48" rx="2.5" ry="2.5" style="stroke:#000000;stroke-width:0.5;" width="105.0693" x="987.47" y="499.2969"/><ellipse cx="1002.47" cy="515.2969" fill="#ADD1B2" rx="11" ry="11" style="stroke:#181818;stroke-width:1;"/><path d="M1005.4388,520.9375 Q1004.8606,521.2344 1004.22,521.375 Q1003.5794,521.5313 1002.8763,521.5313 Q1000.3763,521.5313 999.0481,519.8906 Q997.7356,518.2344 997.7356,515.1094 Q997.7356,511.9844 999.0481,510.3281 Q1000.3763,508.6719 1002.8763,508.6719 Q1003.5794,508.6719 1004.22,508.8281 Q1004.8763,508.9844 1005.4388,509.2813 L1005.4388,512 Q1004.8138,511.4219 1004.22,511.1563 Q1003.6263,510.875 1003.0013,510.875 Q1001.6575,510.875 1000.97,511.9531 Q1000.2825,513.0156 1000.2825,515.1094 Q1000.2825,517.2031 1000.97,518.2813 Q1001.6575,519.3438 1003.0013,519.3438 Q1003.6263,519.3438 1004.22,519.0781 Q1004.8138,518.7969 1005.4388,518.2188 L1005.4388,520.9375 Z " fill="#000000"/><text fill="#000000" font-family="sans-serif" font-size="14" lengthAdjust="spacing" textLength="73.0693" x="1016.47" y="520.1436">Mutualiste</text><line style="stroke:#000000;stroke-width:0.5;" x1="988.47" x2="1091.5393" y1="531.2969" y2="531.2969"/><line style="stroke:#000000;stroke-width:0.5;" x1="988.47" x2="1091.5393" y1="539.2969" y2="539.2969"/></g><!--class Materiel--><g class="entity" data-entity="Materiel" data-source-line="85" data-uid="ent0055" id="entity_Materiel"><rect fill="#FFFFFF" height="48" rx="2.5" ry="2.5" style="stroke:#000000;stroke-width:0.5;" width="88.9092" x="2299.55" y="78.2969"/><ellipse cx="2314.55" cy="94.2969" fill="#ADD1B2" rx="11" ry="11" style="stroke:#181818;stroke-width:1;"/><path d="M2317.5188,99.9375 Q2316.9406,100.2344 2316.3,100.375 Q2315.6594,100.5313 2314.9563,100.5313 Q2312.4563,100.5313 2311.1281,98.8906 Q2309.8156,97.2344 2309.8156,94.1094 Q2309.8156,90.9844 2311.1281,89.3281 Q2312.4563,87.6719 2314.9563,87.6719 Q2315.6594,87.6719 2316.3,87.8281 Q2316.9563,87.9844 2317.5188,88.2813 L2317.5188,91 Q2316.8938,90.4219 2316.3,90.1563 Q2315.7063,89.875 2315.0813,89.875 Q2313.7375,89.875 2313.05,90.9531 Q2312.3625,92.0156 2312.3625,94.1094 Q2312.3625,96.2031 2313.05,97.2813 Q2313.7375,98.3438 2315.0813,98.3438 Q2315.7063,98.3438 2316.3,98.0781 Q2316.8938,97.7969 2317.5188,97.2188 L2317.5188,99.9375 Z " fill="#000000"/><text fill="#000000" font-family="sans-serif" font-size="14" lengthAdjust="spacing" textLength="56.9092" x="2328.55" y="99.1436">Materiel</text><line style="stroke:#000000;stroke-width:0.5;" x1="2300.55" x2="2387.4592" y1="110.2969" y2="110.2969"/><line style="stroke:#000000;stroke-width:0.5;" x1="2300.55" x2="2387.4592" y1="118.2969" y2="118.2969"/></g><!--class PretMateriel--><g class="entity" data-entity="PretMateriel" data-source-line="86" data-uid="ent0056" id="entity_PretMateriel"><rect fill="#FFFFFF" height="48" rx="2.5" ry="2.5" style="stroke:#000000;stroke-width:0.5;" width="117.21" x="2359.4" y="224.2969"/><ellipse cx="2374.4" cy="240.2969" fill="#ADD1B2" rx="11" ry="11" style="stroke:#181818;stroke-width:1;"/><path d="M2377.3688,245.9375 Q2376.7906,246.2344 2376.15,246.375 Q2375.5094,246.5313 2374.8063,246.5313 Q2372.3063,246.5313 2370.9781,244.8906 Q2369.6656,243.2344 2369.6656,240.1094 Q2369.6656,236.9844 2370.9781,235.3281 Q2372.3063,233.6719 2374.8063,233.6719 Q2375.5094,233.6719 2376.15,233.8281 Q2376.8063,233.9844 2377.3688,234.2813 L2377.3688,237 Q2376.7438,236.4219 2376.15,236.1563 Q2375.5563,235.875 2374.9313,235.875 Q2373.5875,235.875 2372.9,236.9531 Q2372.2125,238.0156 2372.2125,240.1094 Q2372.2125,242.2031 2372.9,243.2813 Q2373.5875,244.3438 2374.9313,244.3438 Q2375.5563,244.3438 2376.15,244.0781 Q2376.7438,243.7969 2377.3688,243.2188 L2377.3688,245.9375 Z " fill="#000000"/><text fill="#000000" font-family="sans-serif" font-size="14" lengthAdjust="spacing" textLength="85.21" x="2388.4" y="245.1436">PretMateriel</text><line style="stroke:#000000;stroke-width:0.5;" x1="2360.4" x2="2475.61" y1="256.2969" y2="256.2969"/><line style="stroke:#000000;stroke-width:0.5;" x1="2360.4" x2="2475.61" y1="264.2969" y2="264.2969"/></g><!--class Mutualiste--><g class="entity" data-entity="Mutualiste" data-source-line="89" data-uid="ent0058" id="entity_Mutualiste"><rect fill="#FFFFFF" height="48" rx="2.5" ry="2.5" style="stroke:#000000;stroke-width:0.5;" width="105.0693" x="2424.47" y="78.2969"/><ellipse cx="2439.47" cy="94.2969" fill="#ADD1B2" rx="11" ry="11" style="stroke:#181818;stroke-width:1;"/><path d="M2442.4388,99.9375 Q2441.8606,100.2344 2441.22,100.375 Q2440.5794,100.5313 2439.8763,100.5313 Q2437.3763,100.5313 2436.0481,98.8906 Q2434.7356,97.2344 2434.7356,94.1094 Q2434.7356,90.9844 2436.0481,89.3281 Q2437.3763,87.6719 2439.8763,87.6719 Q2440.5794,87.6719 2441.22,87.8281 Q2441.8763,87.9844 2442.4388,88.2813 L2442.4388,91 Q2441.8138,90.4219 2441.22,90.1563 Q2440.6263,89.875 2440.0013,89.875 Q2438.6575,89.875 2437.97,90.9531 Q2437.2825,92.0156 2437.2825,94.1094 Q2437.2825,96.2031 2437.97,97.2813 Q2438.6575,98.3438 2440.0013,98.3438 Q2440.6263,98.3438 2441.22,98.0781 Q2441.8138,97.7969 2442.4388,97.2188 L2442.4388,99.9375 Z " fill="#000000"/><text fill="#000000" font-family="sans-serif" font-size="14" lengthAdjust="spacing" textLength="73.0693" x="2453.47" y="99.1436">Mutualiste</text><line style="stroke:#000000;stroke-width:0.5;" x1="2425.47" x2="2528.5393" y1="110.2969" y2="110.2969"/><line style="stroke:#000000;stroke-width:0.5;" x1="2425.47" x2="2528.5393" y1="118.2969" y2="118.2969"/></g><!--class Reclamation--><g class="entity" data-entity="Reclamation" data-source-line="93" data-uid="ent0061" id="entity_Reclamation"><rect fill="#FFFFFF" height="48" rx="2.5" ry="2.5" style="stroke:#000000;stroke-width:0.5;" width="119.541" x="686.23" y="224.2969"/><ellipse cx="701.23" cy="240.2969" fill="#ADD1B2" rx="11" ry="11" style="stroke:#181818;stroke-width:1;"/><path d="M704.1988,245.9375 Q703.6206,246.2344 702.98,246.375 Q702.3394,246.5313 701.6363,246.5313 Q699.1363,246.5313 697.8081,244.8906 Q696.4956,243.2344 696.4956,240.1094 Q696.4956,236.9844 697.8081,235.3281 Q699.1363,233.6719 701.6363,233.6719 Q702.3394,233.6719 702.98,233.8281 Q703.6363,233.9844 704.1988,234.2813 L704.1988,237 Q703.5738,236.4219 702.98,236.1563 Q702.3863,235.875 701.7613,235.875 Q700.4175,235.875 699.73,236.9531 Q699.0425,238.0156 699.0425,240.1094 Q699.0425,242.2031 699.73,243.2813 Q700.4175,244.3438 701.7613,244.3438 Q702.3863,244.3438 702.98,244.0781 Q703.5738,243.7969 704.1988,243.2188 L704.1988,245.9375 Z " fill="#000000"/><text fill="#000000" font-family="sans-serif" font-size="14" lengthAdjust="spacing" textLength="87.541" x="715.23" y="245.1436">Reclamation</text><line style="stroke:#000000;stroke-width:0.5;" x1="687.23" x2="804.771" y1="256.2969" y2="256.2969"/><line style="stroke:#000000;stroke-width:0.5;" x1="687.23" x2="804.771" y1="264.2969" y2="264.2969"/></g><!--class Conversation--><g class="entity" data-entity="Conversation" data-source-line="94" data-uid="ent0062" id="entity_Conversation"><rect fill="#FFFFFF" height="48" rx="2.5" ry="2.5" style="stroke:#000000;stroke-width:0.5;" width="124.5586" x="481.72" y="78.2969"/><ellipse cx="496.72" cy="94.2969" fill="#ADD1B2" rx="11" ry="11" style="stroke:#181818;stroke-width:1;"/><path d="M499.6888,99.9375 Q499.1106,100.2344 498.47,100.375 Q497.8294,100.5313 497.1263,100.5313 Q494.6263,100.5313 493.2981,98.8906 Q491.9856,97.2344 491.9856,94.1094 Q491.9856,90.9844 493.2981,89.3281 Q494.6263,87.6719 497.1263,87.6719 Q497.8294,87.6719 498.47,87.8281 Q499.1263,87.9844 499.6888,88.2813 L499.6888,91 Q499.0638,90.4219 498.47,90.1563 Q497.8763,89.875 497.2513,89.875 Q495.9075,89.875 495.22,90.9531 Q494.5325,92.0156 494.5325,94.1094 Q494.5325,96.2031 495.22,97.2813 Q495.9075,98.3438 497.2513,98.3438 Q497.8763,98.3438 498.47,98.0781 Q499.0638,97.7969 499.6888,97.2188 L499.6888,99.9375 Z " fill="#000000"/><text fill="#000000" font-family="sans-serif" font-size="14" lengthAdjust="spacing" textLength="92.5586" x="510.72" y="99.1436">Conversation</text><line style="stroke:#000000;stroke-width:0.5;" x1="482.72" x2="605.2786" y1="110.2969" y2="110.2969"/><line style="stroke:#000000;stroke-width:0.5;" x1="482.72" x2="605.2786" y1="118.2969" y2="118.2969"/></g><!--class Message--><g class="entity" data-entity="Message" data-source-line="95" data-uid="ent0063" id="entity_Message"><rect fill="#FFFFFF" height="48" rx="2.5" ry="2.5" style="stroke:#000000;stroke-width:0.5;" width="93.3594" x="558.32" y="224.2969"/><ellipse cx="573.32" cy="240.2969" fill="#ADD1B2" rx="11" ry="11" style="stroke:#181818;stroke-width:1;"/><path d="M576.2888,245.9375 Q575.7106,246.2344 575.07,246.375 Q574.4294,246.5313 573.7263,246.5313 Q571.2263,246.5313 569.8981,244.8906 Q568.5856,243.2344 568.5856,240.1094 Q568.5856,236.9844 569.8981,235.3281 Q571.2263,233.6719 573.7263,233.6719 Q574.4294,233.6719 575.07,233.8281 Q575.7263,233.9844 576.2888,234.2813 L576.2888,237 Q575.6638,236.4219 575.07,236.1563 Q574.4763,235.875 573.8513,235.875 Q572.5075,235.875 571.82,236.9531 Q571.1325,238.0156 571.1325,240.1094 Q571.1325,242.2031 571.82,243.2813 Q572.5075,244.3438 573.8513,244.3438 Q574.4763,244.3438 575.07,244.0781 Q575.6638,243.7969 576.2888,243.2188 L576.2888,245.9375 Z " fill="#000000"/><text fill="#000000" font-family="sans-serif" font-size="14" lengthAdjust="spacing" textLength="61.3594" x="587.32" y="245.1436">Message</text><line style="stroke:#000000;stroke-width:0.5;" x1="559.32" x2="650.6794" y1="256.2969" y2="256.2969"/><line style="stroke:#000000;stroke-width:0.5;" x1="559.32" x2="650.6794" y1="264.2969" y2="264.2969"/></g><!--class Notification--><g class="entity" data-entity="Notification" data-source-line="96" data-uid="ent0064" id="entity_Notification"><rect fill="#FFFFFF" height="48" rx="2.5" ry="2.5" style="stroke:#000000;stroke-width:0.5;" width="112.3291" x="781.84" y="78.2969"/><ellipse cx="796.84" cy="94.2969" fill="#ADD1B2" rx="11" ry="11" style="stroke:#181818;stroke-width:1;"/><path d="M799.8088,99.9375 Q799.2306,100.2344 798.59,100.375 Q797.9494,100.5313 797.2463,100.5313 Q794.7463,100.5313 793.4181,98.8906 Q792.1056,97.2344 792.1056,94.1094 Q792.1056,90.9844 793.4181,89.3281 Q794.7463,87.6719 797.2463,87.6719 Q797.9494,87.6719 798.59,87.8281 Q799.2463,87.9844 799.8088,88.2813 L799.8088,91 Q799.1838,90.4219 798.59,90.1563 Q797.9963,89.875 797.3713,89.875 Q796.0275,89.875 795.34,90.9531 Q794.6525,92.0156 794.6525,94.1094 Q794.6525,96.2031 795.34,97.2813 Q796.0275,98.3438 797.3713,98.3438 Q797.9963,98.3438 798.59,98.0781 Q799.1838,97.7969 799.8088,97.2188 L799.8088,99.9375 Z " fill="#000000"/><text fill="#000000" font-family="sans-serif" font-size="14" lengthAdjust="spacing" textLength="80.3291" x="810.84" y="99.1436">Notification</text><line style="stroke:#000000;stroke-width:0.5;" x1="782.84" x2="893.1691" y1="110.2969" y2="110.2969"/><line style="stroke:#000000;stroke-width:0.5;" x1="782.84" x2="893.1691" y1="118.2969" y2="118.2969"/></g><!--class Mutualiste--><g class="entity" data-entity="Mutualiste" data-source-line="98" data-uid="ent0065" id="entity_Mutualiste"><rect fill="#FFFFFF" height="48" rx="2.5" ry="2.5" style="stroke:#000000;stroke-width:0.5;" width="105.0693" x="641.47" y="78.2969"/><ellipse cx="656.47" cy="94.2969" fill="#ADD1B2" rx="11" ry="11" style="stroke:#181818;stroke-width:1;"/><path d="M659.4388,99.9375 Q658.8606,100.2344 658.22,100.375 Q657.5794,100.5313 656.8763,100.5313 Q654.3763,100.5313 653.0481,98.8906 Q651.7356,97.2344 651.7356,94.1094 Q651.7356,90.9844 653.0481,89.3281 Q654.3763,87.6719 656.8763,87.6719 Q657.5794,87.6719 658.22,87.8281 Q658.8763,87.9844 659.4388,88.2813 L659.4388,91 Q658.8138,90.4219 658.22,90.1563 Q657.6263,89.875 657.0013,89.875 Q655.6575,89.875 654.97,90.9531 Q654.2825,92.0156 654.2825,94.1094 Q654.2825,96.2031 654.97,97.2813 Q655.6575,98.3438 657.0013,98.3438 Q657.6263,98.3438 658.22,98.0781 Q658.8138,97.7969 659.4388,97.2188 L659.4388,99.9375 Z " fill="#000000"/><text fill="#000000" font-family="sans-serif" font-size="14" lengthAdjust="spacing" textLength="73.0693" x="670.47" y="99.1436">Mutualiste</text><line style="stroke:#000000;stroke-width:0.5;" x1="642.47" x2="745.5393" y1="110.2969" y2="110.2969"/><line style="stroke:#000000;stroke-width:0.5;" x1="642.47" x2="745.5393" y1="118.2969" y2="118.2969"/></g><!--class LogActivite--><g class="entity" data-entity="LogActivite" data-source-line="108" data-uid="ent0073" id="entity_LogActivite"><rect fill="#FFFFFF" height="48" rx="2.5" ry="2.5" style="stroke:#000000;stroke-width:0.5;" width="110.1826" x="315.91" y="224.2969"/><ellipse cx="330.91" cy="240.2969" fill="#ADD1B2" rx="11" ry="11" style="stroke:#181818;stroke-width:1;"/><path d="M333.8788,245.9375 Q333.3006,246.2344 332.66,246.375 Q332.0194,246.5313 331.3163,246.5313 Q328.8163,246.5313 327.4881,244.8906 Q326.1756,243.2344 326.1756,240.1094 Q326.1756,236.9844 327.4881,235.3281 Q328.8163,233.6719 331.3163,233.6719 Q332.0194,233.6719 332.66,233.8281 Q333.3163,233.9844 333.8788,234.2813 L333.8788,237 Q333.2538,236.4219 332.66,236.1563 Q332.0663,235.875 331.4413,235.875 Q330.0975,235.875 329.41,236.9531 Q328.7225,238.0156 328.7225,240.1094 Q328.7225,242.2031 329.41,243.2813 Q330.0975,244.3438 331.4413,244.3438 Q332.0663,244.3438 332.66,244.0781 Q333.2538,243.7969 333.8788,243.2188 L333.8788,245.9375 Z " fill="#000000"/><text fill="#000000" font-family="sans-serif" font-size="14" lengthAdjust="spacing" textLength="78.1826" x="344.91" y="245.1436">LogActivite</text><line style="stroke:#000000;stroke-width:0.5;" x1="316.91" x2="425.0926" y1="256.2969" y2="256.2969"/><line style="stroke:#000000;stroke-width:0.5;" x1="316.91" x2="425.0926" y1="264.2969" y2="264.2969"/></g><!--class Rapport--><g class="entity" data-entity="Rapport" data-source-line="109" data-uid="ent0074" id="entity_Rapport"><rect fill="#FFFFFF" height="48" rx="2.5" ry="2.5" style="stroke:#000000;stroke-width:0.5;" width="87.8906" x="22.05" y="224.2969"/><ellipse cx="37.05" cy="240.2969" fill="#ADD1B2" rx="11" ry="11" style="stroke:#181818;stroke-width:1;"/><path d="M40.0188,245.9375 Q39.4406,246.2344 38.8,246.375 Q38.1594,246.5313 37.4563,246.5313 Q34.9563,246.5313 33.6281,244.8906 Q32.3156,243.2344 32.3156,240.1094 Q32.3156,236.9844 33.6281,235.3281 Q34.9563,233.6719 37.4563,233.6719 Q38.1594,233.6719 38.8,233.8281 Q39.4563,233.9844 40.0188,234.2813 L40.0188,237 Q39.3938,236.4219 38.8,236.1563 Q38.2063,235.875 37.5813,235.875 Q36.2375,235.875 35.55,236.9531 Q34.8625,238.0156 34.8625,240.1094 Q34.8625,242.2031 35.55,243.2813 Q36.2375,244.3438 37.5813,244.3438 Q38.2063,244.3438 38.8,244.0781 Q39.3938,243.7969 40.0188,243.2188 L40.0188,245.9375 Z " fill="#000000"/><text fill="#000000" font-family="sans-serif" font-size="14" lengthAdjust="spacing" textLength="55.8906" x="51.05" y="245.1436">Rapport</text><line style="stroke:#000000;stroke-width:0.5;" x1="23.05" x2="108.9406" y1="256.2969" y2="256.2969"/><line style="stroke:#000000;stroke-width:0.5;" x1="23.05" x2="108.9406" y1="264.2969" y2="264.2969"/></g><!--class SauvegardeDB--><g class="entity" data-entity="SauvegardeDB" data-source-line="110" data-uid="ent0075" id="entity_SauvegardeDB"><rect fill="#FFFFFF" height="48" rx="2.5" ry="2.5" style="stroke:#000000;stroke-width:0.5;" width="136.3438" x="144.83" y="224.2969"/><ellipse cx="159.83" cy="240.2969" fill="#ADD1B2" rx="11" ry="11" style="stroke:#181818;stroke-width:1;"/><path d="M162.7988,245.9375 Q162.2206,246.2344 161.58,246.375 Q160.9394,246.5313 160.2363,246.5313 Q157.7363,246.5313 156.4081,244.8906 Q155.0956,243.2344 155.0956,240.1094 Q155.0956,236.9844 156.4081,235.3281 Q157.7363,233.6719 160.2363,233.6719 Q160.9394,233.6719 161.58,233.8281 Q162.2363,233.9844 162.7988,234.2813 L162.7988,237 Q162.1738,236.4219 161.58,236.1563 Q160.9863,235.875 160.3613,235.875 Q159.0175,235.875 158.33,236.9531 Q157.6425,238.0156 157.6425,240.1094 Q157.6425,242.2031 158.33,243.2813 Q159.0175,244.3438 160.3613,244.3438 Q160.9863,244.3438 161.58,244.0781 Q162.1738,243.7969 162.7988,243.2188 L162.7988,245.9375 Z " fill="#000000"/><text fill="#000000" font-family="sans-serif" font-size="14" lengthAdjust="spacing" textLength="104.3438" x="173.83" y="245.1436">SauvegardeDB</text><line style="stroke:#000000;stroke-width:0.5;" x1="145.83" x2="280.1738" y1="256.2969" y2="256.2969"/><line style="stroke:#000000;stroke-width:0.5;" x1="145.83" x2="280.1738" y1="264.2969" y2="264.2969"/></g><!--class RestaurationDB--><g class="entity" data-entity="RestaurationDB" data-source-line="111" data-uid="ent0076" id="entity_RestaurationDB"><rect fill="#FFFFFF" height="48" rx="2.5" ry="2.5" style="stroke:#000000;stroke-width:0.5;" width="142.1133" x="21.94" y="372.2969"/><ellipse cx="36.94" cy="388.2969" fill="#ADD1B2" rx="11" ry="11" style="stroke:#181818;stroke-width:1;"/><path d="M39.9088,393.9375 Q39.3306,394.2344 38.69,394.375 Q38.0494,394.5313 37.3463,394.5313 Q34.8463,394.5313 33.5181,392.8906 Q32.2056,391.2344 32.2056,388.1094 Q32.2056,384.9844 33.5181,383.3281 Q34.8463,381.6719 37.3463,381.6719 Q38.0494,381.6719 38.69,381.8281 Q39.3463,381.9844 39.9088,382.2813 L39.9088,385 Q39.2838,384.4219 38.69,384.1563 Q38.0963,383.875 37.4713,383.875 Q36.1275,383.875 35.44,384.9531 Q34.7525,386.0156 34.7525,388.1094 Q34.7525,390.2031 35.44,391.2813 Q36.1275,392.3438 37.4713,392.3438 Q38.0963,392.3438 38.69,392.0781 Q39.2838,391.7969 39.9088,391.2188 L39.9088,393.9375 Z " fill="#000000"/><text fill="#000000" font-family="sans-serif" font-size="14" lengthAdjust="spacing" textLength="110.1133" x="50.94" y="393.1436">RestaurationDB</text><line style="stroke:#000000;stroke-width:0.5;" x1="22.94" x2="163.0533" y1="404.2969" y2="404.2969"/><line style="stroke:#000000;stroke-width:0.5;" x1="22.94" x2="163.0533" y1="412.2969" y2="412.2969"/></g><!--reverse link Utilisateur to Administrateur--><g class="link" data-entity-1="Utilisateur" data-entity-2="Administrateur" data-source-line="24" data-uid="lnk8" id="link_Utilisateur_Administrateur"><path codeLine="24" d="M643.2126,434.8228 C635.7226,444.6128 637.88,441.8369 630,452.2969 C618.34,467.7769 605.34,485.2769 595.26,498.9069" fill="none" id="Utilisateur-backto-Administrateur" style="stroke:#000000;stroke-width:1;"/><polygon fill="none" points="654.15,420.5269,638.4473,431.177,647.978,438.4686,654.15,420.5269" style="stroke:#000000;stroke-width:1;"/><text fill="#000000" font-family="sans-serif" font-size="13" lengthAdjust="spacing" textLength="60.2075" x="631" y="465.3638">H&#233;rite de</text></g><!--reverse link Utilisateur to Mutualiste--><g class="link" data-entity-1="Utilisateur" data-entity-2="Mutualiste" data-source-line="25" data-uid="lnk10" id="link_Utilisateur_Mutualiste"><path codeLine="25" d="M691.5152,436.6438 C702.6452,459.0938 711.43,476.7969 722.55,499.2069" fill="none" id="Utilisateur-backto-Mutualiste" style="stroke:#000000;stroke-width:1;"/><polygon fill="none" points="683.52,420.5169,686.1396,439.3088,696.8908,433.9787,683.52,420.5169" style="stroke:#000000;stroke-width:1;"/><text fill="#000000" font-family="sans-serif" font-size="13" lengthAdjust="spacing" textLength="60.2075" x="708" y="465.3638">H&#233;rite de</text></g><!--reverse link Administrateur to SuperAdministrateur--><g class="link" data-entity-1="Administrateur" data-entity-2="SuperAdministrateur" data-source-line="26" data-uid="lnk11" id="link_Administrateur_SuperAdministrateur"><path codeLine="26" d="M584.881,565.2683 C588.651,587.7183 591.36,603.7969 595.12,626.2069" fill="none" id="Administrateur-backto-SuperAdministrateur" style="stroke:#000000;stroke-width:1;"/><polygon fill="none" points="581.9,547.5169,578.9638,566.262,590.7981,564.2747,581.9,547.5169" style="stroke:#000000;stroke-width:1;"/><text fill="#000000" font-family="sans-serif" font-size="13" lengthAdjust="spacing" textLength="60.2075" x="591" y="592.3638">H&#233;rite de</text></g><!--link Administrateur to Role--><g class="link" data-entity-1="Administrateur" data-entity-2="Role" data-source-line="28" data-uid="lnk12" id="link_Administrateur_Role"><path codeLine="28" d="M613.32,547.5469 C627.87,557.2369 644.83,568.6869 660,579.2969 C681.8,594.5469 706.01,612.2069 724.66,625.9669" fill="none" id="Administrateur-Role" style="stroke:#000000;stroke-width:1;"/><polygon fill="#000000" points="693.0878,590.7425,687.3852,583.1312,684.0005,587.9367,693.0878,590.7425" style="stroke:#000000;stroke-width:1;"/><text fill="#000000" font-family="sans-serif" font-size="13" lengthAdjust="spacing" textLength="53.9995" x="698" y="592.3638">poss&#232;de</text><text fill="#000000" font-family="sans-serif" font-size="13" lengthAdjust="spacing" textLength="6.5" x="610.4481" y="567.369">*</text><text fill="#000000" font-family="sans-serif" font-size="13" lengthAdjust="spacing" textLength="6.5" x="706.0151" y="615.6884">*</text></g><!--link Role to Permission--><g class="link" data-entity-1="Role" data-entity-2="Permission" data-source-line="29" data-uid="lnk13" id="link_Role_Permission"><path codeLine="29" d="M751.36,674.5169 C746.87,696.9669 740.1,730.7969 735.62,753.2069" fill="none" id="Role-Permission" style="stroke:#000000;stroke-width:1;"/><polygon fill="#000000" points="749.0193,719.7662,753.6752,711.4732,747.9116,710.3203,749.0193,719.7662" style="stroke:#000000;stroke-width:1;"/><text fill="#000000" font-family="sans-serif" font-size="13" lengthAdjust="spacing" textLength="41.3867" x="759" y="719.3638">d&#233;finit</text><text fill="#000000" font-family="sans-serif" font-size="13" lengthAdjust="spacing" textLength="6.5" x="738.7488" y="694.3317">*</text><text fill="#000000" font-family="sans-serif" font-size="13" lengthAdjust="spacing" textLength="6.5" x="725.2411" y="742.1958">*</text></g><!--reverse link Mutualiste to AyantDroit--><g class="link" data-entity-1="Mutualiste" data-entity-2="AyantDroit" data-source-line="38" data-uid="lnk19" id="link_Mutualiste_AyantDroit"><path codeLine="38" d="M1333.8105,134.0594 C1323.7205,142.0894 1323.56,144.5869 1318,156.2969 C1307.68,178.0269 1316.65,205.0469 1326.05,223.9769" fill="none" id="Mutualiste-backto-AyantDroit" style="stroke:#000000;stroke-width:1;"/><polygon fill="#000000" points="1343.2,126.5869,1336.0144,127.1933,1333.8105,134.0594,1340.9961,133.4529,1343.2,126.5869" style="stroke:#000000;stroke-width:1;"/><polygon fill="#000000" points="1322.5701,169.8448,1326.2759,161.0859,1320.4198,160.5805,1322.5701,169.8448" style="stroke:#000000;stroke-width:1;"/><text fill="#000000" font-family="sans-serif" font-size="13" lengthAdjust="spacing" textLength="7.9663" x="1332" y="169.3638">a</text><text fill="#000000" font-family="sans-serif" font-size="13" lengthAdjust="spacing" textLength="8.271" x="1324.5556" y="146.4188">1</text><text fill="#000000" font-family="sans-serif" font-size="13" lengthAdjust="spacing" textLength="23.0356" x="1296.8504" y="213.3038">0..*</text></g><!--link Mutualiste to Adhesion--><g class="link" data-entity-1="Mutualiste" data-entity-2="Adhesion" data-source-line="39" data-uid="lnk20" id="link_Mutualiste_Adhesion"><path codeLine="39" d="M1374.88,126.7269 C1371.33,141.5569 1369.94,160.3169 1380,173.2969 C1388.71,184.5469 1398.64,174.2369 1411,181.2969 C1429.85,192.0669 1447.05,209.6469 1459.17,223.9569" fill="none" id="Mutualiste-Adhesion" style="stroke:#000000;stroke-width:1;"/><polygon fill="#000000" points="1388.2752,168.6413,1384.571,159.8817,1380.1297,163.7319,1388.2752,168.6413" style="stroke:#000000;stroke-width:1;"/><text fill="#000000" font-family="sans-serif" font-size="13" lengthAdjust="spacing" textLength="69.2021" x="1394" y="169.3638">adhere via</text><text fill="#000000" font-family="sans-serif" font-size="13" lengthAdjust="spacing" textLength="8.271" x="1364.1075" y="146.1929">1</text><text fill="#000000" font-family="sans-serif" font-size="13" lengthAdjust="spacing" textLength="23.0356" x="1429.0261" y="213.279">0..*</text></g><!--link Adhesion to Mutualiste--><g class="link" data-entity-1="Adhesion" data-entity-2="Mutualiste" data-source-line="41" data-uid="lnk22" id="link_Adhesion_Mutualiste"><path codeLine="41" d="M1480.11,223.8169 C1481.5,204.2869 1480.57,176.5269 1468,156.2969 C1460.2,143.7369 1448.21,133.6769 1435.67,125.8369" fill="none" id="Adhesion-Mutualiste" style="stroke:#000000;stroke-width:1;"/><polygon fill="#000000" points="1477.9347,160.3098,1478.9944,169.7611,1484.3474,167.3332,1477.9347,160.3098" style="stroke:#000000;stroke-width:1;"/><text fill="#000000" font-family="sans-serif" font-size="13" lengthAdjust="spacing" textLength="27.3203" x="1489" y="169.3638">lie a</text><text fill="#000000" font-family="sans-serif" font-size="13" lengthAdjust="spacing" textLength="6.5" x="1469.3883" y="213.1048">*</text><text fill="#000000" font-family="sans-serif" font-size="13" lengthAdjust="spacing" textLength="8.271" x="1440.7852" y="146.2636">1</text></g><!--link Adhesion to Contrat--><g class="link" data-entity-1="Adhesion" data-entity-2="Contrat" data-source-line="40" data-uid="lnk21" id="link_Adhesion_Contrat"><path codeLine="40" d="M1466.24,272.7569 C1453.73,299.9969 1433.23,344.6769 1420.74,371.8969" fill="none" id="Adhesion-Contrat" style="stroke:#000000;stroke-width:1;"/><polygon fill="#000000" points="1454.9144,317.4075,1461.3583,310.4128,1456.0162,307.961,1454.9144,317.4075" style="stroke:#000000;stroke-width:1;"/><text fill="#000000" font-family="sans-serif" font-size="13" lengthAdjust="spacing" textLength="60.0679" x="1466" y="317.3638">concerne</text><text fill="#000000" font-family="sans-serif" font-size="13" lengthAdjust="spacing" textLength="6.5" x="1452.3546" y="292.2299">*</text><text fill="#000000" font-family="sans-serif" font-size="13" lengthAdjust="spacing" textLength="8.271" x="1414.415" y="361.2043">1</text></g><!--link Adhesion to Cotisation--><g class="link" data-entity-1="Adhesion" data-entity-2="Cotisation" data-source-line="55" data-uid="lnk33" id="link_Adhesion_Cotisation"><path codeLine="55" d="M1508.49,272.7569 C1545.07,299.9969 1605.05,344.6769 1641.59,371.8969" fill="none" id="Adhesion-Cotisation" style="stroke:#000000;stroke-width:1;"/><polygon fill="#000000" points="1578.0099,315.8501,1572.5115,308.09,1569.0004,312.8039,1578.0099,315.8501" style="stroke:#000000;stroke-width:1;"/><text fill="#000000" font-family="sans-serif" font-size="13" lengthAdjust="spacing" textLength="45.8301" x="1583" y="317.3638">genere</text><text fill="#000000" font-family="sans-serif" font-size="13" lengthAdjust="spacing" textLength="8.271" x="1506.8793" y="292.2299">1</text><text fill="#000000" font-family="sans-serif" font-size="13" lengthAdjust="spacing" textLength="23.0356" x="1608.1362" y="361.2043">0..*</text></g><!--link Mutualiste to Paiement--><g class="link" data-entity-1="Mutualiste" data-entity-2="Paiement" data-source-line="56" data-uid="lnk35" id="link_Mutualiste_Paiement"><path codeLine="56" d="M1904.13,115.2069 C1857.88,127.1769 1790.15,148.5969 1738,181.2969 C1719.74,192.7469 1702.5,209.9369 1690.08,223.8969" fill="none" id="Mutualiste-Paiement" style="stroke:#000000;stroke-width:1;"/><polygon fill="#000000" points="1782.5418,167.127,1791.9374,165.6523,1789.2761,160.4114,1782.5418,167.127" style="stroke:#000000;stroke-width:1;"/><text fill="#000000" font-family="sans-serif" font-size="13" lengthAdjust="spacing" textLength="57.5352" x="1796" y="169.3638">recoit de</text><text fill="#000000" font-family="sans-serif" font-size="13" lengthAdjust="spacing" textLength="8.271" x="1888.1511" y="113.0439">1</text><text fill="#000000" font-family="sans-serif" font-size="13" lengthAdjust="spacing" textLength="23.0356" x="1668.9323" y="213.2043">0..*</text></g><!--link Paiement to Cotisation--><g class="link" data-entity-1="Paiement" data-entity-2="Cotisation" data-source-line="57" data-uid="lnk36" id="link_Paiement_Cotisation"><path codeLine="57" d="M1669.45,272.5669 C1668.87,282.3569 1668.28,293.8769 1668,304.2969 C1667.37,327.3869 1669.09,353.7369 1670.68,372.1169" fill="none" id="Paiement-Cotisation" style="stroke:#000000;stroke-width:1;"/><polygon fill="#000000" points="1673.0618,317.8629,1675.8887,308.7822,1670.0113,308.8548,1673.0618,317.8629" style="stroke:#000000;stroke-width:1;"/><text fill="#000000" font-family="sans-serif" font-size="13" lengthAdjust="spacing" textLength="44.3765" x="1682" y="317.3638">couvre</text><text fill="#000000" font-family="sans-serif" font-size="13" lengthAdjust="spacing" textLength="6.5" x="1657.5917" y="292.3939">*</text><text fill="#000000" font-family="sans-serif" font-size="13" lengthAdjust="spacing" textLength="6.5" x="1658.5233" y="361.0828">*</text></g><!--link Mutualiste to Pret--><g class="link" data-entity-1="Mutualiste" data-entity-2="Pret" data-source-line="59" data-uid="lnk37" id="link_Mutualiste_Pret"><path codeLine="59" d="M1919.92,126.7569 C1910.33,134.8469 1901.24,144.8069 1896,156.2969 C1886.23,177.7169 1888.51,205.0369 1892.13,224.1269" fill="none" id="Mutualiste-Pret" style="stroke:#000000;stroke-width:1;"/><polygon fill="#000000" points="1899.6278,169.6713,1904.9362,161.7801,1899.2841,160.1669,1899.6278,169.6713" style="stroke:#000000;stroke-width:1;"/><text fill="#000000" font-family="sans-serif" font-size="13" lengthAdjust="spacing" textLength="63.9082" x="1910" y="169.3638">accorde a</text><text fill="#000000" font-family="sans-serif" font-size="13" lengthAdjust="spacing" textLength="8.271" x="1902.4505" y="146.2299">1</text><text fill="#000000" font-family="sans-serif" font-size="13" lengthAdjust="spacing" textLength="23.0356" x="1864.6834" y="213.0953">0..*</text></g><!--link Mutualiste to RachatPret--><g class="link" data-entity-1="Mutualiste" data-entity-2="RachatPret" data-source-line="60" data-uid="lnk38" id="link_Mutualiste_RachatPret"><path codeLine="60" d="M1966.94,126.7569 C1978.28,153.5269 1996.73,197.0769 2008.07,223.8469" fill="none" id="Mutualiste-RachatPret" style="stroke:#000000;stroke-width:1;"/><polygon fill="#000000" points="1991.9503,169.4672,1991.1283,159.9922,1985.716,162.285,1991.9503,169.4672" style="stroke:#000000;stroke-width:1;"/><text fill="#000000" font-family="sans-serif" font-size="13" lengthAdjust="spacing" textLength="60.0679" x="1999" y="169.3638">concerne</text><text fill="#000000" font-family="sans-serif" font-size="13" lengthAdjust="spacing" textLength="8.271" x="1960.3439" y="146.2299">1</text><text fill="#000000" font-family="sans-serif" font-size="13" lengthAdjust="spacing" textLength="23.0356" x="1979.85" y="213.1421">0..*</text></g><!--link Mutualiste to AidePonctuelle--><g class="link" data-entity-1="Mutualiste" data-entity-2="AidePonctuelle" data-source-line="61" data-uid="lnk39" id="link_Mutualiste_AidePonctuelle"><path codeLine="61" d="M2009.87,125.1969 C2028.77,133.8869 2049.87,144.6069 2068,156.2969 C2099.11,176.3669 2131.1,204.4169 2152.1,224.0569" fill="none" id="Mutualiste-AidePonctuelle" style="stroke:#000000;stroke-width:1;"/><polygon fill="#000000" points="2099.1056,167.717,2093.3558,160.1413,2090.0011,164.9678,2099.1056,167.717" style="stroke:#000000;stroke-width:1;"/><text fill="#000000" font-family="sans-serif" font-size="13" lengthAdjust="spacing" textLength="63.9082" x="2104" y="169.3638">accorde a</text><text fill="#000000" font-family="sans-serif" font-size="13" lengthAdjust="spacing" textLength="8.271" x="2017.5295" y="124.3421">1</text><text fill="#000000" font-family="sans-serif" font-size="13" lengthAdjust="spacing" textLength="23.0356" x="2120.4764" y="213.4033">0..*</text></g><!--link DepenseFonctionnement to CategorieDepense--><g class="link" data-entity-1="DepenseFonctionnement" data-entity-2="CategorieDepense" data-source-line="63" data-uid="lnk40" id="link_DepenseFonctionnement_CategorieDepense"><path codeLine="63" d="M1859,547.5169 C1859,569.9669 1859,603.7969 1859,626.2069" fill="none" id="DepenseFonctionnement-CategorieDepense" style="stroke:#000000;stroke-width:1;"/><polygon fill="#000000" points="1864,592.8633,1866.9389,583.8182,1861.0611,583.8182,1864,592.8633" style="stroke:#000000;stroke-width:1;"/><text fill="#000000" font-family="sans-serif" font-size="13" lengthAdjust="spacing" textLength="105.752" x="1873" y="592.3638">est de categorie</text><text fill="#000000" font-family="sans-serif" font-size="13" lengthAdjust="spacing" textLength="6.5" x="1847.5194" y="567.3317">*</text><text fill="#000000" font-family="sans-serif" font-size="13" lengthAdjust="spacing" textLength="8.271" x="1850.0095" y="615.1958">1</text></g><!--link Caisse to MouvementCaisse--><g class="link" data-entity-1="Caisse" data-entity-2="MouvementCaisse" data-source-line="65" data-uid="lnk41" id="link_Caisse_MouvementCaisse"><path codeLine="65" d="M1818.5,272.5469 C1826.82,281.6969 1835.41,292.7669 1841,304.2969 C1851.39,325.7469 1855.79,352.8069 1857.64,371.8269" fill="none" id="Caisse-MouvementCaisse" style="stroke:#000000;stroke-width:1;"/><polygon fill="#000000" points="1853.8338,317.5148,1853.2505,308.0222,1847.7823,310.178,1853.8338,317.5148" style="stroke:#000000;stroke-width:1;"/><text fill="#000000" font-family="sans-serif" font-size="13" lengthAdjust="spacing" textLength="60.0679" x="1861" y="317.3638">concerne</text><text fill="#000000" font-family="sans-serif" font-size="13" lengthAdjust="spacing" textLength="8.271" x="1815.5293" y="292.369">1</text><text fill="#000000" font-family="sans-serif" font-size="13" lengthAdjust="spacing" textLength="23.0356" x="1831.5104" y="361.1173">0..*</text></g><!--link MouvementCaisse to DepenseFonctionnement--><g class="link" data-entity-1="MouvementCaisse" data-entity-2="DepenseFonctionnement" data-source-line="66" data-uid="lnk42" id="link_MouvementCaisse_DepenseFonctionnement"><path codeLine="66" d="M1859,420.5169 C1859,442.9669 1859,476.7969 1859,499.2069" fill="none" id="MouvementCaisse-DepenseFonctionnement" style="stroke:#000000;stroke-width:1;"/><polygon fill="#000000" points="1864,465.8633,1866.9389,456.8182,1861.0611,456.8182,1864,465.8633" style="stroke:#000000;stroke-width:1;"/><text fill="#000000" font-family="sans-serif" font-size="13" lengthAdjust="spacing" textLength="31.9097" x="1873" y="465.3638">paye</text><text fill="#000000" font-family="sans-serif" font-size="13" lengthAdjust="spacing" textLength="6.5" x="1847.5199" y="440.3317">*</text><text fill="#000000" font-family="sans-serif" font-size="13" lengthAdjust="spacing" textLength="24.8066" x="1832.0284" y="488.1958">0..1</text></g><!--link Contrat to Prestation--><g class="link" data-entity-1="Contrat" data-entity-2="Prestation" data-source-line="74" data-uid="lnk47" id="link_Contrat_Prestation"><path codeLine="74" d="M1367.36,420.3669 C1326.04,442.7269 1263.68,476.4769 1222.17,498.9369" fill="none" id="Contrat-Prestation" style="stroke:#000000;stroke-width:1;"/><polygon fill="#000000" points="1309.6026,463.243,1318.9563,461.5228,1316.1588,456.3534,1309.6026,463.243" style="stroke:#000000;stroke-width:1;"/><text fill="#000000" font-family="sans-serif" font-size="13" lengthAdjust="spacing" textLength="35.9468" x="1323" y="465.3638">inclut</text><text fill="#000000" font-family="sans-serif" font-size="13" lengthAdjust="spacing" textLength="8.271" x="1351.3664" y="420.2932">1</text><text fill="#000000" font-family="sans-serif" font-size="13" lengthAdjust="spacing" textLength="23.0356" x="1206.895" y="488.2541">0..*</text></g><!--link PriseEnCharge to Prestation--><g class="link" data-entity-1="PriseEnCharge" data-entity-2="Prestation" data-source-line="76" data-uid="lnk48" id="link_PriseEnCharge_Prestation"><path codeLine="76" d="M1140.73,420.5169 C1149.17,442.9669 1161.89,476.7969 1170.32,499.2069" fill="none" id="PriseEnCharge-Prestation" style="stroke:#000000;stroke-width:1;"/><polygon fill="#000000" points="1165.7599,465.5433,1165.3271,456.0426,1159.8254,458.1115,1165.7599,465.5433" style="stroke:#000000;stroke-width:1;"/><text fill="#000000" font-family="sans-serif" font-size="13" lengthAdjust="spacing" textLength="60.0679" x="1173" y="465.3638">concerne</text><text fill="#000000" font-family="sans-serif" font-size="13" lengthAdjust="spacing" textLength="6.5" x="1131.3775" y="440.3317">*</text><text fill="#000000" font-family="sans-serif" font-size="13" lengthAdjust="spacing" textLength="8.271" x="1159.1066" y="488.1958">1</text></g><!--link PriseEnCharge to Mutualiste--><g class="link" data-entity-1="PriseEnCharge" data-entity-2="Mutualiste" data-source-line="77" data-uid="lnk50" id="link_PriseEnCharge_Mutualiste"><path codeLine="77" d="M1064.57,420.3969 C1050.82,428.3169 1038.09,438.7369 1030,452.2969 C1021.63,466.3169 1024.66,484.6669 1029.5,499.0569" fill="none" id="PriseEnCharge-Mutualiste" style="stroke:#000000;stroke-width:1;"/><polygon fill="#000000" points="1032.964,465.43,1039.3314,458.3655,1033.9629,455.972,1032.964,465.43" style="stroke:#000000;stroke-width:1;"/><text fill="#000000" font-family="sans-serif" font-size="13" lengthAdjust="spacing" textLength="100.1025" x="1044" y="465.3638">pour (principal)</text><text fill="#000000" font-family="sans-serif" font-size="13" lengthAdjust="spacing" textLength="6.5" x="1046.1407" y="419.3908">*</text><text fill="#000000" font-family="sans-serif" font-size="13" lengthAdjust="spacing" textLength="24.8066" x="1000.1128" y="488.4033">0..1</text></g><!--link PriseEnCharge to AyantDroit--><g class="link" data-entity-1="PriseEnCharge" data-entity-2="AyantDroit" data-source-line="78" data-uid="lnk51" id="link_PriseEnCharge_AyantDroit"><path codeLine="78" d="M1123.64,371.8569 C1118.12,351.8269 1114.31,323.3069 1129,304.2969 C1148.07,279.6169 1229.98,263.9269 1285.95,255.8769" fill="none" id="PriseEnCharge-AyantDroit" style="stroke:#000000;stroke-width:1;"/><polygon fill="#000000" points="1138.0681,309.9564,1129.0002,312.8238,1132.4175,317.6062,1138.0681,309.9564" style="stroke:#000000;stroke-width:1;"/><text fill="#000000" font-family="sans-serif" font-size="13" lengthAdjust="spacing" textLength="114.3594" x="1143" y="317.3638">pour (dependant)</text><text fill="#000000" font-family="sans-serif" font-size="13" lengthAdjust="spacing" textLength="6.5" x="1110.1218" y="361.1546">*</text><text fill="#000000" font-family="sans-serif" font-size="13" lengthAdjust="spacing" textLength="24.8066" x="1253.5388" y="252.9625">0..1</text></g><!--link Adhesion to PriseEnCharge--><g class="link" data-entity-1="Adhesion" data-entity-2="PriseEnCharge" data-source-line="79" data-uid="lnk52" id="link_Adhesion_PriseEnCharge"><path codeLine="79" d="M1450.93,272.7269 C1439.48,281.6569 1425.38,290.9669 1411,296.2969 C1374.17,309.9369 1360.89,293.9869 1323,304.2969 C1267.18,319.4869 1207.75,350.4269 1170.28,371.9969" fill="none" id="Adhesion-PriseEnCharge" style="stroke:#000000;stroke-width:1;"/><polygon fill="#000000" points="1323.2862,314.5306,1332.7936,314.2851,1330.8335,308.7437,1323.2862,314.5306" style="stroke:#000000;stroke-width:1;"/><text fill="#000000" font-family="sans-serif" font-size="13" lengthAdjust="spacing" textLength="100.0898" x="1337" y="317.3638">sous l'adhesion</text><text fill="#000000" font-family="sans-serif" font-size="13" lengthAdjust="spacing" textLength="8.271" x="1436.0085" y="292.1929">1</text><text fill="#000000" font-family="sans-serif" font-size="13" lengthAdjust="spacing" textLength="23.0356" x="1153.8123" y="361.3287">0..*</text></g><!--link PriseEnCharge to Liquidation--><g class="link" data-entity-1="PriseEnCharge" data-entity-2="Liquidation" data-source-line="81" data-uid="lnk53" id="link_PriseEnCharge_Liquidation"><path codeLine="81" d="M1064.7,405.5869 C1026.68,412.9269 979.93,426.6769 945,452.2969 C928.71,464.2469 916.33,483.6469 908.37,499.0069" fill="none" id="PriseEnCharge-Liquidation" style="stroke:#000000;stroke-width:1;"/><polygon fill="#000000" points="945.708,463.4281,954.9799,461.3111,951.9648,456.2655,945.708,463.4281" style="stroke:#000000;stroke-width:1;"/><text fill="#000000" font-family="sans-serif" font-size="13" lengthAdjust="spacing" textLength="58.8999" x="959" y="465.3638">regle par</text><text fill="#000000" font-family="sans-serif" font-size="13" lengthAdjust="spacing" textLength="8.271" x="1048.4718" y="402.8684">1</text><text fill="#000000" font-family="sans-serif" font-size="13" lengthAdjust="spacing" textLength="24.8066" x="884.0707" y="488.3411">0..1</text></g><!--link Materiel to PretMateriel--><g class="link" data-entity-1="Materiel" data-entity-2="PretMateriel" data-source-line="88" data-uid="lnk57" id="link_Materiel_PretMateriel"><path codeLine="88" d="M2337.05,126.5969 C2334.11,140.6669 2332.65,158.6569 2339,173.2969 C2347.89,193.8169 2365.59,211.2469 2381.98,224.0269" fill="none" id="Materiel-PretMateriel" style="stroke:#000000;stroke-width:1;"/><polygon fill="#000000" points="2346.0938,169.4037,2344.9749,159.9592,2339.6372,162.4207,2346.0938,169.4037" style="stroke:#000000;stroke-width:1;"/><text fill="#000000" font-family="sans-serif" font-size="13" lengthAdjust="spacing" textLength="87.8325" x="2353" y="169.3638">est emprunte</text><text fill="#000000" font-family="sans-serif" font-size="13" lengthAdjust="spacing" textLength="8.271" x="2326.4128" y="146.4312">1</text><text fill="#000000" font-family="sans-serif" font-size="13" lengthAdjust="spacing" textLength="23.0356" x="2347.4001" y="213.366">0..*</text></g><!--link Mutualiste to PretMateriel--><g class="link" data-entity-1="Mutualiste" data-entity-2="PretMateriel" data-source-line="89" data-uid="lnk59" id="link_Mutualiste_PretMateriel"><path codeLine="89" d="M2467.39,126.7569 C2456.42,153.5269 2438.58,197.0769 2427.61,223.8469" fill="none" id="Mutualiste-PretMateriel" style="stroke:#000000;stroke-width:1;"/><polygon fill="#000000" points="2457.1043,169.49,2463.2531,162.2344,2457.8141,160.0059,2457.1043,169.49" style="stroke:#000000;stroke-width:1;"/><text fill="#000000" font-family="sans-serif" font-size="13" lengthAdjust="spacing" textLength="63.832" x="2468" y="169.3638">emprunte</text><text fill="#000000" font-family="sans-serif" font-size="13" lengthAdjust="spacing" textLength="8.271" x="2456.2729" y="146.2299">1</text><text fill="#000000" font-family="sans-serif" font-size="13" lengthAdjust="spacing" textLength="23.0356" x="2404.1524" y="213.1421">0..*</text></g><!--link Mutualiste to Reclamation--><g class="link" data-entity-1="Mutualiste" data-entity-2="Reclamation" data-source-line="98" data-uid="lnk66" id="link_Mutualiste_Reclamation"><path codeLine="98" d="M706.57,126.6369 C711.17,135.7369 716.17,146.3469 720,156.2969 C728.67,178.8369 735.96,205.4969 740.59,224.1169" fill="none" id="Mutualiste-Reclamation" style="stroke:#000000;stroke-width:1;"/><polygon fill="#000000" points="732.6475,169.5841,732.4419,160.0757,726.8923,162.0125,732.6475,169.5841" style="stroke:#000000;stroke-width:1;"/><text fill="#000000" font-family="sans-serif" font-size="13" lengthAdjust="spacing" textLength="79.7075" x="740" y="169.3638">soumise par</text><text fill="#000000" font-family="sans-serif" font-size="13" lengthAdjust="spacing" textLength="8.271" x="700.6908" y="146.481">1</text><text fill="#000000" font-family="sans-serif" font-size="13" lengthAdjust="spacing" textLength="23.0356" x="713.2612" y="213.0828">0..*</text></g><!--link Conversation to Message--><g class="link" data-entity-1="Conversation" data-entity-2="Message" data-source-line="99" data-uid="lnk67" id="link_Conversation_Message"><path codeLine="99" d="M586.3,126.7969 C596.6,134.7269 606.28,144.5969 612,156.2969 C622.36,177.5069 618.29,204.8569 613.08,224.0069" fill="none" id="Conversation-Message" style="stroke:#000000;stroke-width:1;"/><polygon fill="#000000" points="624.328,169.6837,624.759,160.1829,619.0923,161.744,624.328,169.6837" style="stroke:#000000;stroke-width:1;"/><text fill="#000000" font-family="sans-serif" font-size="13" lengthAdjust="spacing" textLength="53.3838" x="632" y="169.3638">contient</text><text fill="#000000" font-family="sans-serif" font-size="13" lengthAdjust="spacing" textLength="8.271" x="587.1884" y="146.2791">1</text><text fill="#000000" font-family="sans-serif" font-size="13" lengthAdjust="spacing" textLength="23.0356" x="589.2508" y="213.3411">0..*</text></g><!--link Message to Conversation--><g class="link" data-entity-1="Message" data-entity-2="Conversation" data-source-line="100" data-uid="lnk68" id="link_Message_Conversation"><path codeLine="100" d="M559.4,224.0169 C540.45,211.7269 520.46,194.7069 510,173.2969 C502.41,157.7569 510.91,140.2569 521.31,126.6469" fill="none" id="Message-Conversation" style="stroke:#000000;stroke-width:1;"/><polygon fill="#000000" points="513.1785,160.2069,513.7367,169.7011,519.2106,167.5597,513.1785,160.2069" style="stroke:#000000;stroke-width:1;"/><text fill="#000000" font-family="sans-serif" font-size="13" lengthAdjust="spacing" textLength="79.9233" x="524" y="169.3638">appartient a</text><text fill="#000000" font-family="sans-serif" font-size="13" lengthAdjust="spacing" textLength="6.5" x="539.5784" y="215.0384">*</text><text fill="#000000" font-family="sans-serif" font-size="13" lengthAdjust="spacing" textLength="8.271" x="506.8375" y="146.4934">1</text></g><!--link Message to Utilisateur--><g class="link" data-entity-1="Message" data-entity-2="Utilisateur" data-source-line="101" data-uid="lnk69" id="link_Message_Utilisateur"><path codeLine="101" d="M615.76,272.7569 C628.27,299.9969 648.77,344.6769 661.26,371.8969" fill="none" id="Message-Utilisateur" style="stroke:#000000;stroke-width:1;"/><polygon fill="#000000" points="644.0856,317.4075,642.9838,307.961,637.6417,310.4128,644.0856,317.4075" style="stroke:#000000;stroke-width:1;"/><text fill="#000000" font-family="sans-serif" font-size="13" lengthAdjust="spacing" textLength="73.271" x="651" y="317.3638">envoye par</text><text fill="#000000" font-family="sans-serif" font-size="13" lengthAdjust="spacing" textLength="6.5" x="606.8503" y="292.2299">*</text><text fill="#000000" font-family="sans-serif" font-size="13" lengthAdjust="spacing" textLength="8.271" x="649.699" y="361.2043">1</text></g><!--link Conversation to Utilisateur--><g class="link" data-entity-1="Conversation" data-entity-2="Utilisateur" data-source-line="103" data-uid="lnk70" id="link_Conversation_Utilisateur"><path codeLine="103" d="M606.68,122.1769 C612.51,123.6769 618.35,125.0769 624,126.2969 C668.79,135.9869 798.05,121.6169 828,156.2969 C846.95,178.2369 953.26,66.4269 823,296.2969 C801.52,334.2069 758.85,360.1369 724.33,375.9169" fill="none" id="Conversation-Utilisateur" style="stroke:#000000;stroke-width:1;"/><polygon fill="#000000" points="888.1032,252.8994,886.9647,243.4572,881.6322,245.9297,888.1032,252.8994" style="stroke:#000000;stroke-width:1;"/><text fill="#000000" font-family="sans-serif" font-size="13" lengthAdjust="spacing" textLength="69.3799" x="895" y="252.8638">participe a</text><text fill="#000000" font-family="sans-serif" font-size="13" lengthAdjust="spacing" textLength="6.5" x="618.4755" y="120.6051">*</text><text fill="#000000" font-family="sans-serif" font-size="13" lengthAdjust="spacing" textLength="6.5" x="736.1123" y="369.4202">*</text></g><!--link Notification to Utilisateur--><g class="link" data-entity-1="Notification" data-entity-2="Utilisateur" data-source-line="104" data-uid="lnk71" id="link_Notification_Utilisateur"><path codeLine="104" d="M894.59,120.6469 C923.5,132.7069 956.09,151.9869 973,181.2969 C998.55,225.5669 1004.91,256.3669 973,296.2969 C931.47,348.2669 890.31,308.8469 827,329.2969 C790.54,341.0769 750.81,358.0769 720.7,371.8769" fill="none" id="Notification-Utilisateur" style="stroke:#000000;stroke-width:1;"/><polygon fill="#000000" points="997.1544,252.4745,1004.7187,246.7098,999.8856,243.3646,997.1544,252.4745" style="stroke:#000000;stroke-width:1;"/><text fill="#000000" font-family="sans-serif" font-size="13" lengthAdjust="spacing" textLength="68.0659" x="1009" y="252.8638">destinee a</text><text fill="#000000" font-family="sans-serif" font-size="13" lengthAdjust="spacing" textLength="6.5" x="906.1186" y="118.976">*</text><text fill="#000000" font-family="sans-serif" font-size="13" lengthAdjust="spacing" textLength="8.271" x="723.6275" y="361.1795">1</text></g><!--link LogActivite to Utilisateur--><g class="link" data-entity-1="LogActivite" data-entity-2="Utilisateur" data-source-line="113" data-uid="lnk77" id="link_LogActivite_Utilisateur"><path codeLine="113" d="M417.82,272.5869 C433.15,280.1869 450.29,288.6369 466,296.2969 C519.5,322.3869 581.03,351.8869 622.81,371.8469" fill="none" id="LogActivite-Utilisateur" style="stroke:#000000;stroke-width:1;"/><polygon fill="#000000" points="526.5002,315.0424,519.6401,308.4552,517.0784,313.7455,526.5002,315.0424" style="stroke:#000000;stroke-width:1;"/><text fill="#000000" font-family="sans-serif" font-size="13" lengthAdjust="spacing" textLength="60.3979" x="531" y="317.3638">action de</text><text fill="#000000" font-family="sans-serif" font-size="13" lengthAdjust="spacing" textLength="6.5" x="417.7513" y="292.4188">*</text><text fill="#000000" font-family="sans-serif" font-size="13" lengthAdjust="spacing" textLength="24.8066" x="587.2216" y="362.836">0..1</text></g><!--link Paiement to MouvementCaisse--><g class="link" data-entity-1="Paiement" data-entity-2="MouvementCaisse" data-source-line="118" data-uid="lnk78" id="link_Paiement_MouvementCaisse"><path codeLine="118" d="M1700.79,272.6969 C1718.78,286.8069 1742.18,305.1269 1763,321.2969 C1784.94,338.3369 1809.78,357.4769 1828.69,372.0269" fill="none" id="Paiement-MouvementCaisse" style="stroke:#000000;stroke-width:1;"/><polygon fill="#000000" points="1771.949,315.9301,1766.6079,308.061,1763.0026,312.7033,1771.949,315.9301" style="stroke:#000000;stroke-width:1;"/><text fill="#000000" font-family="sans-serif" font-size="13" lengthAdjust="spacing" textLength="55.2881" x="1777" y="317.3638">gere par</text><text fill="#000000" font-family="sans-serif" font-size="13" lengthAdjust="spacing" textLength="6.5" x="1696.5709" y="292.5556">*</text><text fill="#000000" font-family="sans-serif" font-size="13" lengthAdjust="spacing" textLength="24.8066" x="1794.4759" y="361.366">0..1</text></g><!--SRC=[ZLVRZjis47ttLn1-s4lG3PhNe5l0wyss3t6xM3VeCo5DP28KoPAK6wFTV-cZtT_GZ_MGaYrIlgH00al3ENCvCvpHUk4biKV1AylhcbX9R2wvS-JONAk2Z6z8JYRNREatKZZkXLRivbSJVXN9xvZHZMMIiq9owziTMmi7XAJRYViYbE4mommlll2As5yJnXwqBSdEjTIMFKWSGFQabKybhmcs2D6SHJxWfxAwKMKd_tqbF44-irR_USwa58hynX1YbvlmmgxPSqYZHDPIL0e_uC6IxD8rid4X3c791Ihkx-_PSvSIv0UMmhE5Yj6gvCeptdnbO5MLiAPhBe9PG2UJFHtJdyX51v-yYDnIOnsxOhEYQBTk6fFkqayK3h9PMGibdBUvUBfi3DdHwPHnn-B16TIBbdHuUIPR2-SGsGIon3VxuU-xkv5fzfxztEuiQ0TdfzGNZMyuH50OgOuCHUqJGUQmOzoKlS5_OBk7a0eWHZlNRb767u68if7Ua2MqotRt6JOzj5zF56XMhX01AH_AWtiHN6S56f8SwhD14pnQBVn1r2EJ4gveJtD2q_GT8WnnVl_sxPjfOWY1yfZFI3dHxIq6JJnQmdti88UJWGOW-uYW7llOAhgWd5LI2eh1dABhIIYk2j5kuV-A_MRRdTEMhA2Kihds_JmP6eyBgi7o8B0qlBpmOiLz9fg9afuHk8yZvo1-94FAqLCuYNCgCpf7srGQqVHgoG7wONXTw6OTaRqyuoLZVKW5n5Ia0kyNoxHF5EgMYb3Plb4F1wDcpJmK22nwkEW2F8KkA8emDh_LDmEturOutsePzoDN09uimgZxHfM04NHGuABOdtIskWgC0XZLvoZmqV7W6N0OEXqV1WVVq9c-Nf9TYuB2401LpiU2P7DW42SYuUY3cg-uhORc-YZ-Q4JPQOO4-tjuLCFU6k8Igf2Dx_Z8REQSPfYCa7EWZexiSiUbVcCiV0h3vUt_m6TJgiENWU6m2cz7GsMKP6hsFNCQsrPUyxtsgOJVfPuJAkDzgj2DMFHdQhZWFYmJhEjiVgFVWZ2RF0TXwAR- -SGjEnnrtKkriOtotve08-00EXNqNDTreqJH9Nc5BIdM8et_XV1Rvus7dbgJ7OtO1Jd7apxy1OFbSs_uuZn9F7H5mlBSyymoN-Dhsddikj6BSCaYCxrul8u6CvWe1lOx23yFIhyumAHQwyq-iAF8ygcQ8wClzFj-MARKNF9OXY8fEbw7outpxROEEt21ppzFOIlsE_0m1tGrm_nPTv-jmwepHbkVI9OSqwpYcA-F3wbYkEoDZJ7Y89ua9ezkQHuvZvElspsl-o_RZ-3RiH2klJFxhrpN62FRNHYHyJEOES5Kkoj2FV1-z5T0-CwzPX- -eg_ZRlYaZkQn8KopzbyFj1I0jF-mHWqBy8PK4HNZMrW9mmea_7EctSBzxUJ4okmdsj5-gC9YZftn7m00]--></g></svg>