<svg xmlns="http://www.w3.org/2000/svg" xmlns:xlink="http://www.w3.org/1999/xlink" contentStyleType="text/css" data-diagram-type="ACTIVITY" height="1757px" preserveAspectRatio="none" style="width:4196px;height:1757px;background:#FFFFFF;" version="1.1" viewBox="0 0 4196 1757" width="4196px" zoomAndPan="magnify"><title>UC 63 - Archiver des donn&#233;es</title><defs/><g><g class="title" data-source-line="1"><text fill="#000000" font-family="sans-serif" font-size="14" font-weight="bold" lengthAdjust="spacing" textLength="232.3809" x="1980.5737" y="32.9951">UC 63 - Archiver des donn&#233;es</text></g><rect fill="none" height="20.9531" style="stroke:none;stroke-width:1;" width="4163.5283" x="15" y="50.042"/><rect fill="#F1F1F1" height="33.9688" rx="12.5" ry="12.5" style="stroke:#181818;stroke-width:0.5;" width="213.916" x="440.6396" y="115.9951"/><text fill="#000000" font-family="sans-serif" font-size="12" lengthAdjust="spacing" textLength="193.916" x="450.6396" y="137.1338">Naviguer vers section archivage</text><rect fill="#F1F1F1" height="33.9688" rx="12.5" ry="12.5" style="stroke:#181818;stroke-width:0.5;" width="279.5" x="407.8477" y="277.9014"/><text fill="#000000" font-family="sans-serif" font-size="12" lengthAdjust="spacing" textLength="259.5" x="417.8477" y="299.04">S&#233;lectionner type(s) de donn&#233;es &#224; archiver</text><rect fill="#F1F1F1" height="33.9688" rx="12.5" ry="12.5" style="stroke:#181818;stroke-width:0.5;" width="183.3066" x="455.9443" y="331.8701"/><text fill="#000000" font-family="sans-serif" font-size="12" lengthAdjust="spacing" textLength="163.3066" x="465.9443" y="353.0088">Ajuster crit&#232;res (Optionnel)</text><rect fill="#F1F1F1" height="33.9688" rx="12.5" ry="12.5" style="stroke:#181818;stroke-width:0.5;" width="213.1484" x="441.0234" y="385.8389"/><text fill="#000000" font-family="sans-serif" font-size="12" lengthAdjust="spacing" textLength="193.1484" x="451.0234" y="406.9775">Lancer le processus d'archivage</text><rect fill="#F1F1F1" height="33.9688" rx="12.5" ry="12.5" style="stroke:#181818;stroke-width:0.5;" width="168.6641" x="461.2544" y="1001.0889"/><text fill="#000000" font-family="sans-serif" font-size="12" lengthAdjust="spacing" textLength="148.6641" x="471.2544" y="1022.2275">Suivre statut (Optionnel)</text><rect fill="#555555" height="6" rx="2.5" ry="2.5" style="stroke:#555555;stroke-width:1;" width="678.3477" x="21" y="1233.4951"/><rect fill="#F1F1F1" height="33.9688" rx="12.5" ry="12.5" style="stroke:#181818;stroke-width:0.5;" width="364.8477" x="33" y="1475.3701"/><text fill="#000000" font-family="sans-serif" font-size="12" lengthAdjust="spacing" textLength="344.8477" x="43" y="1496.5088">Consulter rapport (Nb succ&#232;s, Nb &#233;checs, D&#233;tails &#233;checs)</text><ellipse cx="215.4238" cy="1540.3389" fill="none" rx="11" ry="11" style="stroke:#222222;stroke-width:1;"/><ellipse cx="215.4238" cy="1540.3389" fill="#222222" rx="6" ry="6" style="stroke:#222222;stroke-width:1;"/><rect fill="#F1F1F1" height="33.9688" rx="12.5" ry="12.5" style="stroke:#181818;stroke-width:0.5;" width="228.9688" x="709.3477" y="768.6514"/><text fill="#000000" font-family="sans-serif" font-size="12" lengthAdjust="spacing" textLength="208.9688" x="719.3477" y="789.79">Prendre connaissance du message</text><ellipse cx="823.832" cy="848.6201" fill="none" rx="11" ry="11" style="stroke:#222222;stroke-width:1;"/><ellipse cx="823.832" cy="848.6201" fill="#222222" rx="6" ry="6" style="stroke:#222222;stroke-width:1;"/><rect fill="#F1F1F1" height="33.9688" rx="12.5" ry="12.5" style="stroke:#181818;stroke-width:0.5;" width="218.6211" x="438.2871" y="1669.2764"/><text fill="#000000" font-family="sans-serif" font-size="12" lengthAdjust="spacing" textLength="198.6211" x="448.2871" y="1690.415">Prendre connaissance de l'erreur</text><ellipse cx="547.5977" cy="1734.2451" fill="none" rx="11" ry="11" style="stroke:#222222;stroke-width:1;"/><ellipse cx="547.5977" cy="1734.2451" fill="#222222" rx="6" ry="6" style="stroke:#222222;stroke-width:1;"/><line style="stroke:#000000;stroke-width:1.5;" x1="15" x2="15" y1="50.042" y2="1745.2451"/><rect fill="#F1F1F1" height="33.9688" rx="12.5" ry="12.5" style="stroke:#181818;stroke-width:0.5;" width="197.8555" x="1230.0615" y="169.9639"/><text fill="#000000" font-family="sans-serif" font-size="12" lengthAdjust="spacing" textLength="177.8555" x="1240.0615" y="191.1025">Afficher interface d'archivage</text><rect fill="#F1F1F1" height="33.9688" rx="12.5" ry="12.5" style="stroke:#181818;stroke-width:0.5;" width="306.5" x="1175.7393" y="223.9326"/><text fill="#000000" font-family="sans-serif" font-size="12" lengthAdjust="spacing" textLength="286.5" x="1185.7393" y="245.0713">Afficher types de donn&#233;es archivables et r&#232;gles</text><rect fill="#F1F1F1" height="33.9688" rx="12.5" ry="12.5" style="stroke:#181818;stroke-width:0.5;" width="375.9395" x="1141.0195" y="439.8076"/><text fill="#000000" font-family="sans-serif" font-size="12" lengthAdjust="spacing" textLength="355.9395" x="1151.0195" y="460.9463">Envoyer requ&#234;te de lancement [Type(s) Donn&#233;es, Crit&#232;res]</text><rect fill="#F1F1F1" height="33.9688" rx="12.5" ry="12.5" style="stroke:#181818;stroke-width:0.5;" width="304.6133" x="1174.6714" y="932.1201"/><text fill="#000000" font-family="sans-serif" font-size="12" lengthAdjust="spacing" textLength="284.6133" x="1184.6714" y="953.2588">Afficher statut du processus (si en arri&#232;re-plan)</text><rect fill="#F1F1F1" height="33.9688" rx="12.5" ry="12.5" style="stroke:#181818;stroke-width:0.5;" width="182.7031" x="948.3164" y="1421.4014"/><text fill="#000000" font-family="sans-serif" font-size="12" lengthAdjust="spacing" textLength="162.7031" x="958.3164" y="1442.54">Afficher rapport de r&#233;sum&#233;</text><rect fill="#F1F1F1" height="33.9688" rx="12.5" ry="12.5" style="stroke:#181818;stroke-width:0.5;" width="308.5332" x="1513.2847" y="699.6826"/><text fill="#000000" font-family="sans-serif" font-size="12" lengthAdjust="spacing" textLength="288.5332" x="1523.2847" y="720.8213">Afficher message "Aucune donn&#233;e &#224; archiver..."</text><rect fill="#F1F1F1" height="33.9688" rx="12.5" ry="12.5" style="stroke:#181818;stroke-width:0.5;" width="294.3242" x="1181.8271" y="1615.3076"/><text fill="#000000" font-family="sans-serif" font-size="12" lengthAdjust="spacing" textLength="274.3242" x="1191.8271" y="1636.4463">Afficher message d'erreur g&#233;n&#233;rique (Exc E1)</text><line style="stroke:#000000;stroke-width:1.5;" x1="942.3164" x2="942.3164" y1="50.042" y2="1745.2451"/><rect fill="#F1F1F1" height="33.9688" rx="12.5" ry="12.5" style="stroke:#181818;stroke-width:0.5;" width="123.2363" x="2614.6191" y="493.7764"/><text fill="#000000" font-family="sans-serif" font-size="12" lengthAdjust="spacing" textLength="103.2363" x="2624.6191" y="514.915">Recevoir requ&#234;te</text><rect fill="#F1F1F1" height="33.9688" rx="12.5" ry="12.5" style="stroke:#181818;stroke-width:0.5;" width="398.7324" x="2476.8711" y="547.7451"/><text fill="#000000" font-family="sans-serif" font-size="12" lengthAdjust="spacing" textLength="378.7324" x="2486.8711" y="568.8838">Identifier donn&#233;es &#233;ligibles &#224; l'archivage (selon r&#232;gles/crit&#232;res)</text><polygon fill="#F1F1F1" points="2551.5876,601.7139,2800.887,601.7139,2812.887,613.7139,2800.887,625.7139,2551.5876,625.7139,2539.5876,613.7139,2551.5876,601.7139" style="stroke:#181818;stroke-width:0.5;"/><text fill="#000000" font-family="sans-serif" font-size="11" lengthAdjust="spacing" textLength="249.2993" x="2551.5876" y="617.522">Donn&#233;es &#233;ligibles trouv&#233;es - Alt A2 si aucune</text><text fill="#000000" font-family="sans-serif" font-size="11" lengthAdjust="spacing" textLength="16.7578" x="2522.8298" y="611.1196">oui</text><text fill="#000000" font-family="sans-serif" font-size="11" lengthAdjust="spacing" textLength="204.6763" x="2812.887" y="611.1196">non - Alt A2 - Aucune donn&#233;e &#233;ligible</text><rect fill="#F1F1F1" height="33.9688" rx="12.5" ry="12.5" style="stroke:#181818;stroke-width:0.5;" width="250.6133" x="2212.3687" y="645.7139"/><text fill="#000000" font-family="sans-serif" font-size="12" lengthAdjust="spacing" textLength="230.6133" x="2222.3687" y="666.8525">Initialiser journal / rapport d'archivage</text><rect fill="#555555" height="6" rx="2.5" ry="2.5" style="stroke:#555555;stroke-width:1;" width="997.7148" x="1842.8179" y="699.6826"/><rect fill="#F1F1F1" height="33.9688" rx="12.5" ry="12.5" style="stroke:#181818;stroke-width:0.5;" width="160.4199" x="2089.0464" y="797.6826"/><text fill="#000000" font-family="sans-serif" font-size="12" lengthAdjust="spacing" textLength="140.4199" x="2099.0464" y="818.8213">Traiter &#233;l&#233;ment &#233;ligible</text><rect fill="#F1F1F1" height="33.9688" rx="12.5" ry="12.5" style="stroke:#181818;stroke-width:0.5;" width="301.209" x="2018.6519" y="866.6514"/><text fill="#000000" font-family="sans-serif" font-size="12" lengthAdjust="spacing" textLength="281.209" x="2028.6519" y="887.79">V&#233;rifier d&#233;pendances / coh&#233;rence de l'&#233;l&#233;ment</text><polygon fill="#F1F1F1" points="2093.0002,920.6201,2245.5125,920.6201,2257.5125,932.6201,2245.5125,944.6201,2093.0002,944.6201,2081.0002,932.6201,2093.0002,920.6201" style="stroke:#181818;stroke-width:0.5;"/><text fill="#000000" font-family="sans-serif" font-size="11" lengthAdjust="spacing" textLength="152.5122" x="2093.0002" y="936.4282">Archivage &#233;l&#233;ment possible</text><text fill="#000000" font-family="sans-serif" font-size="11" lengthAdjust="spacing" textLength="16.7578" x="2064.2424" y="930.0259">oui</text><text fill="#000000" font-family="sans-serif" font-size="11" lengthAdjust="spacing" textLength="64.5498" x="2257.5125" y="930.0259">non - Alt A3</text><rect fill="#F1F1F1" height="47.9375" rx="12.5" ry="12.5" style="stroke:#181818;stroke-width:0.5;" width="310.3262" x="1858.8179" y="964.6201"/><text fill="#000000" font-family="sans-serif" font-size="12" lengthAdjust="spacing" textLength="259.2949" x="1868.8179" y="985.7588">Ex&#233;cuter action d'archivage pour l'&#233;l&#233;ment</text><text fill="#000000" font-family="sans-serif" font-size="12" lengthAdjust="spacing" textLength="290.3262" x="1868.8179" y="999.7275">(Marquer, D&#233;placer en DB/Stockage secondaire)</text><rect fill="#F1F1F1" height="33.9688" rx="12.5" ry="12.5" style="stroke:#181818;stroke-width:0.5;" width="219.3594" x="1904.3013" y="1101.5264"/><text fill="#000000" font-family="sans-serif" font-size="12" lengthAdjust="spacing" textLength="199.3594" x="1914.3013" y="1122.665">Journaliser succ&#232;s pour l'&#233;l&#233;ment</text><rect fill="#F1F1F1" height="33.9688" rx="12.5" ry="12.5" style="stroke:#181818;stroke-width:0.5;" width="270.7754" x="2189.144" y="964.6201"/><text fill="#000000" font-family="sans-serif" font-size="12" lengthAdjust="spacing" textLength="250.7754" x="2199.144" y="985.7588">Journaliser &#233;chec et raison pour l'&#233;l&#233;ment</text><polygon fill="#F1F1F1" points="2169.2563,1145.4951,2181.2563,1157.4951,2169.2563,1169.4951,2157.2563,1157.4951,2169.2563,1145.4951" style="stroke:#181818;stroke-width:0.5;"/><polygon fill="#F1F1F1" points="2169.2563,725.6826,2181.2563,737.6826,2169.2563,749.6826,2157.2563,737.6826,2169.2563,725.6826" style="stroke:#181818;stroke-width:0.5;"/><polygon fill="#F1F1F1" points="2063.0645,1189.4951,2275.4482,1189.4951,2287.4482,1201.4951,2275.4482,1213.4951,2063.0645,1213.4951,2051.0645,1201.4951,2063.0645,1189.4951" style="stroke:#181818;stroke-width:0.5;"/><text fill="#000000" font-family="sans-serif" font-size="11" lengthAdjust="spacing" textLength="212.3838" x="2063.0645" y="1205.3032">Il reste des &#233;l&#233;ments &#233;ligibles &#224; traiter</text><rect fill="#F1F1F1" height="33.9688" rx="12.5" ry="12.5" style="stroke:#181818;stroke-width:0.5;" width="275.1641" x="2200.0933" y="1259.4951"/><text fill="#000000" font-family="sans-serif" font-size="12" lengthAdjust="spacing" textLength="255.1641" x="2210.0933" y="1280.6338">Finaliser rapport de r&#233;sum&#233; de l'archivage</text><rect fill="#F1F1F1" height="33.9688" rx="12.5" ry="12.5" style="stroke:#181818;stroke-width:0.5;" width="219.1777" x="2228.0864" y="1367.4326"/><text fill="#000000" font-family="sans-serif" font-size="12" lengthAdjust="spacing" textLength="199.1777" x="2238.0864" y="1388.5713">Envoyer rapport de r&#233;sum&#233; &#224; l'UI</text><rect fill="#F1F1F1" height="33.9688" rx="12.5" ry="12.5" style="stroke:#181818;stroke-width:0.5;" width="213.043" x="2908.2778" y="645.7139"/><text fill="#000000" font-family="sans-serif" font-size="12" lengthAdjust="spacing" textLength="193.043" x="2918.2778" y="666.8525">Signaler aucune donn&#233;e &#233;ligible</text><rect fill="#F1F1F1" height="33.9688" rx="12.5" ry="12.5" style="stroke:#181818;stroke-width:0.5;" width="566.4688" x="2393.0029" y="1561.3389"/><text fill="#000000" font-family="sans-serif" font-size="12" lengthAdjust="spacing" textLength="546.4688" x="2403.0029" y="1582.4775">downto-&gt; |Syst&#232;me d'Archivage (Backend)|: Enregistrer log erreur critique (Exc E1) #pink;</text><line style="stroke:#000000;stroke-width:1.5;" x1="1825.8179" x2="1825.8179" y1="50.042" y2="1745.2451"/><line style="stroke:#000000;stroke-width:1.5;" x1="3125.3208" x2="3125.3208" y1="50.042" y2="1745.2451"/><rect fill="#F1F1F1" height="33.9688" rx="12.5" ry="12.5" style="stroke:#181818;stroke-width:0.5;" width="252.8457" x="3369.4048" y="1047.5576"/><text fill="#000000" font-family="sans-serif" font-size="12" lengthAdjust="spacing" textLength="232.8457" x="3379.4048" y="1068.6963">Enregistrer/D&#233;placer donn&#233;es &#233;l&#233;ment</text><line style="stroke:#000000;stroke-width:1.5;" x1="3338.2866" x2="3338.2866" y1="50.042" y2="1745.2451"/><ellipse cx="4162.6675" cy="85.9951" fill="#222222" rx="10" ry="10" style="stroke:#222222;stroke-width:1;"/><rect fill="#F1F1F1" height="33.9688" rx="12.5" ry="12.5" style="stroke:#181818;stroke-width:0.5;" width="485.2988" x="3657.3687" y="1313.4639"/><text fill="#000000" font-family="sans-serif" font-size="12" lengthAdjust="spacing" textLength="465.2988" x="3667.3687" y="1334.6025">Enregistrer action archivage (Qui, Quand, Type(s), Crit&#232;res, R&#233;sultat r&#233;sum&#233;)</text><line style="stroke:#000000;stroke-width:1.5;" x1="3651.3687" x2="3651.3687" y1="50.042" y2="1745.2451"/><line style="stroke:#000000;stroke-width:1.5;" x1="4176.6675" x2="4176.6675" y1="50.042" y2="1745.2451"/><line style="stroke:#181818;stroke-width:1;" x1="547.5977" x2="547.5977" y1="311.8701" y2="331.8701"/><polygon fill="#181818" points="543.5977,321.8701,547.5977,331.8701,551.5977,321.8701,547.5977,325.8701" style="stroke:#181818;stroke-width:1;"/><line style="stroke:#181818;stroke-width:1;" x1="547.5977" x2="547.5977" y1="365.8389" y2="385.8389"/><polygon fill="#181818" points="543.5977,375.8389,547.5977,385.8389,551.5977,375.8389,547.5977,379.8389" style="stroke:#181818;stroke-width:1;"/><line style="stroke:#181818;stroke-width:1;" x1="545.5864" x2="545.5864" y1="1035.0576" y2="1233.4951"/><polygon fill="#181818" points="541.5864,1223.4951,545.5864,1233.4951,549.5864,1223.4951,545.5864,1227.4951" style="stroke:#181818;stroke-width:1;"/><line style="stroke:#181818;stroke-width:1;" x1="215.4238" x2="215.4238" y1="1509.3389" y2="1529.3389"/><polygon fill="#181818" points="211.4238,1519.3389,215.4238,1529.3389,219.4238,1519.3389,215.4238,1523.3389" style="stroke:#181818;stroke-width:1;"/><line style="stroke:#181818;stroke-width:1;" x1="823.832" x2="823.832" y1="802.6201" y2="837.6201"/><polygon fill="#181818" points="819.832,827.6201,823.832,837.6201,827.832,827.6201,823.832,831.6201" style="stroke:#181818;stroke-width:1;"/><line style="stroke:#181818;stroke-width:1;" x1="547.5977" x2="547.5977" y1="1703.2451" y2="1723.2451"/><polygon fill="#181818" points="543.5977,1713.2451,547.5977,1723.2451,551.5977,1713.2451,547.5977,1717.2451" style="stroke:#181818;stroke-width:1;"/><line style="stroke:#181818;stroke-width:1;" x1="1328.9893" x2="1328.9893" y1="203.9326" y2="223.9326"/><polygon fill="#181818" points="1324.9893,213.9326,1328.9893,223.9326,1332.9893,213.9326,1328.9893,217.9326" style="stroke:#181818;stroke-width:1;"/><line style="stroke:#181818;stroke-width:1;" x1="2676.2373" x2="2676.2373" y1="527.7451" y2="547.7451"/><polygon fill="#181818" points="2672.2373,537.7451,2676.2373,547.7451,2680.2373,537.7451,2676.2373,541.7451" style="stroke:#181818;stroke-width:1;"/><line style="stroke:#181818;stroke-width:1;" x1="2169.2563" x2="2169.2563" y1="831.6514" y2="866.6514"/><polygon fill="#181818" points="2165.2563,856.6514,2169.2563,866.6514,2173.2563,856.6514,2169.2563,860.6514" style="stroke:#181818;stroke-width:1;"/><line style="stroke:#181818;stroke-width:1;" x1="2081.0002" x2="2013.981" y1="932.6201" y2="932.6201"/><line style="stroke:#181818;stroke-width:1;" x1="2013.981" x2="2013.981" y1="932.6201" y2="964.6201"/><polygon fill="#181818" points="2009.981,954.6201,2013.981,964.6201,2017.981,954.6201,2013.981,958.6201" style="stroke:#181818;stroke-width:1;"/><line style="stroke:#181818;stroke-width:1;" x1="2257.5125" x2="2324.5317" y1="932.6201" y2="932.6201"/><line style="stroke:#181818;stroke-width:1;" x1="2324.5317" x2="2324.5317" y1="932.6201" y2="964.6201"/><polygon fill="#181818" points="2320.5317,954.6201,2324.5317,964.6201,2328.5317,954.6201,2324.5317,958.6201" style="stroke:#181818;stroke-width:1;"/><line style="stroke:#181818;stroke-width:1;" x1="2013.981" x2="2013.981" y1="1135.4951" y2="1157.4951"/><line style="stroke:#181818;stroke-width:1;" x1="2013.981" x2="2157.2563" y1="1157.4951" y2="1157.4951"/><polygon fill="#181818" points="2147.2563,1153.4951,2157.2563,1157.4951,2147.2563,1161.4951,2151.2563,1157.4951" style="stroke:#181818;stroke-width:1;"/><line style="stroke:#181818;stroke-width:1;" x1="2324.5317" x2="2324.5317" y1="998.5889" y2="1157.4951"/><line style="stroke:#181818;stroke-width:1;" x1="2324.5317" x2="2181.2563" y1="1157.4951" y2="1157.4951"/><polygon fill="#181818" points="2191.2563,1153.4951,2181.2563,1157.4951,2191.2563,1161.4951,2187.2563,1157.4951" style="stroke:#181818;stroke-width:1;"/><line style="stroke:#181818;stroke-width:1;" x1="2169.2563" x2="2169.2563" y1="900.6201" y2="920.6201"/><polygon fill="#181818" points="2165.2563,910.6201,2169.2563,920.6201,2173.2563,910.6201,2169.2563,914.6201" style="stroke:#181818;stroke-width:1;"/><line style="stroke:#181818;stroke-width:1;" x1="2169.2563" x2="2169.2563" y1="749.6826" y2="797.6826"/><polygon fill="#181818" points="2165.2563,787.6826,2169.2563,797.6826,2173.2563,787.6826,2169.2563,791.6826" style="stroke:#181818;stroke-width:1;"/><line style="stroke:#181818;stroke-width:1;" x1="2051.0645" x2="1844.8179" y1="1201.4951" y2="1201.4951"/><polygon fill="#181818" points="1840.8179,993.5889,1844.8179,983.5889,1848.8179,993.5889,1844.8179,989.5889" style="stroke:#181818;stroke-width:1;"/><line style="stroke:#181818;stroke-width:1;" x1="1844.8179" x2="1844.8179" y1="737.6826" y2="1201.4951"/><line style="stroke:#181818;stroke-width:1;" x1="1844.8179" x2="2157.2563" y1="737.6826" y2="737.6826"/><polygon fill="#181818" points="2147.2563,733.6826,2157.2563,737.6826,2147.2563,741.6826,2151.2563,737.6826" style="stroke:#181818;stroke-width:1;"/><line style="stroke:#181818;stroke-width:1;" x1="2169.2563" x2="2169.2563" y1="1169.4951" y2="1189.4951"/><polygon fill="#181818" points="2165.2563,1179.4951,2169.2563,1189.4951,2173.2563,1179.4951,2169.2563,1183.4951" style="stroke:#181818;stroke-width:1;"/><line style="stroke:#181818;stroke-width:1;" x1="2169.2563" x2="2169.2563" y1="705.6826" y2="725.6826"/><polygon fill="#181818" points="2165.2563,715.6826,2169.2563,725.6826,2173.2563,715.6826,2169.2563,719.6826" style="stroke:#181818;stroke-width:1;"/><line style="stroke:#181818;stroke-width:1;" x1="2337.6753" x2="2337.6753" y1="679.6826" y2="699.6826"/><polygon fill="#181818" points="2333.6753,689.6826,2337.6753,699.6826,2341.6753,689.6826,2337.6753,693.6826" style="stroke:#181818;stroke-width:1;"/><line style="stroke:#181818;stroke-width:1;" x1="2539.5876" x2="2337.6753" y1="613.7139" y2="613.7139"/><line style="stroke:#181818;stroke-width:1;" x1="2337.6753" x2="2337.6753" y1="613.7139" y2="645.7139"/><polygon fill="#181818" points="2333.6753,635.7139,2337.6753,645.7139,2341.6753,635.7139,2337.6753,639.7139" style="stroke:#181818;stroke-width:1;"/><line style="stroke:#181818;stroke-width:1;" x1="2812.887" x2="3014.7993" y1="613.7139" y2="613.7139"/><line style="stroke:#181818;stroke-width:1;" x1="3014.7993" x2="3014.7993" y1="613.7139" y2="645.7139"/><polygon fill="#181818" points="3010.7993,635.7139,3014.7993,645.7139,3018.7993,635.7139,3014.7993,639.7139" style="stroke:#181818;stroke-width:1;"/><line style="stroke:#181818;stroke-width:1;" x1="2676.2373" x2="2676.2373" y1="581.7139" y2="601.7139"/><polygon fill="#181818" points="2672.2373,591.7139,2676.2373,601.7139,2680.2373,591.7139,2676.2373,595.7139" style="stroke:#181818;stroke-width:1;"/><line style="stroke:#181818;stroke-width:1;" x1="4162.6675" x2="4162.6675" y1="95.9951" y2="100.9951"/><line style="stroke:#181818;stroke-width:1;" x1="4162.6675" x2="547.5977" y1="100.9951" y2="100.9951"/><line style="stroke:#181818;stroke-width:1;" x1="547.5977" x2="547.5977" y1="100.9951" y2="115.9951"/><polygon fill="#181818" points="543.5977,105.9951,547.5977,115.9951,551.5977,105.9951,547.5977,109.9951" style="stroke:#181818;stroke-width:1;"/><line style="stroke:#181818;stroke-width:1;" x1="547.5977" x2="547.5977" y1="149.9639" y2="154.9639"/><line style="stroke:#181818;stroke-width:1;" x1="547.5977" x2="1328.9893" y1="154.9639" y2="154.9639"/><line style="stroke:#181818;stroke-width:1;" x1="1328.9893" x2="1328.9893" y1="154.9639" y2="169.9639"/><polygon fill="#181818" points="1324.9893,159.9639,1328.9893,169.9639,1332.9893,159.9639,1328.9893,163.9639" style="stroke:#181818;stroke-width:1;"/><line style="stroke:#181818;stroke-width:1;" x1="1328.9893" x2="1328.9893" y1="257.9014" y2="262.9014"/><line style="stroke:#181818;stroke-width:1;" x1="1328.9893" x2="547.5977" y1="262.9014" y2="262.9014"/><line style="stroke:#181818;stroke-width:1;" x1="547.5977" x2="547.5977" y1="262.9014" y2="277.9014"/><polygon fill="#181818" points="543.5977,267.9014,547.5977,277.9014,551.5977,267.9014,547.5977,271.9014" style="stroke:#181818;stroke-width:1;"/><line style="stroke:#181818;stroke-width:1;" x1="547.5977" x2="547.5977" y1="419.8076" y2="424.8076"/><line style="stroke:#181818;stroke-width:1;" x1="547.5977" x2="1328.9893" y1="424.8076" y2="424.8076"/><line style="stroke:#181818;stroke-width:1;" x1="1328.9893" x2="1328.9893" y1="424.8076" y2="439.8076"/><polygon fill="#181818" points="1324.9893,429.8076,1328.9893,439.8076,1332.9893,429.8076,1328.9893,433.8076" style="stroke:#181818;stroke-width:1;"/><line style="stroke:#181818;stroke-width:1;" x1="1328.9893" x2="1328.9893" y1="473.7764" y2="478.7764"/><line style="stroke:#181818;stroke-width:1;" x1="1328.9893" x2="2676.2373" y1="478.7764" y2="478.7764"/><line style="stroke:#181818;stroke-width:1;" x1="2676.2373" x2="2676.2373" y1="478.7764" y2="493.7764"/><polygon fill="#181818" points="2672.2373,483.7764,2676.2373,493.7764,2680.2373,483.7764,2676.2373,487.7764" style="stroke:#181818;stroke-width:1;"/><line style="stroke:#181818;stroke-width:1;" x1="2013.981" x2="2013.981" y1="1012.5576" y2="1030.0576"/><line style="stroke:#181818;stroke-width:1;" x1="2013.981" x2="3495.8276" y1="1030.0576" y2="1030.0576"/><line style="stroke:#181818;stroke-width:1;" x1="3495.8276" x2="3495.8276" y1="1030.0576" y2="1047.5576"/><polygon fill="#181818" points="3491.8276,1037.5576,3495.8276,1047.5576,3499.8276,1037.5576,3495.8276,1041.5576" style="stroke:#181818;stroke-width:1;"/><line style="stroke:#181818;stroke-width:1;" x1="3495.8276" x2="3495.8276" y1="1081.5264" y2="1086.5264"/><line style="stroke:#181818;stroke-width:1;" x1="3495.8276" x2="2013.981" y1="1086.5264" y2="1086.5264"/><line style="stroke:#181818;stroke-width:1;" x1="2013.981" x2="2013.981" y1="1086.5264" y2="1101.5264"/><polygon fill="#181818" points="2009.981,1091.5264,2013.981,1101.5264,2017.981,1091.5264,2013.981,1095.5264" style="stroke:#181818;stroke-width:1;"/><line style="stroke:#181818;stroke-width:1;" x1="1326.978" x2="1326.978" y1="966.0889" y2="983.5889"/><line style="stroke:#181818;stroke-width:1;" x1="1326.978" x2="545.5864" y1="983.5889" y2="983.5889"/><line style="stroke:#181818;stroke-width:1;" x1="545.5864" x2="545.5864" y1="983.5889" y2="1001.0889"/><polygon fill="#181818" points="541.5864,991.0889,545.5864,1001.0889,549.5864,991.0889,545.5864,995.0889" style="stroke:#181818;stroke-width:1;"/><line style="stroke:#181818;stroke-width:1;" x1="2674.2261" x2="2674.2261" y1="705.6826" y2="709.6826"/><line style="stroke:#181818;stroke-width:1;" x1="2674.2261" x2="1326.978" y1="709.6826" y2="709.6826"/><line style="stroke:#181818;stroke-width:1;" x1="1326.978" x2="1326.978" y1="709.6826" y2="932.1201"/><polygon fill="#181818" points="1322.978,922.1201,1326.978,932.1201,1330.978,922.1201,1326.978,926.1201" style="stroke:#181818;stroke-width:1;"/><line style="stroke:#181818;stroke-width:1;" x1="2169.2563" x2="2169.2563" y1="1213.4951" y2="1219.4951"/><line style="stroke:#181818;stroke-width:1;" x1="2169.2563" x2="47.0049" y1="1219.4951" y2="1219.4951"/><line style="stroke:#181818;stroke-width:1;" x1="47.0049" x2="47.0049" y1="1219.4951" y2="1233.4951"/><polygon fill="#181818" points="43.0049,1223.4951,47.0049,1233.4951,51.0049,1223.4951,47.0049,1227.4951" style="stroke:#181818;stroke-width:1;"/><line style="stroke:#181818;stroke-width:1;" x1="215.4238" x2="215.4238" y1="1239.4951" y2="1244.4951"/><line style="stroke:#181818;stroke-width:1;" x1="215.4238" x2="2337.6753" y1="1244.4951" y2="1244.4951"/><line style="stroke:#181818;stroke-width:1;" x1="2337.6753" x2="2337.6753" y1="1244.4951" y2="1259.4951"/><polygon fill="#181818" points="2333.6753,1249.4951,2337.6753,1259.4951,2341.6753,1249.4951,2337.6753,1253.4951" style="stroke:#181818;stroke-width:1;"/><line style="stroke:#181818;stroke-width:1;" x1="2337.6753" x2="2337.6753" y1="1293.4639" y2="1298.4639"/><line style="stroke:#181818;stroke-width:1;" x1="2337.6753" x2="3900.0181" y1="1298.4639" y2="1298.4639"/><line style="stroke:#181818;stroke-width:1;" x1="3900.0181" x2="3900.0181" y1="1298.4639" y2="1313.4639"/><polygon fill="#181818" points="3896.0181,1303.4639,3900.0181,1313.4639,3904.0181,1303.4639,3900.0181,1307.4639" style="stroke:#181818;stroke-width:1;"/><line style="stroke:#181818;stroke-width:1;" x1="3900.0181" x2="3900.0181" y1="1347.4326" y2="1352.4326"/><line style="stroke:#181818;stroke-width:1;" x1="3900.0181" x2="2337.6753" y1="1352.4326" y2="1352.4326"/><line style="stroke:#181818;stroke-width:1;" x1="2337.6753" x2="2337.6753" y1="1352.4326" y2="1367.4326"/><polygon fill="#181818" points="2333.6753,1357.4326,2337.6753,1367.4326,2341.6753,1357.4326,2337.6753,1361.4326" style="stroke:#181818;stroke-width:1;"/><line style="stroke:#181818;stroke-width:1;" x1="2337.6753" x2="2337.6753" y1="1401.4014" y2="1406.4014"/><line style="stroke:#181818;stroke-width:1;" x1="2337.6753" x2="1039.668" y1="1406.4014" y2="1406.4014"/><line style="stroke:#181818;stroke-width:1;" x1="1039.668" x2="1039.668" y1="1406.4014" y2="1421.4014"/><polygon fill="#181818" points="1035.668,1411.4014,1039.668,1421.4014,1043.668,1411.4014,1039.668,1415.4014" style="stroke:#181818;stroke-width:1;"/><line style="stroke:#181818;stroke-width:1;" x1="1039.668" x2="1039.668" y1="1455.3701" y2="1460.3701"/><line style="stroke:#181818;stroke-width:1;" x1="1039.668" x2="215.4238" y1="1460.3701" y2="1460.3701"/><line style="stroke:#181818;stroke-width:1;" x1="215.4238" x2="215.4238" y1="1460.3701" y2="1475.3701"/><polygon fill="#181818" points="211.4238,1465.3701,215.4238,1475.3701,219.4238,1465.3701,215.4238,1469.3701" style="stroke:#181818;stroke-width:1;"/><line style="stroke:#181818;stroke-width:1;" x1="3014.7993" x2="3014.7993" y1="679.6826" y2="684.6826"/><line style="stroke:#181818;stroke-width:1;" x1="3014.7993" x2="1667.5513" y1="684.6826" y2="684.6826"/><line style="stroke:#181818;stroke-width:1;" x1="1667.5513" x2="1667.5513" y1="684.6826" y2="699.6826"/><polygon fill="#181818" points="1663.5513,689.6826,1667.5513,699.6826,1671.5513,689.6826,1667.5513,693.6826" style="stroke:#181818;stroke-width:1;"/><line style="stroke:#181818;stroke-width:1;" x1="1667.5513" x2="1667.5513" y1="733.6514" y2="751.1514"/><line style="stroke:#181818;stroke-width:1;" x1="1667.5513" x2="823.832" y1="751.1514" y2="751.1514"/><line style="stroke:#181818;stroke-width:1;" x1="823.832" x2="823.832" y1="751.1514" y2="768.6514"/><polygon fill="#181818" points="819.832,758.6514,823.832,768.6514,827.832,758.6514,823.832,762.6514" style="stroke:#181818;stroke-width:1;"/><line style="stroke:#181818;stroke-width:1;" x1="2676.2373" x2="2676.2373" y1="1595.3076" y2="1600.3076"/><line style="stroke:#181818;stroke-width:1;" x1="2676.2373" x2="1328.9893" y1="1600.3076" y2="1600.3076"/><line style="stroke:#181818;stroke-width:1;" x1="1328.9893" x2="1328.9893" y1="1600.3076" y2="1615.3076"/><polygon fill="#181818" points="1324.9893,1605.3076,1328.9893,1615.3076,1332.9893,1605.3076,1328.9893,1609.3076" style="stroke:#181818;stroke-width:1;"/><line style="stroke:#181818;stroke-width:1;" x1="1328.9893" x2="1328.9893" y1="1649.2764" y2="1654.2764"/><line style="stroke:#181818;stroke-width:1;" x1="1328.9893" x2="547.5977" y1="1654.2764" y2="1654.2764"/><line style="stroke:#181818;stroke-width:1;" x1="547.5977" x2="547.5977" y1="1654.2764" y2="1669.2764"/><polygon fill="#181818" points="543.5977,1659.2764,547.5977,1669.2764,551.5977,1659.2764,547.5977,1663.2764" style="stroke:#181818;stroke-width:1;"/><text fill="#000000" font-family="sans-serif" font-size="18" lengthAdjust="spacing" textLength="134.4902" x="411.4131" y="66.75">Administrateur</text><text fill="#000000" font-family="sans-serif" font-size="18" lengthAdjust="spacing" textLength="256.5879" x="1255.7732" y="66.75">Interface Administration (UI)</text><text fill="#000000" font-family="sans-serif" font-size="18" lengthAdjust="spacing" textLength="287.8682" x="2331.6353" y="66.75">Syst&#232;me d'Archivage (Backend)</text><text fill="#000000" font-family="sans-serif" font-size="18" lengthAdjust="spacing" textLength="202.9658" x="3130.3208" y="66.75">Base de Donn&#233;es (DB)</text><text fill="#000000" font-family="sans-serif" font-size="18" lengthAdjust="spacing" textLength="303.082" x="3343.2866" y="66.75">Stockage d'Archives (Secondaire)</text><text fill="#000000" font-family="sans-serif" font-size="18" lengthAdjust="spacing" textLength="275.0449" x="3776.4956" y="66.75">Service d'Audit (Audit Service)</text><!--SRC=[bLRBRjHA4DtxAqgmY2rD4W7INOmbfBoGvke25uQm0HPDkyRJnDDj-Z4GAH_3CkOt_6DKjv-JJEImSilTVUhKgLDbMs4BXCip-ES57CA9vcknHGqP6iYKb7M59efkJhADaC9OpImwVHFTBAH5lM8SORGbb8JuSf7G_lBQsFfsWv0TD9WiHuXF6Rz2cVa3fypG9i9v6mJYyzDmqIf-vGzt5_tM4hcI6HCQmn7KMy732PS92t7pQ5_JYSXOfkqUslCtR2joH_bHZWOCyi2PTGpJQ3Ap-Sbg9VYQ84H_C3iO8Gm7x7NfLSHUo2xGruBMQ47NjpajqtrCbtLLDFHa2nMRP0Ui_jNYeVPHlpb3V81hGS9hhzhRihbU9BJ_7vESjgdMfLOSZN5cb_TqvXTogwu9G-DtL_-seNo5XzsWjF3fGykng-WCpZekNppyb2Ncxv7ZLeaX0D5UP8GjLi9Ria-yAaGkWeYaGJ4a0R71WlYskXxtMf00aLYHnVP0MAtSDhma-nSMJfw34S0STn8Ji6ka_9KJIGGmNqXX1Ik48JhVbDEI5N0CcfMbqlQEd00hfQ_e0J2PkZ-aiKHcmv8YVT1C-78IqReA-lQKq-xCnxhIhJHrLHAIhuKXGbojQGibRqfqq8DqLxqM0v4XHgcCyI7kvDt6k_XPLznvLgpfcr72TDNfSQZFCdxDz7VgjHcS4xs2UViHwFdfST_ZPkZhj8_pq6ZezwT7n41PQiozaL4V3op6JjeLvf6r2jZ_DWO8PZ2Ey_hMt5EXmyM2KeebQTQQx4Mo7uWKNYCFmu49G-SVH9IPM8sC0p_MWfexNXJqmeJc7ELtjsbiOw-aTIcmd0dPU7LY2WJ6_OYZGMiTET-DfafCxOD-g6hXc- -GH9TjUU-DkO2sT6AhiSFQ6LiXpwQHeaVLPlvAT5BsROaq42hZDdNLjCEeIptcrDTarqQTzqT3vvqJCtZdcCncq0x1qUoRmNiVlQ3iUXv9-iXi-f6x9vSm-ouNOTHCLssesHwiGET-RUPdIdhceqlncw-TsMT0wyQl9lIuPQ8mtPiay39MbL5qp_tF_I9CsAuN1tycZvHcANAgj2_80q3fN-go8VlwC4_kCXk-iqT7HqyUqkf_6hWPsPZ6aAJMDIoCNzV1ffqQJUDEVmuFC_L3MdNuSbADEOpzMQWSK6kY5Vu518rWY2z-ShXubi3JKiYhz2z-SZfHieCMCwyhwRyxOzXqp__BVZby-pL0QUJL-0C0]--></g></svg>